<svg width="58" height="58" viewBox="0 0 58 58" fill="none" xmlns="http://www.w3.org/2000/svg">
<path d="M4.75628 52.5041C5.90557 49.5714 6.66847 46.5495 7.04496 43.4385C7.42146 40.3274 7.64934 37.2065 7.7286 34.0757C6.18299 33.4812 4.90489 32.4904 3.8943 31.1033C2.88371 29.7162 2.37842 28.131 2.37842 26.3476V21.5919C6.93598 20.0859 11.5827 17.7873 16.3186 14.6961C21.0545 11.6049 25.1266 8.35516 28.5349 4.9469C31.9431 8.35516 36.0152 11.6049 40.7511 14.6961C45.487 17.7873 50.1337 20.0859 54.6913 21.5919V26.3476C54.6913 28.131 54.186 29.7162 53.1754 31.1033C52.1648 32.4904 50.8867 33.4812 49.3411 34.0757C49.4204 37.2065 49.6482 40.3274 50.0247 43.4385C50.4012 46.5495 51.1641 49.5714 52.3134 52.5041H4.75628ZM14.0299 21.5919H43.0398C39.9486 19.8481 37.1645 18.0548 34.6876 16.212C32.2106 14.3692 30.1597 12.7542 28.5349 11.3671C26.91 12.7542 24.8591 14.3692 22.3821 16.212C19.9052 18.0548 17.1211 19.8481 14.0299 21.5919ZM34.4795 29.9144C35.4703 29.9144 36.3124 29.5676 37.006 28.8741C37.6995 28.1805 38.0463 27.3384 38.0463 26.3476H30.9127C30.9127 27.3384 31.2595 28.1805 31.953 28.8741C32.6466 29.5676 33.4887 29.9144 34.4795 29.9144ZM22.5902 29.9144C23.581 29.9144 24.4231 29.5676 25.1167 28.8741C25.8102 28.1805 26.157 27.3384 26.157 26.3476H19.0234C19.0234 27.3384 19.3702 28.1805 20.0637 28.8741C20.7573 29.5676 21.5994 29.9144 22.5902 29.9144ZM10.7009 29.9144C11.6917 29.9144 12.5339 29.5676 13.2274 28.8741C13.9209 28.1805 14.2677 27.3384 14.2677 26.3476H7.13413C7.13413 27.3384 7.4809 28.1805 8.17445 28.8741C8.86799 29.5676 9.71015 29.9144 10.7009 29.9144ZM11.0576 47.7483H17.4184C17.775 45.3705 18.0525 43.0124 18.2506 40.6742C18.4488 38.336 18.6073 35.9779 18.7262 33.6001C18.3695 33.4019 18.0128 33.1939 17.6562 32.9759C17.2995 32.7579 16.9626 32.4904 16.6456 32.1734C16.0511 32.7678 15.4071 33.2533 14.7136 33.6298C14.02 34.0063 13.2769 34.2936 12.4843 34.4918C12.4051 36.7507 12.2663 38.98 12.0682 41.1795C11.87 43.379 11.5332 45.5686 11.0576 47.7483ZM22.2335 47.7483H34.8362C34.5191 45.5686 34.2714 43.3889 34.0931 41.2092C33.9148 39.0295 33.7661 36.83 33.6472 34.6107C32.6168 34.5314 31.6756 34.2837 30.8235 33.8676C29.9715 33.4515 29.2086 32.9065 28.5349 32.2328C27.8611 32.9065 27.0784 33.4515 26.1867 33.8676C25.295 34.2837 24.3736 34.5314 23.4225 34.6107C23.3036 36.83 23.1549 39.0295 22.9766 41.2092C22.7983 43.3889 22.5506 45.5686 22.2335 47.7483ZM39.6513 47.7483H46.0121C45.5365 45.5686 45.1997 43.379 45.0015 41.1795C44.8034 38.98 44.6646 36.7507 44.5854 34.4918C43.7928 34.2936 43.0398 34.0063 42.3264 33.6298C41.6131 33.2533 40.979 32.7678 40.4241 32.1734C40.1071 32.4904 39.7702 32.7579 39.4136 32.9759C39.0569 33.1939 38.7002 33.4019 38.3435 33.6001C38.4624 35.9779 38.6308 38.336 38.8488 40.6742C39.0668 43.0124 39.3343 45.3705 39.6513 47.7483ZM46.3688 29.9144C47.3596 29.9144 48.2017 29.5676 48.8953 28.8741C49.5888 28.1805 49.9356 27.3384 49.9356 26.3476H42.802C42.802 27.3384 43.1488 28.1805 43.8423 28.8741C44.5359 29.5676 45.378 29.9144 46.3688 29.9144Z" fill="#676565"/>
</svg>
