<svg width="19" height="19" viewBox="0 0 19 19" fill="none" xmlns="http://www.w3.org/2000/svg">
<g clip-path="url(#clip0_631_5254)">
<path d="M14.871 8.62012H4.04884C3.19499 8.62012 2.50281 9.3123 2.50281 10.1661V15.5772C2.50281 16.4311 3.19499 17.1233 4.04884 17.1233H14.871C15.7249 17.1233 16.4171 16.4311 16.4171 15.5772V10.1661C16.4171 9.3123 15.7249 8.62012 14.871 8.62012Z" stroke="#7C7B7B" stroke-width="1.54603" stroke-linecap="round" stroke-linejoin="round"/>
<path d="M5.59485 8.62022V5.52816C5.59485 4.50308 6.00206 3.51998 6.7269 2.79514C7.45174 2.0703 8.43484 1.66309 9.45992 1.66309C10.485 1.66309 11.4681 2.0703 12.1929 2.79514C12.9178 3.51998 13.325 4.50308 13.325 5.52816V8.62022" stroke="#7C7B7B" stroke-width="1.54603" stroke-linecap="round" stroke-linejoin="round"/>
</g>
<defs>
<clipPath id="clip0_631_5254">
<rect width="18.5523" height="18.5523" fill="white" transform="translate(0.183777 0.117188)"/>
</clipPath>
</defs>
</svg>
