<svg width="32" height="32" viewBox="0 0 32 32" fill="none" xmlns="http://www.w3.org/2000/svg">
<path d="M15.8009 22.6486C17.621 22.6486 19.1724 22.0072 20.4553 20.7244C21.7381 19.4416 22.3795 17.8901 22.3795 16.0701C22.3795 14.25 21.7381 12.6986 20.4553 11.4157C19.1724 10.1329 17.621 9.49152 15.8009 9.49152C13.9809 9.49152 12.4294 10.1329 11.1466 11.4157C9.86378 12.6986 9.22237 14.25 9.22237 16.0701C9.22237 17.8901 9.86378 19.4416 11.1466 20.7244C12.4294 22.0072 13.9809 22.6486 15.8009 22.6486ZM15.8009 29.4946C13.9389 29.4946 12.1918 29.1425 10.5596 28.4382C8.92744 27.7339 7.50767 26.7781 6.30031 25.5707C5.09295 24.3633 4.13711 22.9436 3.43281 21.3114C2.72851 19.6792 2.37636 17.9321 2.37636 16.0701C2.37636 14.2081 2.72851 12.461 3.43281 10.8288C4.13711 9.19659 5.09295 7.77682 6.30031 6.56945C7.50767 5.36209 8.92744 4.40626 10.5596 3.70196C12.1918 2.99766 13.9389 2.64551 15.8009 2.64551C17.663 2.64551 19.4101 2.99766 21.0422 3.70196C22.6744 4.40626 24.0942 5.36209 25.3016 6.56945C26.5089 7.77682 27.4648 9.19659 28.1691 10.8288C28.8734 12.461 29.2255 14.2081 29.2255 16.0701C29.2255 17.9321 28.8734 19.6792 28.1691 21.3114C27.4648 22.9436 26.5089 24.3633 25.3016 25.5707C24.0942 26.7781 22.6744 27.7339 21.0422 28.4382C19.4101 29.1425 17.663 29.4946 15.8009 29.4946ZM15.8009 26.5014C18.7184 26.5014 21.1863 25.4922 23.2047 23.4738C25.223 21.4554 26.2322 18.9875 26.2322 16.0701C26.2322 13.1526 25.223 10.6847 23.2047 8.66634C21.1863 6.64797 18.7184 5.63878 15.8009 5.63878C12.8835 5.63878 10.4156 6.64797 8.39719 8.66634C6.37882 10.6847 5.36964 13.1526 5.36964 16.0701C5.36964 18.9875 6.37882 21.4554 8.39719 23.4738C10.4156 25.4922 12.8835 26.5014 15.8009 26.5014Z" fill="#008A25"/>
</svg>
