<svg width="54" height="54" viewBox="0 0 54 54" fill="none" xmlns="http://www.w3.org/2000/svg">
<path d="M21.8138 18.0872L19.1902 21.5853V33.8287C19.1902 34.2926 19.3745 34.7375 19.7025 35.0655C20.0305 35.3935 20.4754 35.5778 20.9393 35.5778H33.1828C33.6466 35.5778 34.0915 35.3935 34.4195 35.0655C34.7475 34.7375 34.9318 34.2926 34.9318 33.8287V21.5853L32.3082 18.0872H21.8138Z" fill="#FCFCFC" stroke="#F09925" stroke-width="2.09712" stroke-linecap="round" stroke-linejoin="round"/>
<path d="M19.1902 21.585H34.9318" stroke="#F09925" stroke-width="2.09712" stroke-linecap="round" stroke-linejoin="round"/>
<path d="M30.5592 25.0828C30.5592 26.0105 30.1906 26.9003 29.5346 27.5563C28.8786 28.2123 27.9888 28.5809 27.0611 28.5809C26.1333 28.5809 25.2435 28.2123 24.5875 27.5563C23.9315 26.9003 23.5629 26.0105 23.5629 25.0828" stroke="#F09925" stroke-width="2.09712" stroke-linecap="round" stroke-linejoin="round"/>
</svg>
