<svg width="58" height="58" viewBox="0 0 58 58" fill="none" xmlns="http://www.w3.org/2000/svg">
<path d="M14.379 52.3214L17.5891 45.069C17.0342 44.633 16.4992 44.207 15.984 43.7909C15.4688 43.3747 14.9734 42.9289 14.4978 42.4533C14.1808 42.5722 13.8737 42.6614 13.5764 42.7208C13.2792 42.7803 12.9522 42.81 12.5956 42.81C11.2877 42.81 10.1682 42.3443 9.23684 41.413C8.30551 40.4817 7.83984 39.3621 7.83984 38.0543C7.83984 37.2617 8.00828 36.5384 8.34514 35.8845C8.682 35.2306 9.14767 34.6857 9.74213 34.2497C9.42508 33.3382 9.20711 32.4168 9.08822 31.4855C8.96933 30.5541 8.90988 29.5733 8.90988 28.5429C8.90988 27.5125 8.96933 26.5316 9.08822 25.6003C9.20711 24.6689 9.42508 23.7475 9.74213 22.836C9.14767 22.4001 8.682 21.8551 8.34514 21.2012C8.00828 20.5473 7.83984 19.824 7.83984 19.0314C7.83984 17.7236 8.30551 16.604 9.23684 15.6727C10.1682 14.7414 11.2877 14.2757 12.5956 14.2757C12.9522 14.2757 13.2792 14.3054 13.5764 14.3649C13.8737 14.4243 14.1808 14.5135 14.4978 14.6324C15.8057 13.2057 17.3017 12.0167 18.9861 11.0656C20.6704 10.1145 22.4637 9.4011 24.366 8.92553C24.5641 7.7366 25.109 6.74583 26.0007 5.95321C26.8924 5.16059 27.9327 4.76428 29.1217 4.76428C30.3106 4.76428 31.3509 5.1705 32.2426 5.98293C33.1343 6.79537 33.6792 7.77624 33.8774 8.92553C35.7797 9.4011 37.573 10.1046 39.2573 11.0359C40.9416 11.9672 42.4377 13.1264 43.7455 14.5135C44.0625 14.3946 44.3598 14.3054 44.6372 14.246C44.9146 14.1865 45.2118 14.1568 45.5289 14.1568C46.8367 14.1568 47.9563 14.6225 48.8876 15.5538C49.8189 16.4851 50.2846 17.6047 50.2846 18.9125C50.2846 19.7052 50.1261 20.4086 49.809 21.0229C49.492 21.6372 49.056 22.1623 48.5012 22.5982C48.8183 23.5494 49.0362 24.5203 49.1551 25.5111C49.274 26.5019 49.3335 27.5125 49.3335 28.5429C49.3335 29.5733 49.274 30.5739 49.1551 31.5449C49.0362 32.5159 48.8183 33.4571 48.5012 34.3686C49.056 34.8046 49.492 35.3297 49.809 35.9439C50.1261 36.5582 50.2846 37.2617 50.2846 38.0543C50.2846 39.3621 49.8189 40.4817 48.8876 41.413C47.9563 42.3443 46.8367 42.81 45.5289 42.81C45.2118 42.81 44.9146 42.7803 44.6372 42.7208C44.3598 42.6614 44.0625 42.5722 43.7455 42.4533C43.2699 42.9289 42.7844 43.3946 42.2891 43.8503C41.7937 44.3061 41.2487 44.7519 40.6543 45.1879L43.7455 52.3214H39.3465L37.0875 47.0901C36.5327 47.3279 35.9976 47.536 35.4824 47.7143C34.9672 47.8927 34.4322 48.0413 33.8774 48.1602C33.6792 49.3095 33.1343 50.2903 32.2426 51.1028C31.3509 51.9152 30.3106 52.3214 29.1217 52.3214C27.9327 52.3214 26.8924 51.9251 26.0007 51.1325C25.109 50.3399 24.5641 49.3491 24.366 48.1602C23.7715 48.0413 23.2067 47.8927 22.6717 47.7143C22.1367 47.536 21.5918 47.3279 21.037 47.0901L18.778 52.3214H14.379ZM18.8969 41.9778L22.5826 33.6553C22.0277 32.9419 21.5918 32.1493 21.2747 31.2774C20.9577 30.4055 20.7992 29.494 20.7992 28.5429C20.7992 26.2839 21.6215 24.3321 23.2662 22.6874C24.9109 21.0427 26.8627 20.2204 29.1217 20.2204C31.3806 20.2204 33.3325 21.0427 34.9771 22.6874C36.6218 24.3321 37.4442 26.2839 37.4442 28.5429C37.4442 29.494 37.2757 30.4253 36.9389 31.3368C36.602 32.2484 36.1364 33.0608 35.5419 33.7741L39.2276 41.9778C39.5842 41.6607 39.931 41.3734 40.2679 41.1158C40.6047 40.8582 40.9317 40.551 41.2487 40.1944C41.0506 39.8773 40.9218 39.5305 40.8623 39.154C40.8029 38.7776 40.7732 38.411 40.7732 38.0543C40.7732 36.7861 41.2091 35.6962 42.081 34.7847C42.9529 33.8732 44.0229 33.3778 45.2911 33.2986C45.5289 32.506 45.7072 31.7232 45.8261 30.9504C45.945 30.1776 46.0045 29.3751 46.0045 28.5429C46.0045 27.7106 45.945 26.8883 45.8261 26.0758C45.7072 25.2634 45.5289 24.4609 45.2911 23.6682C44.0229 23.589 42.9529 23.0936 42.081 22.1821C41.2091 21.2706 40.7732 20.1807 40.7732 18.9125C40.7732 18.5559 40.8227 18.2091 40.9218 17.8722C41.0209 17.5354 41.1299 17.2084 41.2487 16.8914C40.0994 15.7421 38.8313 14.7711 37.4442 13.9785C36.0571 13.1859 34.5907 12.5716 33.0451 12.1356C32.6092 12.8094 32.0544 13.3345 31.3806 13.711C30.7069 14.0875 29.9539 14.2757 29.1217 14.2757C28.2894 14.2757 27.5364 14.0875 26.8627 13.711C26.189 13.3345 25.6341 12.8094 25.1982 12.1356C23.5733 12.5716 22.0674 13.1958 20.6803 14.0082C19.2932 14.8206 18.025 15.8213 16.8757 17.0102C16.9946 17.3273 17.1036 17.6543 17.2027 17.9911C17.3017 18.328 17.3513 18.6747 17.3513 19.0314C17.3513 20.2996 16.9352 21.3796 16.1029 22.2713C15.2706 23.163 14.2204 23.6682 12.9522 23.7871C12.7145 24.5798 12.5361 25.3625 12.4172 26.1353C12.2983 26.9081 12.2389 27.7106 12.2389 28.5429C12.2389 29.3751 12.2983 30.1776 12.4172 30.9504C12.5361 31.7232 12.7145 32.506 12.9522 33.2986C14.2204 33.3778 15.2706 33.8732 16.1029 34.7847C16.9352 35.6962 17.3513 36.7861 17.3513 38.0543C17.3513 38.411 17.3216 38.7577 17.2621 39.0946C17.2027 39.4315 17.0739 39.7584 16.8757 40.0755C17.1928 40.4321 17.5197 40.7591 17.8566 41.0563C18.1934 41.3536 18.5402 41.6607 18.8969 41.9778ZM22.4637 43.9989C22.8996 44.1971 23.3455 44.3754 23.8012 44.534C24.257 44.6925 24.7226 44.8312 25.1982 44.9501C25.6341 44.2763 26.189 43.7512 26.8627 43.3747C27.5364 42.9982 28.2894 42.81 29.1217 42.81C29.9539 42.81 30.7069 42.9982 31.3806 43.3747C32.0544 43.7512 32.6092 44.2763 33.0451 44.9501C33.5207 44.8312 33.9666 44.6925 34.3827 44.534C34.7988 44.3754 35.2248 44.1971 35.6608 43.9989L32.2129 36.2709C31.7373 36.469 31.2419 36.6177 30.7267 36.7167C30.2115 36.8158 29.6765 36.8654 29.1217 36.8654C28.5272 36.8654 27.9625 36.8059 27.4274 36.687C26.8924 36.5681 26.3871 36.3898 25.9116 36.152L22.4637 43.9989ZM29.1217 32.1096C30.0728 32.1096 30.9051 31.7728 31.6184 31.0991C32.3318 30.4253 32.6885 29.5733 32.6885 28.5429C32.6885 27.5917 32.3318 26.7595 31.6184 26.0461C30.9051 25.3328 30.0728 24.9761 29.1217 24.9761C28.0913 24.9761 27.2392 25.3328 26.5655 26.0461C25.8917 26.7595 25.5549 27.5917 25.5549 28.5429C25.5549 29.5733 25.8917 30.4253 26.5655 31.0991C27.2392 31.7728 28.0913 32.1096 29.1217 32.1096Z" fill="#00AAD6"/>
</svg>
