<svg width="58" height="58" viewBox="0 0 58 58" fill="none" xmlns="http://www.w3.org/2000/svg">
<path d="M44.3568 23.7869H52.6793V28.5426H47.9236V41.6209C47.9236 43.2854 47.3489 44.6923 46.1996 45.8416C45.0503 46.9908 43.6434 47.5655 41.9789 47.5655C40.3144 47.5655 38.9075 46.9908 37.7582 45.8416C36.6089 44.6923 36.0343 43.2854 36.0343 41.6209C36.0343 39.9564 36.6089 38.5495 37.7582 37.4002C38.9075 36.2509 40.3144 35.6762 41.9789 35.6762C42.296 35.6762 42.6527 35.7059 43.049 35.7654C43.4453 35.8248 43.8812 35.9536 44.3568 36.1518V23.7869ZM7.5 47.5655V40.9075C7.5 39.5204 7.84677 38.272 8.54031 37.1624C9.23385 36.0527 10.1553 35.2006 11.3046 34.6062C13.7617 33.3776 16.2584 32.4562 18.7948 31.8419C21.3312 31.2276 23.9072 30.9205 26.5229 30.9205C28.1874 30.9205 29.842 31.0493 31.4866 31.3069C33.1313 31.5645 34.7859 31.9509 36.4504 32.4661C35.6578 32.9417 34.9444 33.5163 34.3103 34.1901C33.6762 34.8638 33.1214 35.5969 32.6458 36.3896C31.6154 36.1518 30.5949 35.9734 29.5844 35.8545C28.5738 35.7357 27.5533 35.6762 26.5229 35.6762C24.2639 35.6762 22.0446 35.9536 19.8649 36.5085C17.6852 37.0633 15.5451 37.8559 13.4446 38.8863C13.088 39.0845 12.8006 39.3619 12.5827 39.7186C12.3647 40.0752 12.2557 40.4716 12.2557 40.9075V42.8098H31.338C31.4173 43.6024 31.6055 44.395 31.9028 45.1876C32.2 45.9803 32.6062 46.7729 33.1214 47.5655H7.5ZM26.5229 28.5426C23.9072 28.5426 21.6681 27.6113 19.8054 25.7487C17.9428 23.886 17.0114 21.6468 17.0114 19.0312C17.0114 16.4156 17.9428 14.1764 19.8054 12.3138C21.6681 10.4511 23.9072 9.51978 26.5229 9.51978C29.1385 9.51978 31.3777 10.4511 33.2403 12.3138C35.103 14.1764 36.0343 16.4156 36.0343 19.0312C36.0343 21.6468 35.103 23.886 33.2403 25.7487C31.3777 27.6113 29.1385 28.5426 26.5229 28.5426ZM26.5229 23.7869C27.8307 23.7869 28.9503 23.3213 29.8816 22.3899C30.8129 21.4586 31.2786 20.339 31.2786 19.0312C31.2786 17.7234 30.8129 16.6038 29.8816 15.6725C28.9503 14.7412 27.8307 14.2755 26.5229 14.2755C25.215 14.2755 24.0955 14.7412 23.1641 15.6725C22.2328 16.6038 21.7671 17.7234 21.7671 19.0312C21.7671 20.339 22.2328 21.4586 23.1641 22.3899C24.0955 23.3213 25.215 23.7869 26.5229 23.7869Z" fill="#676565"/>
</svg>
