<svg width="58" height="58" viewBox="0 0 58 58" fill="none" xmlns="http://www.w3.org/2000/svg">
<path d="M9.77051 49.9434V45.1877H47.8162V49.9434H9.77051ZM19.2819 40.432C16.6663 40.432 14.4271 39.5006 12.5645 37.638C10.7018 35.7753 9.77051 33.5362 9.77051 30.9205V7.14197H47.8162C49.1241 7.14197 50.2436 7.60763 51.175 8.53896C52.1063 9.47029 52.5719 10.5899 52.5719 11.8977V19.0313C52.5719 20.3391 52.1063 21.4587 51.175 22.39C50.2436 23.3213 49.1241 23.787 47.8162 23.787H43.0605V30.9205C43.0605 33.5362 42.1292 35.7753 40.2665 37.638C38.4039 39.5006 36.1647 40.432 33.5491 40.432H19.2819ZM19.2819 35.6763H33.5491C34.8569 35.6763 35.9765 35.2106 36.9078 34.2793C37.8391 33.3479 38.3048 32.2284 38.3048 30.9205V11.8977H14.5262V30.9205C14.5262 32.2284 14.9919 33.3479 15.9232 34.2793C16.8545 35.2106 17.9741 35.6763 19.2819 35.6763ZM43.0605 19.0313H47.8162V11.8977H43.0605V19.0313ZM19.2819 35.6763H14.5262H38.3048H19.2819Z" fill="#00AAD6"/>
</svg>
