<svg width="58" height="58" viewBox="0 0 58 58" fill="none" xmlns="http://www.w3.org/2000/svg">
<path d="M11.1841 45.5536C9.16294 45.5536 7.59752 44.8501 6.48785 43.4432C5.37818 42.0363 4.96206 40.3223 5.23948 38.3011L7.73623 20.4672C8.0929 18.0893 9.15303 16.1276 10.9166 14.582C12.6802 13.0364 14.7509 12.2635 17.1288 12.2635H40.6696C43.0474 12.2635 45.1181 13.0364 46.8817 14.582C48.6453 16.1276 49.7054 18.0893 50.0621 20.4672L52.5588 38.3011C52.8363 40.3223 52.4201 42.0363 51.3105 43.4432C50.2008 44.8501 48.6354 45.5536 46.6142 45.5536C45.7819 45.5536 45.0091 45.4049 44.2958 45.1077C43.5824 44.8105 42.9285 44.3646 42.3341 43.7702L36.9839 38.42H20.8144L15.4643 43.7702C14.8698 44.3646 14.2159 44.8105 13.5025 45.1077C12.7892 45.4049 12.0164 45.5536 11.1841 45.5536ZM12.1353 40.4412L18.9122 33.6643H38.8862L45.6631 40.4412C45.7423 40.5204 46.0594 40.6393 46.6142 40.7978C47.0501 40.7978 47.3969 40.669 47.6545 40.4114C47.9121 40.1538 48.0013 39.8071 47.922 39.3711L45.3064 21.0616C45.1479 19.9123 44.6326 18.9513 43.7608 18.1785C42.8889 17.4057 41.8585 17.0193 40.6696 17.0193H17.1288C15.9398 17.0193 14.9094 17.4057 14.0375 18.1785C13.1657 18.9513 12.6505 19.9123 12.4919 21.0616L9.8763 39.3711C9.79704 39.8071 9.8862 40.1538 10.1438 40.4114C10.4014 40.669 10.7482 40.7978 11.1841 40.7978C11.2634 40.7978 11.5804 40.6789 12.1353 40.4412ZM40.7884 31.2864C41.4622 31.2864 42.0269 31.0585 42.4827 30.6028C42.9384 30.147 43.1663 29.5823 43.1663 28.9086C43.1663 28.2348 42.9384 27.6701 42.4827 27.2143C42.0269 26.7586 41.4622 26.5307 40.7884 26.5307C40.1147 26.5307 39.55 26.7586 39.0942 27.2143C38.6385 27.6701 38.4106 28.2348 38.4106 28.9086C38.4106 29.5823 38.6385 30.147 39.0942 30.6028C39.55 31.0585 40.1147 31.2864 40.7884 31.2864ZM36.0327 24.1528C36.7065 24.1528 37.2712 23.925 37.727 23.4692C38.1827 23.0134 38.4106 22.4487 38.4106 21.775C38.4106 21.1013 38.1827 20.5365 37.727 20.0808C37.2712 19.625 36.7065 19.3971 36.0327 19.3971C35.359 19.3971 34.7943 19.625 34.3385 20.0808C33.8827 20.5365 33.6549 21.1013 33.6549 21.775C33.6549 22.4487 33.8827 23.0134 34.3385 23.4692C34.7943 23.925 35.359 24.1528 36.0327 24.1528ZM18.7933 31.2864H22.36V27.1252H26.5213V23.5584H22.36V19.3971H18.7933V23.5584H14.632V27.1252H18.7933V31.2864Z" fill="#676565"/>
</svg>
