<svg width="58" height="58" viewBox="0 0 58 58" fill="none" xmlns="http://www.w3.org/2000/svg">
<path d="M49.1812 22.6665L45.8522 19.3375L47.6355 17.4947L40.0264 9.88556L38.1836 11.669L34.7951 8.2805L36.5785 6.43766C37.49 5.52615 38.6195 5.0803 39.967 5.10012C41.3144 5.11994 42.4439 5.5856 43.3554 6.49711L51.024 14.1657C51.9355 15.0772 52.3913 16.1968 52.3913 17.5244C52.3913 18.8521 51.9355 19.9716 51.024 20.8832L49.1812 22.6665ZM20.6469 51.2603C19.7353 52.1718 18.6158 52.6275 17.2881 52.6275C15.9605 52.6275 14.8409 52.1718 13.9294 51.2603L6.26082 43.5917C5.34931 42.6802 4.89355 41.5606 4.89355 40.233C4.89355 38.9053 5.34931 37.7858 6.26082 36.8742L8.04422 35.0908L11.4327 38.4793L9.58982 40.2627L17.2584 47.9313L19.0418 46.0884L22.4303 49.4769L20.6469 51.2603ZM44.2471 31.2863L47.6355 27.8978L29.6233 9.88556L26.2348 13.274L44.2471 31.2863ZM27.6021 47.9313L30.9905 44.4834L13.0377 26.5306L9.58982 29.919L27.6021 47.9313ZM27.2454 34.0208L33.7845 27.5412L29.98 23.7366L23.5003 30.2757L27.2454 34.0208ZM30.9905 51.2603C30.079 52.1718 28.9495 52.6275 27.6021 52.6275C26.2546 52.6275 25.1252 52.1718 24.2136 51.2603L6.26082 33.3075C5.34931 32.3959 4.89355 31.2665 4.89355 29.919C4.89355 28.5716 5.34931 27.4421 6.26082 26.5306L9.64927 23.1421C10.5608 22.2306 11.6804 21.7748 13.008 21.7748C14.3356 21.7748 15.4552 22.2306 16.3667 23.1421L20.1118 26.8872L26.651 20.3481L22.9058 16.6625C21.9943 15.7509 21.5386 14.6215 21.5386 13.274C21.5386 11.9266 21.9943 10.7971 22.9058 9.88556L26.2943 6.49711C27.2058 5.5856 28.3254 5.12984 29.653 5.12984C30.9806 5.12984 32.1002 5.5856 33.0117 6.49711L51.024 24.5094C51.9355 25.4209 52.3913 26.5405 52.3913 27.8681C52.3913 29.1957 51.9355 30.3153 51.024 31.2268L47.6355 34.6153C46.724 35.5268 45.5946 35.9825 44.2471 35.9825C42.8996 35.9825 41.7702 35.5268 40.8587 34.6153L37.173 30.8702L30.6339 37.4093L34.379 41.1544C35.2905 42.0659 35.7463 43.1855 35.7463 44.5131C35.7463 45.8407 35.2905 46.9603 34.379 47.8718L30.9905 51.2603Z" fill="#00AAD6"/>
</svg>
