<svg width="58" height="58" viewBox="0 0 58 58" fill="none" xmlns="http://www.w3.org/2000/svg">
<path d="M12.6208 52.6872L3.10938 26.5307L14.9987 19.3972V5.13H24.5101V19.3972L36.3994 26.5307L26.888 52.6872H12.6208ZM41.1551 52.6872C40.4814 52.6872 39.9166 52.4593 39.4609 52.0035C39.0051 51.5478 38.7772 50.983 38.7772 50.3093C38.7772 49.6356 39.0051 49.0708 39.4609 48.6151C39.9166 48.1593 40.4814 47.9314 41.1551 47.9314H48.2887V43.1757H41.1551C40.4814 43.1757 39.9166 42.9478 39.4609 42.4921C39.0051 42.0363 38.7772 41.4716 38.7772 40.7979C38.7772 40.1241 39.0051 39.5594 39.4609 39.1036C39.9166 38.6479 40.4814 38.42 41.1551 38.42H48.2887V33.6643H41.1551C40.4814 33.6643 39.9166 33.4364 39.4609 32.9807C39.0051 32.5249 38.7772 31.9602 38.7772 31.2864C38.7772 30.6127 39.0051 30.048 39.4609 29.5922C39.9166 29.1365 40.4814 28.9086 41.1551 28.9086H48.2887V24.1529H41.1551C40.4814 24.1529 39.9166 23.925 39.4609 23.4692C39.0051 23.0135 38.7772 22.4487 38.7772 21.775C38.7772 21.1013 39.0051 20.5365 39.4609 20.0808C39.9166 19.625 40.4814 19.3972 41.1551 19.3972H48.2887V14.6414H41.1551C40.4814 14.6414 39.9166 14.4136 39.4609 13.9578C39.0051 13.502 38.7772 12.9373 38.7772 12.2636C38.7772 11.5899 39.0051 11.0251 39.4609 10.5694C39.9166 10.1136 40.4814 9.88572 41.1551 9.88572H50.6665C51.9743 9.88572 53.0939 10.3514 54.0252 11.2827C54.9566 12.214 55.4222 13.3336 55.4222 14.6414V47.9314C55.4222 49.2393 54.9566 50.3588 54.0252 51.2902C53.0939 52.2215 51.9743 52.6872 50.6665 52.6872H41.1551ZM15.9498 47.9314H23.559L30.5736 28.5519L23.2023 24.1529H16.3065L8.93513 28.5519L15.9498 47.9314Z" fill="#676565"/>
</svg>
