<svg width="58" height="58" viewBox="0 0 58 58" fill="none" xmlns="http://www.w3.org/2000/svg">
<path d="M50.91 26.8327V45.7366C50.91 47.0445 50.4444 48.164 49.5131 49.0954C48.5817 50.0267 47.4622 50.4924 46.1543 50.4924H12.8643C11.5565 50.4924 10.4369 50.0267 9.5056 49.0954C8.57428 48.164 8.10861 47.0445 8.10861 45.7366V26.8327C7.1971 26.0004 6.49365 24.9304 5.99826 23.6226C5.50288 22.3147 5.49297 20.888 5.96854 19.3424L8.46529 11.2577C8.78234 10.2273 9.34708 9.37523 10.1595 8.70151C10.9719 8.02778 11.9132 7.69092 12.9832 7.69092H46.0354C47.1055 7.69092 48.0368 8.01787 48.8294 8.67178C49.622 9.3257 50.1967 10.1877 50.5534 11.2577L53.0501 19.3424C53.5257 20.888 53.5158 22.2949 53.0204 23.5631C52.525 24.8313 51.8216 25.9212 50.91 26.8327ZM34.7406 24.3359C35.8107 24.3359 36.6231 23.9693 37.1779 23.2362C37.7328 22.503 37.9507 21.6806 37.8318 20.7691L36.524 12.4466H31.8872V21.2447C31.8872 22.077 32.1646 22.8002 32.7194 23.4145C33.2743 24.0288 33.948 24.3359 34.7406 24.3359ZM24.0403 24.3359C24.9518 24.3359 25.6949 24.0288 26.2695 23.4145C26.8441 22.8002 27.1315 22.077 27.1315 21.2447V12.4466H22.4947L21.1868 20.7691C21.0283 21.7203 21.2364 22.5525 21.811 23.2659C22.3857 23.9792 23.1287 24.3359 24.0403 24.3359ZM13.4588 24.3359C14.1721 24.3359 14.7963 24.0783 15.3314 23.5631C15.8664 23.0479 16.1933 22.394 16.3122 21.6014L17.62 12.4466H12.9832L10.6054 20.4125C10.3676 21.2051 10.4964 22.0571 10.9918 22.9687C11.4872 23.8802 12.3095 24.3359 13.4588 24.3359ZM45.5599 24.3359C46.7092 24.3359 47.5414 23.8802 48.0566 22.9687C48.5718 22.0571 48.6907 21.2051 48.4133 20.4125L45.9165 12.4466H41.3986L42.7064 21.6014C42.8253 22.394 43.1523 23.0479 43.6873 23.5631C44.2223 24.0783 44.8465 24.3359 45.5599 24.3359ZM12.8643 45.7366H46.1543V28.9727C45.9562 29.052 45.8274 29.0916 45.7679 29.0916H45.5599C44.4898 29.0916 43.5486 28.9133 42.7362 28.5566C41.9237 28.1999 41.1212 27.6253 40.3286 26.8327C39.6152 27.546 38.8028 28.1009 37.8913 28.4972C36.9798 28.8935 36.0088 29.0916 34.9784 29.0916C33.9084 29.0916 32.9077 28.8935 31.9764 28.4972C31.045 28.1009 30.2227 27.546 29.5093 26.8327C28.8356 27.546 28.0529 28.1009 27.1612 28.4972C26.2695 28.8935 25.3084 29.0916 24.278 29.0916C23.1287 29.0916 22.0884 28.8935 21.1571 28.4972C20.2258 28.1009 19.4034 27.546 18.6901 26.8327C17.8578 27.6649 17.0355 28.2495 16.2231 28.5863C15.4106 28.9232 14.4892 29.0916 13.4588 29.0916H13.1913C13.0922 29.0916 12.9832 29.052 12.8643 28.9727V45.7366Z" fill="#676565"/>
</svg>
