<svg width="58" height="58" viewBox="0 0 58 58" fill="none" xmlns="http://www.w3.org/2000/svg">
<path d="M17.3767 53.0528V31.2954C15.3556 30.7405 13.6613 29.6309 12.2941 27.9664C10.9268 26.3019 10.2432 24.3599 10.2432 22.1406V5.49561H14.9989V22.1406H17.3767V5.49561H22.1325V22.1406H24.5103V5.49561H29.266V22.1406C29.266 24.3599 28.5824 26.3019 27.2151 27.9664C25.8479 29.6309 24.1536 30.7405 22.1325 31.2954V53.0528H17.3767ZM41.1553 53.0528V34.0299H34.0217V17.3849C34.0217 14.0955 35.1809 11.2916 37.4994 8.97322C39.8178 6.65481 42.6217 5.49561 45.911 5.49561V53.0528H41.1553Z" fill="#676565"/>
</svg>
