<svg width="58" height="58" viewBox="0 0 58 58" fill="none" xmlns="http://www.w3.org/2000/svg">
<path d="M10.0729 26.8963H16.8497C16.612 25.3903 16.1562 23.9834 15.4825 22.6756C14.8088 21.3678 13.9567 20.1987 12.9263 19.1683C12.2129 20.3176 11.6086 21.5362 11.1132 22.8242C10.6178 24.1122 10.271 25.4696 10.0729 26.8963ZM41.1039 26.8963H47.8808C47.6826 25.4696 47.3359 24.1122 46.8405 22.8242C46.3451 21.5362 45.7407 20.3176 45.0274 19.1683C43.997 20.1987 43.1449 21.3678 42.4712 22.6756C41.7974 23.9834 41.3417 25.3903 41.1039 26.8963ZM12.9263 39.3801C13.9567 38.3497 14.8088 37.1806 15.4825 35.8727C16.1562 34.5649 16.612 33.158 16.8497 31.652H10.0729C10.271 33.0788 10.6178 34.4361 11.1132 35.7241C11.6086 37.0121 12.2129 38.2308 12.9263 39.3801ZM45.0274 39.3801C45.7407 38.2308 46.3451 37.0121 46.8405 35.7241C47.3359 34.4361 47.6826 33.0788 47.8808 31.652H41.1039C41.3417 33.158 41.7974 34.5649 42.4712 35.8727C43.1449 37.1806 43.997 38.3497 45.0274 39.3801ZM21.7244 26.8963H26.599V10.3702C24.4985 10.6873 22.5467 11.2718 20.7435 12.1239C18.9403 12.9759 17.3253 14.0955 15.8986 15.4826C17.4442 16.9886 18.7223 18.7026 19.7329 20.6247C20.7435 22.5468 21.4073 24.6374 21.7244 26.8963ZM31.3547 26.8963H36.2293C36.5463 24.6374 37.2101 22.5468 38.2207 20.6247C39.2313 18.7026 40.5094 16.9886 42.055 15.4826C40.6283 14.0955 39.0134 12.9759 37.2101 12.1239C35.4069 11.2718 33.4551 10.6873 31.3547 10.3702V26.8963ZM26.599 48.1782V31.652H21.7244C21.4073 33.911 20.7435 36.0015 19.7329 37.9236C18.7223 39.8457 17.4442 41.5598 15.8986 43.0658C17.3253 44.4528 18.9403 45.5724 20.7435 46.4245C22.5467 47.2765 24.4985 47.8611 26.599 48.1782ZM31.3547 48.1782C33.4551 47.8611 35.4069 47.2765 37.2101 46.4245C39.0134 45.5724 40.6283 44.4528 42.055 43.0658C40.5094 41.5598 39.2313 39.8457 38.2207 37.9236C37.2101 36.0015 36.5463 33.911 36.2293 31.652H31.3547V48.1782ZM28.9768 53.0528C25.6874 53.0528 22.5962 52.4286 19.7032 51.1802C16.8101 49.9318 14.2935 48.2376 12.1535 46.0975C10.0134 43.9575 8.31918 41.4409 7.07081 38.5478C5.82243 35.6548 5.19824 32.5636 5.19824 29.2742C5.19824 25.9848 5.82243 22.8936 7.07081 20.0005C8.31918 17.1075 10.0134 14.5909 12.1535 12.4508C14.2935 10.3108 16.8101 8.61654 19.7032 7.36817C22.5962 6.11979 25.6874 5.49561 28.9768 5.49561C32.2662 5.49561 35.3574 6.11979 38.2505 7.36817C41.1435 8.61654 43.6601 10.3108 45.8002 12.4508C47.9402 14.5909 49.6345 17.1075 50.8828 20.0005C52.1312 22.8936 52.7554 25.9848 52.7554 29.2742C52.7554 32.5636 52.1312 35.6548 50.8828 38.5478C49.6345 41.4409 47.9402 43.9575 45.8002 46.0975C43.6601 48.2376 41.1435 49.9318 38.2505 51.1802C35.3574 52.4286 32.2662 53.0528 28.9768 53.0528Z" fill="#00AAD6"/>
</svg>
