<svg width="58" height="58" viewBox="0 0 58 58" fill="none" xmlns="http://www.w3.org/2000/svg">
<path d="M10.5455 26.8963H17.3224C17.0846 25.3903 16.6289 23.9834 15.9551 22.6756C15.2814 21.3678 14.4293 20.1987 13.3989 19.1683C12.6856 20.3176 12.0812 21.5362 11.5858 22.8242C11.0904 24.1122 10.7437 25.4696 10.5455 26.8963ZM41.5765 26.8963H48.3534C48.1553 25.4696 47.8085 24.1122 47.3131 22.8242C46.8177 21.5362 46.2134 20.3176 45.5 19.1683C44.4696 20.1987 43.6175 21.3678 42.9438 22.6756C42.2701 23.9834 41.8143 25.3903 41.5765 26.8963ZM13.3989 39.3801C14.4293 38.3497 15.2814 37.1806 15.9551 35.8727C16.6289 34.5649 17.0846 33.158 17.3224 31.652H10.5455C10.7437 33.0788 11.0904 34.4361 11.5858 35.7241C12.0812 37.0121 12.6856 38.2308 13.3989 39.3801ZM45.5 39.3801C46.2134 38.2308 46.8177 37.0121 47.3131 35.7241C47.8085 34.4361 48.1553 33.0788 48.3534 31.652H41.5765C41.8143 33.158 42.2701 34.5649 42.9438 35.8727C43.6175 37.1806 44.4696 38.3497 45.5 39.3801ZM22.197 26.8963H27.0716V10.3702C24.9712 10.6873 23.0194 11.2718 21.2161 12.1239C19.4129 12.9759 17.798 14.0955 16.3713 15.4826C17.9169 16.9886 19.195 18.7026 20.2056 20.6247C21.2161 22.5468 21.88 24.6374 22.197 26.8963ZM31.8273 26.8963H36.7019C37.019 24.6374 37.6828 22.5468 38.6934 20.6247C39.704 18.7026 40.9821 16.9886 42.5277 15.4826C41.101 14.0955 39.486 12.9759 37.6828 12.1239C35.8796 11.2718 33.9278 10.6873 31.8273 10.3702V26.8963ZM27.0716 48.1782V31.652H22.197C21.88 33.911 21.2161 36.0015 20.2056 37.9236C19.195 39.8457 17.9169 41.5598 16.3713 43.0658C17.798 44.4528 19.4129 45.5724 21.2161 46.4245C23.0194 47.2765 24.9712 47.8611 27.0716 48.1782ZM31.8273 48.1782C33.9278 47.8611 35.8796 47.2765 37.6828 46.4245C39.486 45.5724 41.101 44.4528 42.5277 43.0658C40.9821 41.5598 39.704 39.8457 38.6934 37.9236C37.6828 36.0015 37.019 33.911 36.7019 31.652H31.8273V48.1782ZM29.4495 53.0528C26.1601 53.0528 23.0689 52.4286 20.1758 51.1802C17.2828 49.9318 14.7662 48.2376 12.6261 46.0975C10.4861 43.9575 8.79184 41.4409 7.54346 38.5478C6.29509 35.6548 5.6709 32.5636 5.6709 29.2742C5.6709 25.9848 6.29509 22.8936 7.54346 20.0005C8.79184 17.1075 10.4861 14.5909 12.6261 12.4508C14.7662 10.3108 17.2828 8.61654 20.1758 7.36817C23.0689 6.11979 26.1601 5.49561 29.4495 5.49561C32.7388 5.49561 35.8301 6.11979 38.7231 7.36817C41.6162 8.61654 44.1327 10.3108 46.2728 12.4508C48.4129 14.5909 50.1071 17.1075 51.3555 20.0005C52.6039 22.8936 53.2281 25.9848 53.2281 29.2742C53.2281 32.5636 52.6039 35.6548 51.3555 38.5478C50.1071 41.4409 48.4129 43.9575 46.2728 46.0975C44.1327 48.2376 41.6162 49.9318 38.7231 51.1802C35.8301 52.4286 32.7388 53.0528 29.4495 53.0528Z" fill="#676565"/>
</svg>
