<svg width="58" height="58" viewBox="0 0 58 58" fill="none" xmlns="http://www.w3.org/2000/svg">
<path d="M11.1429 29.7544C9.47839 29.7544 8.07149 29.1797 6.92219 28.0304C5.77289 26.8811 5.19824 25.4742 5.19824 23.8097C5.19824 22.1452 5.77289 20.7383 6.92219 19.589C8.07149 18.4397 9.47839 17.8651 11.1429 17.8651C12.8074 17.8651 14.2143 18.4397 15.3636 19.589C16.5129 20.7383 17.0875 22.1452 17.0875 23.8097C17.0875 25.4742 16.5129 26.8811 15.3636 28.0304C14.2143 29.1797 12.8074 29.7544 11.1429 29.7544ZM21.8432 20.2429C20.1787 20.2429 18.7718 19.6683 17.6225 18.519C16.4733 17.3697 15.8986 15.9628 15.8986 14.2983C15.8986 12.6338 16.4733 11.2269 17.6225 10.0776C18.7718 8.92829 20.1787 8.35364 21.8432 8.35364C23.5077 8.35364 24.9146 8.92829 26.0639 10.0776C27.2132 11.2269 27.7879 12.6338 27.7879 14.2983C27.7879 15.9628 27.2132 17.3697 26.0639 18.519C24.9146 19.6683 23.5077 20.2429 21.8432 20.2429ZM36.1104 20.2429C34.4459 20.2429 33.039 19.6683 31.8897 18.519C30.7404 17.3697 30.1657 15.9628 30.1657 14.2983C30.1657 12.6338 30.7404 11.2269 31.8897 10.0776C33.039 8.92829 34.4459 8.35364 36.1104 8.35364C37.7749 8.35364 39.1818 8.92829 40.3311 10.0776C41.4804 11.2269 42.055 12.6338 42.055 14.2983C42.055 15.9628 41.4804 17.3697 40.3311 18.519C39.1818 19.6683 37.7749 20.2429 36.1104 20.2429ZM46.8107 29.7544C45.1462 29.7544 43.7393 29.1797 42.5901 28.0304C41.4408 26.8811 40.8661 25.4742 40.8661 23.8097C40.8661 22.1452 41.4408 20.7383 42.5901 19.589C43.7393 18.4397 45.1462 17.8651 46.8107 17.8651C48.4753 17.8651 49.8821 18.4397 51.0314 19.589C52.1807 20.7383 52.7554 22.1452 52.7554 23.8097C52.7554 25.4742 52.1807 26.8811 51.0314 28.0304C49.8821 29.1797 48.4753 29.7544 46.8107 29.7544ZM16.2553 53.5329C14.4719 53.5329 12.9758 52.8493 11.7671 51.482C10.5583 50.1148 9.95396 48.4998 9.95396 46.6371C9.95396 44.5763 10.6574 42.7731 12.0643 41.2275C13.4712 39.6819 14.8682 38.1561 16.2553 36.6501C17.4046 35.4216 18.3954 34.084 19.2276 32.6375C20.0599 31.191 21.0506 29.8336 22.1999 28.5654C23.0718 27.535 24.0824 26.683 25.2317 26.0092C26.381 25.3355 27.6294 24.9986 28.9768 24.9986C30.3243 24.9986 31.5726 25.3157 32.7219 25.9498C33.8712 26.5839 34.8818 27.4161 35.7537 28.4465C36.8634 29.7147 37.8442 31.082 38.6963 32.5483C39.5484 34.0147 40.5491 35.382 41.6984 36.6501C43.0854 38.1561 44.4824 39.6819 45.8893 41.2275C47.2962 42.7731 47.9997 44.5763 47.9997 46.6371C47.9997 48.4998 47.3953 50.1148 46.1866 51.482C44.9778 52.8493 43.4818 53.5329 41.6984 53.5329C39.5583 53.5329 37.438 53.3546 35.3376 52.9979C33.2371 52.6412 31.1169 52.4629 28.9768 52.4629C26.8367 52.4629 24.7165 52.6412 22.616 52.9979C20.5156 53.3546 18.3954 53.5329 16.2553 53.5329Z" fill="#00AAD6"/>
</svg>
