<svg xmlns="http://www.w3.org/2000/svg" width="16" height="16" viewBox="0 0 16 16" fill="none">
<path d="M3.36902 12.6706H4.23859L9.94874 6.95647L9.07917 6.08692L3.36902 11.801V12.6706ZM12.8824 5.99379L10.0292 3.16989L10.8509 2.34416C11.1437 2.04875 11.5001 1.90038 11.9201 1.89906C12.3402 1.89772 12.6979 2.04344 12.9933 2.33619L13.7871 3.13002C14.064 3.40152 14.2039 3.72514 14.2071 4.10086C14.2102 4.47659 14.0787 4.79755 13.8125 5.06372L12.8824 5.99379ZM11.9198 6.97314L4.82917 14.0637H1.97192V11.2105L9.06251 4.11989L11.9198 6.97314ZM9.51794 6.52169L9.07917 6.08692L9.94874 6.95647L9.51794 6.52169Z" fill="#676565"/>
</svg>