<svg width="24" height="24" viewBox="0 0 24 24" fill="none" xmlns="http://www.w3.org/2000/svg">
    <g clip-path="url(#clip0_2973_156)">
    <path d="M12 24C14.3734 24 16.6935 23.2962 18.6668 21.9776C20.6402 20.6591 22.1783 18.7849 23.0866 16.5922C23.9948 14.3995 24.2324 11.9867 23.7694 9.65891C23.3064 7.33114 22.1635 5.19295 20.4853 3.51472C18.8071 1.83649 16.6689 0.693597 14.3411 0.230574C12.0133 -0.232448 9.60051 0.0051918 7.4078 0.913443C5.21509 1.82169 3.34094 3.35976 2.02236 5.33315C0.703788 7.30654 0 9.62662 0 12C0.00344108 15.1815 1.26883 18.2318 3.51852 20.4815C5.76821 22.7312 8.81846 23.9966 12 24ZM12 5C12.2967 5 12.5867 5.08797 12.8334 5.25279C13.08 5.41762 13.2723 5.65188 13.3858 5.92597C13.4994 6.20006 13.5291 6.50166 13.4712 6.79263C13.4133 7.0836 13.2704 7.35088 13.0607 7.56066C12.8509 7.77044 12.5836 7.9133 12.2926 7.97118C12.0017 8.02905 11.7001 7.99935 11.426 7.88582C11.1519 7.77229 10.9176 7.58003 10.7528 7.33335C10.588 7.08668 10.5 6.79667 10.5 6.5C10.5 6.10217 10.658 5.72064 10.9393 5.43934C11.2206 5.15803 11.6022 5 12 5ZM11 10H12C12.5304 10 13.0391 10.2107 13.4142 10.5858C13.7893 10.9609 14 11.4696 14 12V18C14 18.2652 13.8946 18.5196 13.7071 18.7071C13.5196 18.8946 13.2652 19 13 19C12.7348 19 12.4804 18.8946 12.2929 18.7071C12.1054 18.5196 12 18.2652 12 18V12H11C10.7348 12 10.4804 11.8946 10.2929 11.7071C10.1054 11.5196 10 11.2652 10 11C10 10.7348 10.1054 10.4804 10.2929 10.2929C10.4804 10.1054 10.7348 10 11 10Z" fill="#959595"/>
    </g>
    <defs>
    <clipPath id="clip0_2973_156">
    <rect width="24" height="24" fill="white"/>
    </clipPath>
    </defs>
    </svg>
    