<svg xmlns="http://www.w3.org/2000/svg" width="27" height="27" viewBox="0 0 27 27" fill="none">
  <path d="M10.1251 5.01663C11.1506 4.69045 12.2743 4.49956 13.5001 4.49956C18.2048 4.49956 21.4066 7.31157 23.3159 9.79193C24.272 11.0342 24.7501 11.6552 24.7501 13.4996C24.7501 15.3439 24.272 15.965 23.3159 17.2072C21.4066 19.6875 18.2048 22.4996 13.5001 22.4996C8.7955 22.4996 5.59358 19.6875 3.68437 17.2072C2.7282 15.965 2.25012 15.3439 2.25012 13.4996C2.25012 11.6552 2.7282 11.0342 3.68437 9.79193C4.22576 9.08859 4.87107 8.35859 5.62512 7.6736" stroke="#333333" stroke-width="1.6875" stroke-linecap="round"/>
  <path d="M16.875 13.5C16.875 15.364 15.364 16.875 13.5 16.875C11.636 16.875 10.125 15.364 10.125 13.5C10.125 11.636 11.636 10.125 13.5 10.125C15.364 10.125 16.875 11.636 16.875 13.5Z" stroke="#333333" stroke-width="1.6875"/>
</svg>