<svg width="41" height="40" viewBox="0 0 41 40" fill="none" xmlns="http://www.w3.org/2000/svg">
<path d="M40.2409 14.9778C39.1571 16.0617 34.9835 13.6456 30.9189 9.58103C26.8543 5.51643 24.4383 1.34289 25.5221 0.25906C26.6059 -0.824766 30.7795 1.59126 34.8441 5.65587C38.9087 9.72047 41.3247 13.8941 40.2409 14.9778Z" fill="#FDA800"/>
<path d="M0.5 40.0002L9.33143 27.2437L13.2565 31.1688L0.5 40.0002Z" fill="#D9DBE8"/>
<path d="M30.919 9.58076C26.8544 5.51616 24.4384 1.34262 25.5222 0.258789C21.5929 4.18812 22.4387 9.9318 26.5033 13.9964C30.5679 18.061 36.0668 19.1517 39.9953 15.2231L39.9335 15.1586C38.5133 15.6755 34.6728 13.3345 30.919 9.58076Z" fill="#FF5D00"/>
<path d="M27.3878 21.9436L31.9942 17.3372C30.0611 16.8084 28.1628 15.656 26.5037 13.9969C24.844 12.3372 23.7325 10.3979 23.2523 8.41699L18.5577 13.111L14.7284 16.9403C15.2093 18.922 16.5033 20.6781 18.163 22.3371C19.822 23.9968 21.6267 25.243 23.5598 25.7717L27.3878 21.9436Z" fill="#FDA800"/>
<path d="M27.3878 21.9436L31.9942 17.3372C30.0611 16.8084 28.1628 15.656 26.5037 13.9969C24.844 12.3372 23.7325 10.3979 23.2523 8.41699L18.5577 13.111L14.7284 16.9403C15.2093 18.922 16.5033 20.6781 18.163 22.3371C19.822 23.9968 21.6267 25.243 23.5598 25.7717L27.3878 21.9436Z" fill="#FDA800"/>
<path d="M24.9703 30.6528C25.1549 28.9639 24.844 27.1766 24.0405 25.2906L23.5597 25.7721C21.6266 25.2427 19.8219 23.9965 18.1629 22.3375C16.5031 20.6785 15.2091 18.9217 14.7282 16.9407L15.2188 16.4502L15.1972 16.428C13.2996 15.6148 11.5018 15.3005 9.80319 15.4864C6.64682 15.8305 4.76716 19.0924 6.05912 21.9934C7.04234 24.1999 8.85463 26.7671 11.2721 29.1845C13.6887 31.6012 16.2567 33.4142 18.4632 34.3967C21.3636 35.6887 24.6255 33.8091 24.9703 30.6528Z" fill="#FF5D00"/>
</svg>
