<svg width="21" height="20" viewBox="0 0 21 20" fill="none" xmlns="http://www.w3.org/2000/svg">
<path d="M10.3543 18.5029C9.17494 18.5029 8.06838 18.2798 7.0346 17.8338C6.00083 17.3877 5.10158 16.7823 4.33687 16.0176C3.57217 15.2529 2.96677 14.3536 2.52069 13.3199C2.0746 12.2861 1.85156 11.1795 1.85156 10.0002C1.85156 8.82082 2.0746 7.71426 2.52069 6.68048C2.96677 5.6467 3.57217 4.74746 4.33687 3.98275C5.10158 3.21804 6.00083 2.61264 7.0346 2.16656C8.06838 1.72048 9.17494 1.49744 10.3543 1.49744C11.5336 1.49744 12.6402 1.72048 13.674 2.16656C14.7078 2.61264 15.607 3.21804 16.3717 3.98275C17.1364 4.74746 17.7418 5.6467 18.1879 6.68048C18.634 7.71426 18.857 8.82082 18.857 10.0002C18.857 11.1795 18.634 12.2861 18.1879 13.3199C17.7418 14.3536 17.1364 15.2529 16.3717 16.0176C15.607 16.7823 14.7078 17.3877 13.674 17.8338C12.6402 18.2799 11.5336 18.5029 10.3543 18.5029ZM10.3543 16.607C12.2021 16.607 13.7652 15.9679 15.0436 14.6895C16.322 13.4111 16.9612 11.848 16.9612 10.0002C16.9612 8.15235 16.322 6.58924 15.0436 5.31085C13.7652 4.03248 12.2021 3.39329 10.3543 3.39329C8.50647 3.39329 6.94337 4.03248 5.66498 5.31085C4.3866 6.58924 3.74742 8.15235 3.74742 10.0002C3.74742 11.848 4.3866 13.4111 5.66498 14.6895C6.94337 15.9679 8.50647 16.607 10.3543 16.607Z" fill="#676565"/>
</svg>
