<svg width="33" height="32" viewBox="0 0 33 32" fill="none" xmlns="http://www.w3.org/2000/svg">
<path d="M16.2638 29.2671C14.4018 29.2671 12.6547 28.9149 11.0225 28.2107C9.39032 27.5064 7.97054 26.5505 6.76318 25.3432C5.55582 24.1358 4.59998 22.716 3.89568 21.0838C3.19138 19.4517 2.83923 17.7046 2.83923 15.8425C2.83923 13.9805 3.19138 12.2334 3.89568 10.6012C4.59998 8.96905 5.55582 7.54928 6.76318 6.34191C7.97054 5.13455 9.39032 4.17872 11.0225 3.47442C12.6547 2.77012 14.4018 2.41797 16.2638 2.41797C18.1258 2.41797 19.8729 2.77012 21.5051 3.47442C23.1373 4.17872 24.5571 5.13455 25.7644 6.34191C26.9718 7.54928 27.9276 8.96905 28.6319 10.6012C29.3362 12.2334 29.6884 13.9805 29.6884 15.8425C29.6884 17.7046 29.3362 19.4517 28.6319 21.0838C27.9276 22.716 26.9718 24.1358 25.7644 25.3432C24.5571 26.5505 23.1373 27.5064 21.5051 28.2107C19.8729 28.915 18.1258 29.2671 16.2638 29.2671ZM16.2638 26.2738C19.1812 26.2738 21.6492 25.2647 23.6675 23.2463C25.6859 21.2279 26.6951 18.76 26.6951 15.8425C26.6951 12.9251 25.6859 10.4572 23.6675 8.4388C21.6492 6.42043 19.1812 5.41125 16.2638 5.41125C13.3464 5.41125 10.8785 6.42043 8.86006 8.4388C6.84169 10.4572 5.83251 12.9251 5.83251 15.8425C5.83251 18.76 6.84169 21.2279 8.86006 23.2463C10.8785 25.2647 13.3464 26.2738 16.2638 26.2738Z" fill="#D3D3D3"/>
</svg>
