<svg width="25" height="24" viewBox="0 0 25 24" fill="none" xmlns="http://www.w3.org/2000/svg">
    <g clip-path="url(#clip0_2973_159)">
    <path d="M13.336 0.0278035C11.6216 -0.0921554 9.90136 0.157549 8.29178 0.760021C6.68221 1.36249 5.22082 2.30367 4.00652 3.51988C2.79221 4.73608 1.85331 6.19893 1.25335 7.80945C0.653389 9.41996 0.406369 11.1406 0.529003 12.8548C0.970003 19.2078 6.582 23.9998 13.583 23.9998H19.5C20.8256 23.9982 22.0964 23.4709 23.0338 22.5336C23.9711 21.5962 24.4984 20.3254 24.5 18.9998V12.3398C24.5373 9.25725 23.4071 6.2747 21.3363 3.99098C19.2655 1.70725 16.4075 0.291441 13.336 0.0278035ZM19.2 9.7118L12.407 16.4188C12.0322 16.7922 11.5246 17.0019 10.9955 17.0019C10.4664 17.0019 9.95885 16.7922 9.584 16.4188L5.8 12.7148C5.61037 12.5292 5.50226 12.2758 5.49945 12.0104C5.49663 11.745 5.59935 11.4894 5.785 11.2998C5.97065 11.1102 6.22403 11.0021 6.4894 10.9992C6.75476 10.9964 7.01037 11.0992 7.2 11.2848L10.993 14.9918L17.799 8.2918C17.9909 8.12293 18.2403 8.03397 18.4957 8.04321C18.7512 8.05245 18.9935 8.15919 19.1727 8.34149C19.3519 8.52379 19.4545 8.76781 19.4594 9.02341C19.4643 9.27901 19.3711 9.52677 19.199 9.7158L19.2 9.7118Z" fill="#006975"/>
    </g>
    <defs>
    <clipPath id="clip0_2973_159">
    <rect width="24" height="24" fill="white" transform="translate(0.5)"/>
    </clipPath>
    </defs>
    </svg>
    