<svg width="21" height="20" viewBox="0 0 21 20" fill="none" xmlns="http://www.w3.org/2000/svg">
<path d="M10.2083 14.1668C11.3611 14.1668 12.3437 13.7606 13.1562 12.9481C13.9687 12.1356 14.375 11.1529 14.375 10.0002C14.375 8.84739 13.9687 7.86475 13.1562 7.05225C12.3437 6.23975 11.3611 5.8335 10.2083 5.8335C9.05552 5.8335 8.07288 6.23975 7.26038 7.05225C6.44788 7.86475 6.04163 8.84739 6.04163 10.0002C6.04163 11.1529 6.44788 12.1356 7.26038 12.9481C8.07288 13.7606 9.05552 14.1668 10.2083 14.1668ZM10.2083 18.5029C9.02895 18.5029 7.92239 18.2798 6.88861 17.8338C5.85483 17.3877 4.95559 16.7823 4.19088 16.0176C3.42617 15.2529 2.82077 14.3536 2.37469 13.3199C1.92861 12.2861 1.70557 11.1795 1.70557 10.0002C1.70557 8.82082 1.92861 7.71426 2.37469 6.68048C2.82077 5.6467 3.42617 4.74746 4.19088 3.98275C4.95559 3.21804 5.85483 2.61264 6.88861 2.16656C7.92239 1.72048 9.02895 1.49744 10.2083 1.49744C11.3876 1.49744 12.4942 1.72048 13.528 2.16656C14.5618 2.61264 15.461 3.21804 16.2257 3.98275C16.9904 4.74746 17.5958 5.6467 18.0419 6.68048C18.488 7.71426 18.711 8.82082 18.711 10.0002C18.711 11.1795 18.488 12.2861 18.0419 13.3199C17.5958 14.3536 16.9904 15.2529 16.2257 16.0176C15.461 16.7823 14.5618 17.3877 13.528 17.8338C12.4942 18.2799 11.3876 18.5029 10.2083 18.5029ZM10.2083 16.607C12.0561 16.607 13.6192 15.9679 14.8976 14.6895C16.176 13.4111 16.8152 11.848 16.8152 10.0002C16.8152 8.15235 16.176 6.58924 14.8976 5.31085C13.6192 4.03248 12.0561 3.39329 10.2083 3.39329C8.36048 3.39329 6.79737 4.03248 5.51898 5.31085C4.24061 6.58924 3.60142 8.15235 3.60142 10.0002C3.60142 11.848 4.24061 13.4111 5.51898 14.6895C6.79737 15.9679 8.36048 16.607 10.2083 16.607Z" fill="#00AAD6"/>
</svg>
