<svg width="24" height="24" viewBox="0 0 24 24" fill="none" xmlns="http://www.w3.org/2000/svg">
    <path d="M23.08 15.33L15 2.57C14.32 1.59 13.19 1 12 1C10.81 1 9.67998 1.58 8.96998 2.6L0.929974 15.31C-0.0900256 16.77 -0.280026 18.52 0.429974 19.87C1.12997 21.22 2.59997 21.99 4.43997 21.99H19.56C21.41 21.99 22.87 21.22 23.57 19.87C24.27 18.52 24.08 16.78 23.08 15.33ZM11 7C11 6.45 11.45 6 12 6C12.55 6 13 6.45 13 7V13C13 13.55 12.55 14 12 14C11.45 14 11 13.55 11 13V7ZM12 19C11.17 19 10.5 18.33 10.5 17.5C10.5 16.67 11.17 16 12 16C12.83 16 13.5 16.67 13.5 17.5C13.5 18.33 12.83 19 12 19Z" fill="#FF3D3D"/>
    </svg>
    