<svg
  class="icon"
  width="33"
  height="32"
  viewBox="0 0 33 32"
  fill="none"
  xmlns="http://www.w3.org/2000/svg"
>
  <path
    d="M9.19027 26.9379C7.09332 26.9379 5.30169 26.214 3.8154 24.7661C2.32909 23.3183 1.58594 21.5487 1.58594 19.4574C1.58594 17.671 2.11214 16.0747 3.16454 14.6687C4.21696 13.2626 5.60622 12.3654 7.3323 11.977C7.91975 9.91131 9.06009 8.24248 10.7533 6.9705C12.4466 5.6985 14.362 5.0625 16.4997 5.0625C19.1263 5.0625 21.3624 5.97072 23.208 7.78717C25.0537 9.60359 26.0057 11.8224 26.0642 14.4437C27.6135 14.6799 28.8923 15.3889 29.9008 16.5705C30.9093 17.7521 31.4135 19.1256 31.4135 20.6908C31.4135 22.4261 30.8022 23.9011 29.5798 25.1158C28.3573 26.3305 26.8782 26.9379 25.1425 26.9379H18.1359C17.3018 26.9379 16.5877 26.6409 15.9936 26.0468C15.3996 25.4528 15.1026 24.7387 15.1026 23.9045V17.5241L12.9135 19.6625L10.9591 17.7162L16.4997 12.1676L22.0403 17.7162L20.0859 19.6625L17.8968 17.5241V23.9045H25.1425C26.0439 23.9045 26.8089 23.5903 27.4374 22.9618C28.0659 22.3333 28.3801 21.5683 28.3801 20.6669C28.3801 19.7654 28.0659 19.0004 27.4374 18.3719C26.8089 17.7434 26.0439 17.4292 25.1425 17.4292H23.0468V14.643C23.0468 12.8316 22.4085 11.2876 21.1318 10.0109C19.8551 8.7342 18.3111 8.09587 16.4997 8.09587C14.6765 8.09587 13.1295 8.74852 11.8588 10.0538C10.588 11.3591 9.9526 12.9287 9.9526 14.7625H9.19027C7.9278 14.7625 6.85036 15.2087 5.95794 16.1011C5.06549 16.9935 4.61927 18.0709 4.61927 19.3334C4.61927 20.5958 5.06549 21.6733 5.95794 22.5658C6.85036 23.4583 7.9278 23.9045 9.19027 23.9045H12.4359V26.9379H9.19027Z"
    fill="#676565"
  />
</svg>
