<svg width="58" height="58" viewBox="0 0 58 58" fill="none" xmlns="http://www.w3.org/2000/svg">
<path d="M13.8516 52.3214L17.0617 45.069C16.5069 44.633 15.9719 44.207 15.4567 43.7909C14.9415 43.3747 14.4461 42.9289 13.9705 42.4533C13.6535 42.5722 13.3463 42.6614 13.0491 42.7208C12.7519 42.7803 12.4249 42.81 12.0682 42.81C10.7604 42.81 9.64082 42.3443 8.70949 41.413C7.77816 40.4817 7.3125 39.3621 7.3125 38.0543C7.3125 37.2617 7.48093 36.5384 7.81779 35.8845C8.15466 35.2306 8.62032 34.6857 9.21479 34.2497C8.89774 33.3382 8.67977 32.4168 8.56088 31.4855C8.44198 30.5541 8.38254 29.5733 8.38254 28.5429C8.38254 27.5125 8.44198 26.5316 8.56088 25.6003C8.67977 24.6689 8.89774 23.7475 9.21479 22.836C8.62032 22.4001 8.15466 21.8551 7.81779 21.2012C7.48093 20.5473 7.3125 19.824 7.3125 19.0314C7.3125 17.7236 7.77816 16.604 8.70949 15.6727C9.64082 14.7414 10.7604 14.2757 12.0682 14.2757C12.4249 14.2757 12.7519 14.3054 13.0491 14.3649C13.3463 14.4243 13.6535 14.5135 13.9705 14.6324C15.2783 13.2057 16.7744 12.0167 18.4587 11.0656C20.143 10.1145 21.9363 9.4011 23.8386 8.92553C24.0368 7.7366 24.5817 6.74583 25.4734 5.95321C26.3651 5.16059 27.4054 4.76428 28.5943 4.76428C29.7833 4.76428 30.8236 5.1705 31.7153 5.98293C32.607 6.79537 33.1519 7.77624 33.35 8.92553C35.2523 9.4011 37.0456 10.1046 38.7299 11.0359C40.4143 11.9672 41.9103 13.1264 43.2182 14.5135C43.5352 14.3946 43.8324 14.3054 44.1099 14.246C44.3873 14.1865 44.6845 14.1568 45.0015 14.1568C46.3094 14.1568 47.4289 14.6225 48.3603 15.5538C49.2916 16.4851 49.7573 17.6047 49.7573 18.9125C49.7573 19.7052 49.5987 20.4086 49.2817 21.0229C48.9646 21.6372 48.5287 22.1623 47.9739 22.5982C48.2909 23.5494 48.5089 24.5203 48.6278 25.5111C48.7467 26.5019 48.8061 27.5125 48.8061 28.5429C48.8061 29.5733 48.7467 30.5739 48.6278 31.5449C48.5089 32.5159 48.2909 33.4571 47.9739 34.3686C48.5287 34.8046 48.9646 35.3297 49.2817 35.9439C49.5987 36.5582 49.7573 37.2617 49.7573 38.0543C49.7573 39.3621 49.2916 40.4817 48.3603 41.413C47.4289 42.3443 46.3094 42.81 45.0015 42.81C44.6845 42.81 44.3873 42.7803 44.1099 42.7208C43.8324 42.6614 43.5352 42.5722 43.2182 42.4533C42.7426 42.9289 42.2571 43.3946 41.7617 43.8503C41.2663 44.3061 40.7214 44.7519 40.1269 45.1879L43.2182 52.3214H38.8191L36.5602 47.0902C36.0053 47.3279 35.4703 47.536 34.9551 47.7143C34.4399 47.8927 33.9049 48.0413 33.35 48.1602C33.1519 49.3095 32.607 50.2904 31.7153 51.1028C30.8236 51.9152 29.7833 52.3214 28.5943 52.3214C27.4054 52.3214 26.3651 51.9251 25.4734 51.1325C24.5817 50.3399 24.0368 49.3491 23.8386 48.1602C23.2441 48.0413 22.6794 47.8927 22.1444 47.7143C21.6094 47.536 21.0644 47.3279 20.5096 47.0902L18.2506 52.3214H13.8516ZM18.3695 41.9778L22.0552 33.6553C21.5004 32.9419 21.0644 32.1493 20.7474 31.2774C20.4303 30.4055 20.2718 29.494 20.2718 28.5429C20.2718 26.2839 21.0942 24.3321 22.7389 22.6874C24.3835 21.0427 26.3354 20.2204 28.5943 20.2204C30.8533 20.2204 32.8051 21.0427 34.4498 22.6874C36.0945 24.3321 36.9168 26.2839 36.9168 28.5429C36.9168 29.494 36.7484 30.4253 36.4115 31.3368C36.0747 32.2484 35.609 33.0608 35.0145 33.7741L38.7002 41.9778C39.0569 41.6607 39.4037 41.3734 39.7405 41.1158C40.0774 40.8582 40.4044 40.551 40.7214 40.1944C40.5233 39.8773 40.3944 39.5305 40.335 39.154C40.2756 38.7776 40.2458 38.411 40.2458 38.0543C40.2458 36.7861 40.6818 35.6962 41.5537 34.7847C42.4255 33.8732 43.4956 33.3778 44.7638 33.2986C45.0015 32.506 45.1799 31.7232 45.2988 30.9504C45.4177 30.1776 45.4771 29.3751 45.4771 28.5429C45.4771 27.7106 45.4177 26.8883 45.2988 26.0758C45.1799 25.2634 45.0015 24.4609 44.7638 23.6683C43.4956 23.589 42.4255 23.0936 41.5537 22.1821C40.6818 21.2706 40.2458 20.1807 40.2458 18.9125C40.2458 18.5559 40.2954 18.2091 40.3945 17.8722C40.4935 17.5354 40.6025 17.2084 40.7214 16.8914C39.5721 15.7421 38.3039 14.7711 36.9168 13.9785C35.5297 13.1859 34.0634 12.5716 32.5178 12.1356C32.0819 12.8094 31.527 13.3345 30.8533 13.711C30.1796 14.0875 29.4266 14.2757 28.5943 14.2757C27.7621 14.2757 27.0091 14.0875 26.3354 13.711C25.6616 13.3345 25.1068 12.8094 24.6709 12.1356C23.046 12.5716 21.54 13.1958 20.1529 14.0082C18.7658 14.8206 17.4977 15.8213 16.3484 17.0102C16.4673 17.3273 16.5762 17.6543 16.6753 17.9911C16.7744 18.328 16.8239 18.6747 16.8239 19.0314C16.8239 20.2996 16.4078 21.3796 15.5756 22.2713C14.7433 23.163 13.6931 23.6683 12.4249 23.7871C12.1871 24.5798 12.0088 25.3625 11.8899 26.1353C11.771 26.9081 11.7115 27.7106 11.7115 28.5429C11.7115 29.3751 11.771 30.1776 11.8899 30.9504C12.0088 31.7232 12.1871 32.506 12.4249 33.2986C13.6931 33.3778 14.7433 33.8732 15.5756 34.7847C16.4078 35.6962 16.8239 36.7861 16.8239 38.0543C16.8239 38.411 16.7942 38.7577 16.7348 39.0946C16.6753 39.4315 16.5465 39.7584 16.3484 40.0755C16.6654 40.4321 16.9924 40.7591 17.3292 41.0563C17.6661 41.3536 18.0129 41.6607 18.3695 41.9778ZM21.9363 43.9989C22.3723 44.1971 22.8181 44.3754 23.2739 44.534C23.7296 44.6925 24.1953 44.8312 24.6709 44.9501C25.1068 44.2763 25.6616 43.7512 26.3354 43.3747C27.0091 42.9983 27.7621 42.81 28.5943 42.81C29.4266 42.81 30.1796 42.9983 30.8533 43.3747C31.527 43.7512 32.0819 44.2763 32.5178 44.9501C32.9934 44.8312 33.4392 44.6925 33.8553 44.534C34.2715 44.3754 34.6975 44.1971 35.1334 43.9989L31.6855 36.2709C31.21 36.4691 30.7146 36.6177 30.1994 36.7167C29.6842 36.8158 29.1492 36.8654 28.5943 36.8654C27.9999 36.8654 27.4351 36.8059 26.9001 36.687C26.3651 36.5681 25.8598 36.3898 25.3842 36.152L21.9363 43.9989ZM28.5943 32.1096C29.5455 32.1096 30.3777 31.7728 31.0911 31.0991C31.8044 30.4253 32.1611 29.5733 32.1611 28.5429C32.1611 27.5917 31.8044 26.7595 31.0911 26.0461C30.3777 25.3328 29.5455 24.9761 28.5943 24.9761C27.5639 24.9761 26.7119 25.3328 26.0381 26.0461C25.3644 26.7595 25.0275 27.5917 25.0275 28.5429C25.0275 29.5733 25.3644 30.4253 26.0381 31.0991C26.7119 31.7728 27.5639 32.1096 28.5943 32.1096Z" fill="#676565"/>
</svg>
