<svg width="58" height="58" viewBox="0 0 58 58" fill="none" xmlns="http://www.w3.org/2000/svg">
<path d="M16.3523 30.9205L28.7171 38.0541L41.082 30.9205L31.095 25.1542V33.2984H26.3393V25.1542L16.3523 30.9205ZM26.3393 19.6851V18.6746C24.5955 18.1594 23.1688 17.1785 22.0591 15.732C20.9495 14.2854 20.3946 12.611 20.3946 10.7087C20.3946 8.41014 21.2071 6.4484 22.8319 4.82353C24.4568 3.19867 26.4185 2.38623 28.7171 2.38623C31.0157 2.38623 32.9775 3.19867 34.6023 4.82353C36.2272 6.4484 37.0396 8.41014 37.0396 10.7087C37.0396 12.611 36.4848 14.2854 35.3751 15.732C34.2655 17.1785 32.8387 18.1594 31.095 18.6746V19.6851L47.74 29.256C48.493 29.692 49.0775 30.2765 49.4937 31.0097C49.9098 31.7429 50.1178 32.5454 50.1178 33.4173V37.9352C50.1178 38.8071 49.9098 39.6096 49.4937 40.3428C49.0775 41.076 48.493 41.6605 47.74 42.0965L31.095 51.6673C30.342 52.1033 29.5494 52.3212 28.7171 52.3212C27.8849 52.3212 27.0923 52.1033 26.3393 51.6673L9.69426 42.0965C8.94128 41.6605 8.35672 41.076 7.94059 40.3428C7.52447 39.6096 7.31641 38.8071 7.31641 37.9352V33.4173C7.31641 32.5454 7.52447 31.7429 7.94059 31.0097C8.35672 30.2765 8.94128 29.692 9.69426 29.256L26.3393 19.6851ZM26.3393 42.1559L12.0721 33.9523V37.9352L28.7171 47.5655L45.3621 37.9352V33.9523L31.095 42.1559C30.342 42.5918 29.5494 42.8098 28.7171 42.8098C27.8849 42.8098 27.0923 42.5918 26.3393 42.1559ZM28.7171 14.2755C29.7079 14.2755 30.5501 13.9287 31.2436 13.2352C31.9371 12.5417 32.2839 11.6995 32.2839 10.7087C32.2839 9.71796 31.9371 8.8758 31.2436 8.18226C30.5501 7.48872 29.7079 7.14195 28.7171 7.14195C27.7264 7.14195 26.8842 7.48872 26.1907 8.18226C25.4971 8.8758 25.1503 9.71796 25.1503 10.7087C25.1503 11.6995 25.4971 12.5417 26.1907 13.2352C26.8842 13.9287 27.7264 14.2755 28.7171 14.2755Z" fill="#676565"/>
</svg>
