<svg width="58" height="58" viewBox="0 0 58 58" fill="none" xmlns="http://www.w3.org/2000/svg">
<path d="M16.8816 30.9205L29.2464 38.0541L41.6113 30.9205L31.6243 25.1542V33.2984H26.8686V25.1542L16.8816 30.9205ZM26.8686 19.6851V18.6746C25.1248 18.1594 23.6981 17.1785 22.5884 15.732C21.4788 14.2854 20.9239 12.611 20.9239 10.7087C20.9239 8.41014 21.7364 6.4484 23.3612 4.82353C24.9861 3.19867 26.9478 2.38623 29.2464 2.38623C31.545 2.38623 33.5068 3.19867 35.1316 4.82353C36.7565 6.4484 37.5689 8.41014 37.5689 10.7087C37.5689 12.611 37.0141 14.2854 35.9044 15.732C34.7948 17.1785 33.368 18.1594 31.6243 18.6746V19.6851L48.2693 29.256C49.0223 29.692 49.6068 30.2765 50.023 31.0097C50.4391 31.7429 50.6471 32.5454 50.6471 33.4173V37.9352C50.6471 38.8071 50.4391 39.6096 50.023 40.3428C49.6068 41.076 49.0223 41.6605 48.2693 42.0965L31.6243 51.6673C30.8713 52.1033 30.0787 52.3212 29.2464 52.3212C28.4142 52.3212 27.6216 52.1033 26.8686 51.6673L10.2236 42.0965C9.47057 41.6605 8.88602 41.076 8.46989 40.3428C8.05377 39.6096 7.8457 38.8071 7.8457 37.9352V33.4173C7.8457 32.5454 8.05377 31.7429 8.46989 31.0097C8.88602 30.2765 9.47057 29.692 10.2236 29.256L26.8686 19.6851ZM26.8686 42.1559L12.6014 33.9523V37.9352L29.2464 47.5655L45.8914 37.9352V33.9523L31.6243 42.1559C30.8713 42.5918 30.0787 42.8098 29.2464 42.8098C28.4142 42.8098 27.6216 42.5918 26.8686 42.1559ZM29.2464 14.2755C30.2372 14.2755 31.0794 13.9287 31.7729 13.2352C32.4664 12.5417 32.8132 11.6995 32.8132 10.7087C32.8132 9.71796 32.4664 8.8758 31.7729 8.18226C31.0794 7.48872 30.2372 7.14195 29.2464 7.14195C28.2556 7.14195 27.4135 7.48872 26.7199 8.18226C26.0264 8.8758 25.6796 9.71796 25.6796 10.7087C25.6796 11.6995 26.0264 12.5417 26.7199 13.2352C27.4135 13.9287 28.2556 14.2755 29.2464 14.2755Z" fill="#00AAD6"/>
</svg>
