<svg width="58" height="58" viewBox="0 0 58 58" fill="none" xmlns="http://www.w3.org/2000/svg">
<path d="M44.8841 23.7869H53.2066V28.5426H48.4509V41.6209C48.4509 43.2854 47.8763 44.6923 46.727 45.8416C45.5777 46.9908 44.1708 47.5655 42.5063 47.5655C40.8418 47.5655 39.4349 46.9908 38.2856 45.8416C37.1363 44.6923 36.5616 43.2854 36.5616 41.6209C36.5616 39.9564 37.1363 38.5495 38.2856 37.4002C39.4349 36.2509 40.8418 35.6762 42.5063 35.6762C42.8233 35.6762 43.18 35.7059 43.5763 35.7654C43.9726 35.8248 44.4086 35.9536 44.8841 36.1518V23.7869ZM8.02734 47.5655V40.9075C8.02734 39.5204 8.37411 38.272 9.06766 37.1624C9.7612 36.0527 10.6826 35.2006 11.8319 34.6062C14.289 33.3776 16.7858 32.4562 19.3222 31.8419C21.8585 31.2276 24.4346 30.9205 27.0502 30.9205C28.7147 30.9205 30.3693 31.0493 32.014 31.3069C33.6587 31.5645 35.3133 31.9509 36.9778 32.4661C36.1851 32.9417 35.4718 33.5163 34.8377 34.1901C34.2036 34.8638 33.6488 35.5969 33.1732 36.3896C32.1428 36.1518 31.1223 35.9734 30.1117 35.8545C29.1011 35.7357 28.0806 35.6762 27.0502 35.6762C24.7912 35.6762 22.5719 35.9536 20.3922 36.5085C18.2125 37.0633 16.0724 37.8559 13.972 38.8863C13.6153 39.0845 13.328 39.3619 13.11 39.7186C12.892 40.0752 12.7831 40.4716 12.7831 40.9075V42.8098H31.8654C31.9446 43.6024 32.1329 44.395 32.4301 45.1876C32.7273 45.9803 33.1336 46.7729 33.6488 47.5655H8.02734ZM27.0502 28.5426C24.4346 28.5426 22.1954 27.6113 20.3328 25.7487C18.4701 23.886 17.5388 21.6468 17.5388 19.0312C17.5388 16.4156 18.4701 14.1764 20.3328 12.3138C22.1954 10.4511 24.4346 9.51978 27.0502 9.51978C29.6658 9.51978 31.905 10.4511 33.7677 12.3138C35.6303 14.1764 36.5616 16.4156 36.5616 19.0312C36.5616 21.6468 35.6303 23.886 33.7677 25.7487C31.905 27.6113 29.6658 28.5426 27.0502 28.5426ZM27.0502 23.7869C28.358 23.7869 29.4776 23.3213 30.4089 22.3899C31.3403 21.4586 31.8059 20.339 31.8059 19.0312C31.8059 17.7234 31.3403 16.6038 30.4089 15.6725C29.4776 14.7412 28.358 14.2755 27.0502 14.2755C25.7424 14.2755 24.6228 14.7412 23.6915 15.6725C22.7602 16.6038 22.2945 17.7234 22.2945 19.0312C22.2945 20.339 22.7602 21.4586 23.6915 22.3899C24.6228 23.3213 25.7424 23.7869 27.0502 23.7869Z" fill="#00AAD6"/>
</svg>
