<svg width="58" height="58" viewBox="0 0 58 58" fill="none" xmlns="http://www.w3.org/2000/svg">
<path d="M7.68164 52.3214V47.5657H12.4374V39.9566C11.0503 39.481 9.91088 38.6388 9.01919 37.4301C8.12749 36.2214 7.68164 34.8442 7.68164 33.2986V14.2757H21.9488V33.2986C21.9488 34.8442 21.5029 36.2214 20.6112 37.4301C19.7195 38.6388 18.5802 39.481 17.1931 39.9566V47.5657H21.9488V52.3214H7.68164ZM12.4374 26.165H17.1931V19.0314H12.4374V26.165ZM14.8152 35.6764C15.4889 35.6764 16.0537 35.4486 16.5094 34.9928C16.9652 34.537 17.1931 33.9723 17.1931 33.2986V30.9207H12.4374V33.2986C12.4374 33.9723 12.6652 34.537 13.121 34.9928C13.5767 35.4486 14.1415 35.6764 14.8152 35.6764ZM31.4602 52.3214C30.1524 52.3214 29.0328 51.8558 28.1015 50.9244C27.1702 49.9931 26.7045 48.8735 26.7045 47.5657V24.8572C26.7045 23.8268 27.0017 22.9054 27.5962 22.0929C28.1907 21.2805 28.9635 20.6959 29.9146 20.3392L32.1736 19.507C32.7284 19.3088 33.1445 19.0215 33.4219 18.645C33.6994 18.2685 33.8381 17.8029 33.8381 17.248V7.14214C33.8381 6.46841 34.066 5.90367 34.5217 5.44792C34.9775 4.99216 35.5422 4.76428 36.2159 4.76428H43.3495C44.0232 4.76428 44.588 4.99216 45.0437 5.44792C45.4995 5.90367 45.7274 6.46841 45.7274 7.14214V17.248C45.7274 17.8029 45.8661 18.2685 46.1435 18.645C46.4209 19.0215 46.837 19.3088 47.3919 19.507L49.6508 20.3392C50.602 20.6959 51.3748 21.2805 51.9692 22.0929C52.5637 22.9054 52.8609 23.8268 52.8609 24.8572V47.5657C52.8609 48.8735 52.3953 49.9931 51.4639 50.9244C50.5326 51.8558 49.413 52.3214 48.1052 52.3214H31.4602ZM38.5938 11.8979H40.9716V9.52H38.5938V11.8979ZM31.4602 28.5429H48.1052V24.8572L45.8463 24.0249C44.3403 23.4701 43.1513 22.5982 42.2795 21.4093C41.4076 20.2204 40.9716 18.8729 40.9716 17.3669V16.6536H38.5938V17.3669C38.5938 18.8729 38.1578 20.2204 37.286 21.4093C36.4141 22.5982 35.2252 23.4701 33.7192 24.0249L31.4602 24.8572V28.5429ZM31.4602 47.5657H48.1052V42.81H31.4602V47.5657ZM31.4602 38.0543H48.1052V33.2986H31.4602V38.0543Z" fill="#676565"/>
</svg>
