<svg width="58" height="58" viewBox="0 0 58 58" fill="none" xmlns="http://www.w3.org/2000/svg">
<path d="M7.20996 52.3214V47.5657H11.9657V39.9566C10.5786 39.481 9.4392 38.6388 8.54751 37.4301C7.65581 36.2214 7.20996 34.8442 7.20996 33.2986V14.2757H21.4771V33.2986C21.4771 34.8442 21.0313 36.2214 20.1396 37.4301C19.2479 38.6388 18.1085 39.481 16.7214 39.9566V47.5657H21.4771V52.3214H7.20996ZM11.9657 26.165H16.7214V19.0314H11.9657V26.165ZM14.3435 35.6764C15.0173 35.6764 15.582 35.4486 16.0378 34.9928C16.4935 34.537 16.7214 33.9723 16.7214 33.2986V30.9207H11.9657V33.2986C11.9657 33.9723 12.1936 34.537 12.6493 34.9928C13.1051 35.4486 13.6698 35.6764 14.3435 35.6764ZM30.9885 52.3214C29.6807 52.3214 28.5611 51.8558 27.6298 50.9244C26.6985 49.9931 26.2328 48.8735 26.2328 47.5657V24.8572C26.2328 23.8268 26.5301 22.9054 27.1245 22.0929C27.719 21.2805 28.4918 20.6959 29.4429 20.3392L31.7019 19.507C32.2567 19.3088 32.6729 19.0215 32.9503 18.645C33.2277 18.2685 33.3664 17.8029 33.3664 17.248V7.14214C33.3664 6.46841 33.5943 5.90367 34.05 5.44792C34.5058 4.99216 35.0705 4.76428 35.7443 4.76428H42.8778C43.5516 4.76428 44.1163 4.99216 44.572 5.44792C45.0278 5.90367 45.2557 6.46841 45.2557 7.14214V17.248C45.2557 17.8029 45.3944 18.2685 45.6718 18.645C45.9492 19.0215 46.3653 19.3088 46.9202 19.507L49.1791 20.3392C50.1303 20.6959 50.9031 21.2805 51.4976 22.0929C52.092 22.9054 52.3893 23.8268 52.3893 24.8572V47.5657C52.3893 48.8735 51.9236 49.9931 50.9923 50.9244C50.0609 51.8558 48.9414 52.3214 47.6335 52.3214H30.9885ZM38.1221 11.8979H40.5V9.52H38.1221V11.8979ZM30.9885 28.5429H47.6335V24.8572L45.3746 24.0249C43.8686 23.4701 42.6797 22.5982 41.8078 21.4093C40.9359 20.2204 40.5 18.8729 40.5 17.3669V16.6536H38.1221V17.3669C38.1221 18.8729 37.6862 20.2204 36.8143 21.4093C35.9424 22.5982 34.7535 23.4701 33.2475 24.0249L30.9885 24.8572V28.5429ZM30.9885 47.5657H47.6335V42.81H30.9885V47.5657ZM30.9885 38.0543H47.6335V33.2986H30.9885V38.0543Z" fill="#00AAD6"/>
</svg>
