<svg width="58" height="58" viewBox="0 0 58 58" fill="none" xmlns="http://www.w3.org/2000/svg">
<path d="M5.6709 52.3212V33.2984L15.1823 29.0777V21.4091L27.0716 15.4644V11.8977H22.3159V7.14195H27.0716V2.38623H31.8273V7.14195H36.583V11.8977H31.8273V15.4644L43.7166 21.4091V29.0777L53.2281 33.2984V52.3212H31.8273V42.8098C31.8273 42.1361 31.5995 41.5713 31.1437 41.1156C30.6879 40.6598 30.1232 40.432 29.4495 40.432C28.7757 40.432 28.211 40.6598 27.7553 41.1156C27.2995 41.5713 27.0716 42.1361 27.0716 42.8098V52.3212H5.6709ZM10.4266 47.5655H22.3159V42.6909C22.3159 40.6697 23.0094 38.9557 24.3965 37.5488C25.7836 36.1419 27.4679 35.4385 29.4495 35.4385C31.431 35.4385 33.1153 36.1419 34.5024 37.5488C35.8895 38.9557 36.583 40.6697 36.583 42.6909V47.5655H48.4723V36.1518L38.9609 31.8717V23.9058L29.4495 19.0312L19.938 23.9058V31.8717L10.4266 36.1518V47.5655ZM29.4495 32.1095C30.4402 32.1095 31.2824 31.7627 31.9759 31.0691C32.6695 30.3756 33.0163 29.5334 33.0163 28.5427C33.0163 27.5519 32.6695 26.7097 31.9759 26.0162C31.2824 25.3226 30.4402 24.9759 29.4495 24.9759C28.4587 24.9759 27.6165 25.3226 26.923 26.0162C26.2295 26.7097 25.8827 27.5519 25.8827 28.5427C25.8827 29.5334 26.2295 30.3756 26.923 31.0691C27.6165 31.7627 28.4587 32.1095 29.4495 32.1095Z" fill="#676565"/>
</svg>
