<svg width="58" height="58" viewBox="0 0 58 58" fill="none" xmlns="http://www.w3.org/2000/svg">
<path d="M5.19824 52.3212V33.2984L14.7097 29.0777V21.4091L26.599 15.4644V11.8977H21.8432V7.14195H26.599V2.38623H31.3547V7.14195H36.1104V11.8977H31.3547V15.4644L43.244 21.4091V29.0777L52.7554 33.2984V52.3212H31.3547V42.8098C31.3547 42.1361 31.1268 41.5713 30.671 41.1156C30.2153 40.6598 29.6505 40.432 28.9768 40.432C28.3031 40.432 27.7383 40.6598 27.2826 41.1156C26.8268 41.5713 26.599 42.1361 26.599 42.8098V52.3212H5.19824ZM9.95396 47.5655H21.8432V42.6909C21.8432 40.6697 22.5368 38.9557 23.9239 37.5488C25.311 36.1419 26.9953 35.4385 28.9768 35.4385C30.9584 35.4385 32.6427 36.1419 34.0298 37.5488C35.4168 38.9557 36.1104 40.6697 36.1104 42.6909V47.5655H47.9997V36.1518L38.4882 31.8717V23.9058L28.9768 19.0312L19.4654 23.9058V31.8717L9.95396 36.1518V47.5655ZM28.9768 32.1095C29.9676 32.1095 30.8097 31.7627 31.5033 31.0691C32.1968 30.3756 32.5436 29.5334 32.5436 28.5427C32.5436 27.5519 32.1968 26.7097 31.5033 26.0162C30.8097 25.3226 29.9676 24.9759 28.9768 24.9759C27.986 24.9759 27.1439 25.3226 26.4503 26.0162C25.7568 26.7097 25.41 27.5519 25.41 28.5427C25.41 29.5334 25.7568 30.3756 26.4503 31.0691C27.1439 31.7627 27.986 32.1095 28.9768 32.1095Z" fill="#00AAD6"/>
</svg>
