<svg width="58" height="58" viewBox="0 0 58 58" fill="none" xmlns="http://www.w3.org/2000/svg">
<path d="M5.28313 52.5041C6.43243 49.5714 7.19532 46.5495 7.57182 43.4385C7.94831 40.3274 8.17619 37.2065 8.25545 34.0757C6.70985 33.4812 5.43175 32.4904 4.42116 31.1033C3.41057 29.7162 2.90527 28.131 2.90527 26.3476V21.5919C7.46283 20.0859 12.1096 17.7873 16.8455 14.6961C21.5814 11.6049 25.6534 8.35516 29.0617 4.9469C32.47 8.35516 36.542 11.6049 41.278 14.6961C46.0139 17.7873 50.6606 20.0859 55.2181 21.5919V26.3476C55.2181 28.131 54.7128 29.7162 53.7023 31.1033C52.6917 32.4904 51.4136 33.4812 49.868 34.0757C49.9472 37.2065 50.1751 40.3274 50.5516 43.4385C50.9281 46.5495 51.691 49.5714 52.8403 52.5041H5.28313ZM14.5568 21.5919H43.5666C40.4754 19.8481 37.6913 18.0548 35.2144 16.212C32.7375 14.3692 30.6866 12.7542 29.0617 11.3671C27.4368 12.7542 25.3859 14.3692 22.909 16.212C20.4321 18.0548 17.648 19.8481 14.5568 21.5919ZM35.0064 29.9144C35.9971 29.9144 36.8393 29.5676 37.5328 28.8741C38.2264 28.1805 38.5731 27.3384 38.5731 26.3476H31.4396C31.4396 27.3384 31.7863 28.1805 32.4799 28.8741C33.1734 29.5676 34.0156 29.9144 35.0064 29.9144ZM23.1171 29.9144C24.1078 29.9144 24.95 29.5676 25.6435 28.8741C26.3371 28.1805 26.6838 27.3384 26.6838 26.3476H19.5503C19.5503 27.3384 19.897 28.1805 20.5906 28.8741C21.2841 29.5676 22.1263 29.9144 23.1171 29.9144ZM11.2278 29.9144C12.2185 29.9144 13.0607 29.5676 13.7542 28.8741C14.4478 28.1805 14.7946 27.3384 14.7946 26.3476H7.66099C7.66099 27.3384 8.00776 28.1805 8.7013 28.8741C9.39484 29.5676 10.237 29.9144 11.2278 29.9144ZM11.5845 47.7483H17.9452C18.3019 45.3705 18.5793 43.0124 18.7775 40.6742C18.9756 38.336 19.1342 35.9779 19.253 33.6001C18.8964 33.4019 18.5397 33.1939 18.183 32.9759C17.8263 32.7579 17.4895 32.4904 17.1724 32.1734C16.578 32.7678 15.934 33.2533 15.2404 33.6298C14.5469 34.0063 13.8038 34.2936 13.0112 34.4918C12.9319 36.7507 12.7932 38.98 12.595 41.1795C12.3969 43.379 12.06 45.5686 11.5845 47.7483ZM22.7604 47.7483H35.363C35.046 45.5686 34.7983 43.3889 34.6199 41.2092C34.4416 39.0295 34.293 36.83 34.1741 34.6107C33.1437 34.5314 32.2025 34.2837 31.3504 33.8676C30.4983 33.4515 29.7354 32.9065 29.0617 32.2328C28.388 32.9065 27.6053 33.4515 26.7136 33.8676C25.8219 34.2837 24.9005 34.5314 23.9493 34.6107C23.8304 36.83 23.6818 39.0295 23.5035 41.2092C23.3251 43.3889 23.0774 45.5686 22.7604 47.7483ZM40.1782 47.7483H46.539C46.0634 45.5686 45.7265 43.379 45.5284 41.1795C45.3302 38.98 45.1915 36.7507 45.1122 34.4918C44.3196 34.2936 43.5666 34.0063 42.8533 33.6298C42.1399 33.2533 41.5058 32.7678 40.951 32.1734C40.6339 32.4904 40.2971 32.7579 39.9404 32.9759C39.5837 33.1939 39.227 33.4019 38.8704 33.6001C38.9893 35.9779 39.1577 38.336 39.3757 40.6742C39.5936 43.0124 39.8611 45.3705 40.1782 47.7483ZM46.8956 29.9144C47.8864 29.9144 48.7286 29.5676 49.4221 28.8741C50.1157 28.1805 50.4624 27.3384 50.4624 26.3476H43.3289C43.3289 27.3384 43.6756 28.1805 44.3692 28.8741C45.0627 29.5676 45.9049 29.9144 46.8956 29.9144Z" fill="#00AAD6"/>
</svg>
