<svg width="58" height="58" viewBox="0 0 58 58" fill="none" xmlns="http://www.w3.org/2000/svg">
<path d="M26.3382 45.3707C22.3751 45.3707 19.0065 43.9836 16.2323 41.2095C13.4582 38.4353 12.0711 35.0667 12.0711 31.1036C12.0711 30.6676 12.0909 30.2317 12.1305 29.7958C12.1702 29.3598 12.2296 28.9239 12.3089 28.4879C12.1107 28.5672 11.8729 28.6266 11.5955 28.6663C11.3181 28.7059 11.0803 28.7257 10.8821 28.7257C9.21764 28.7257 7.81074 28.1511 6.66145 27.0018C5.51215 25.8525 4.9375 24.4456 4.9375 22.7811C4.9375 21.1166 5.48243 19.7097 6.57228 18.5604C7.66213 17.4111 9.0393 16.8364 10.7038 16.8364C12.0116 16.8364 13.1906 17.203 14.2409 17.9362C15.2911 18.6694 16.0342 19.6106 16.4701 20.7599C17.7779 19.571 19.274 18.6198 20.9583 17.9065C22.6426 17.1931 24.4359 16.8364 26.3382 16.8364H52.4947V26.3479H40.6054V31.1036C40.6054 35.0667 39.2183 38.4353 36.4441 41.2095C33.6699 43.9836 30.3013 45.3707 26.3382 45.3707ZM10.8821 25.1589C11.5559 25.1589 12.1206 24.931 12.5764 24.4753C13.0321 24.0195 13.26 23.4548 13.26 22.7811C13.26 22.1073 13.0321 21.5426 12.5764 21.0868C12.1206 20.6311 11.5559 20.4032 10.8821 20.4032C10.2084 20.4032 9.64368 20.6311 9.18792 21.0868C8.73216 21.5426 8.50429 22.1073 8.50429 22.7811C8.50429 23.4548 8.73216 24.0195 9.18792 24.4753C9.64368 24.931 10.2084 25.1589 10.8821 25.1589ZM26.3382 39.4261C28.6368 39.4261 30.5985 38.6136 32.2234 36.9888C33.8483 35.3639 34.6607 33.4022 34.6607 31.1036C34.6607 28.805 33.8483 26.8432 32.2234 25.2184C30.5985 23.5935 28.6368 22.7811 26.3382 22.7811C24.0396 22.7811 22.0779 23.5935 20.453 25.2184C18.8282 26.8432 18.0157 28.805 18.0157 31.1036C18.0157 33.4022 18.8282 35.3639 20.453 36.9888C22.0779 38.6136 24.0396 39.4261 26.3382 39.4261ZM26.3382 35.8593C27.646 35.8593 28.7656 35.3936 29.6969 34.4623C30.6283 33.531 31.0939 32.4114 31.0939 31.1036C31.0939 29.7958 30.6283 28.6762 29.6969 27.7448C28.7656 26.8135 27.646 26.3479 26.3382 26.3479C25.0304 26.3479 23.9108 26.8135 22.9795 27.7448C22.0482 28.6762 21.5825 29.7958 21.5825 31.1036C21.5825 32.4114 22.0482 33.531 22.9795 34.4623C23.9108 35.3936 25.0304 35.8593 26.3382 35.8593Z" fill="#676565"/>
</svg>
