<svg width="58" height="58" viewBox="0 0 58 58" fill="none" xmlns="http://www.w3.org/2000/svg">
<path d="M26.8675 45.3707C22.9044 45.3707 19.5358 43.9836 16.7616 41.2095C13.9875 38.4353 12.6004 35.0667 12.6004 31.1036C12.6004 30.6676 12.6202 30.2317 12.6598 29.7958C12.6994 29.3598 12.7589 28.9239 12.8382 28.4879C12.64 28.5672 12.4022 28.6266 12.1248 28.6663C11.8474 28.7059 11.6096 28.7257 11.4114 28.7257C9.74694 28.7257 8.34004 28.1511 7.19074 27.0018C6.04145 25.8525 5.4668 24.4456 5.4668 22.7811C5.4668 21.1166 6.01172 19.7097 7.10157 18.5604C8.19143 17.4111 9.5686 16.8364 11.2331 16.8364C12.5409 16.8364 13.7199 17.203 14.7702 17.9362C15.8204 18.6694 16.5635 19.6106 16.9994 20.7599C18.3072 19.571 19.8033 18.6198 21.4876 17.9065C23.1719 17.1931 24.9652 16.8364 26.8675 16.8364H53.0239V26.3479H41.1347V31.1036C41.1347 35.0667 39.7476 38.4353 36.9734 41.2095C34.1992 43.9836 30.8306 45.3707 26.8675 45.3707ZM11.4114 25.1589C12.0852 25.1589 12.6499 24.931 13.1057 24.4753C13.5614 24.0195 13.7893 23.4548 13.7893 22.7811C13.7893 22.1073 13.5614 21.5426 13.1057 21.0868C12.6499 20.6311 12.0852 20.4032 11.4114 20.4032C10.7377 20.4032 10.173 20.6311 9.71722 21.0868C9.26146 21.5426 9.03358 22.1073 9.03358 22.7811C9.03358 23.4548 9.26146 24.0195 9.71722 24.4753C10.173 24.931 10.7377 25.1589 11.4114 25.1589ZM26.8675 39.4261C29.1661 39.4261 31.1278 38.6136 32.7527 36.9888C34.3776 35.3639 35.19 33.4022 35.19 31.1036C35.19 28.805 34.3776 26.8432 32.7527 25.2184C31.1278 23.5935 29.1661 22.7811 26.8675 22.7811C24.5689 22.7811 22.6072 23.5935 20.9823 25.2184C19.3574 26.8432 18.545 28.805 18.545 31.1036C18.545 33.4022 19.3574 35.3639 20.9823 36.9888C22.6072 38.6136 24.5689 39.4261 26.8675 39.4261ZM26.8675 35.8593C28.1753 35.8593 29.2949 35.3936 30.2262 34.4623C31.1576 33.531 31.6232 32.4114 31.6232 31.1036C31.6232 29.7958 31.1576 28.6762 30.2262 27.7448C29.2949 26.8135 28.1753 26.3479 26.8675 26.3479C25.5597 26.3479 24.4401 26.8135 23.5088 27.7448C22.5775 28.6762 22.1118 29.7958 22.1118 31.1036C22.1118 32.4114 22.5775 33.531 23.5088 34.4623C24.4401 35.3936 25.5597 35.8593 26.8675 35.8593Z" fill="#00AAD6"/>
</svg>
