<svg width="58" height="58" viewBox="0 0 58 58" fill="none" xmlns="http://www.w3.org/2000/svg">
<path d="M22.4253 38.2371L29.0833 33.2435L35.6224 38.2371L33.1256 30.1523L39.7836 24.921H31.6989L29.0833 16.8363L26.4676 24.921H18.3829L24.922 30.1523L22.4253 38.2371ZM10.0604 47.7485C8.75258 47.7485 7.63301 47.2828 6.70168 46.3515C5.77035 45.4202 5.30469 44.3006 5.30469 42.9928V34.9675C5.30469 34.5316 5.4434 34.1551 5.72081 33.838C5.99823 33.521 6.35491 33.3228 6.79085 33.2435C7.74199 32.9265 8.5247 32.3519 9.13898 31.5196C9.75326 30.6874 10.0604 29.756 10.0604 28.7256C10.0604 27.6952 9.75326 26.7639 9.13898 25.9316C8.5247 25.0994 7.74199 24.5247 6.79085 24.2077C6.35491 24.1284 5.99823 23.9303 5.72081 23.6132C5.4434 23.2962 5.30469 22.9197 5.30469 22.4837V14.4585C5.30469 13.1507 5.77035 12.0311 6.70168 11.0998C7.63301 10.1684 8.75258 9.70276 10.0604 9.70276H48.1061C49.4139 9.70276 50.5335 10.1684 51.4648 11.0998C52.3962 12.0311 52.8618 13.1507 52.8618 14.4585V22.4837C52.8618 22.9197 52.7231 23.2962 52.4457 23.6132C52.1683 23.9303 51.8116 24.1284 51.3757 24.2077C50.4245 24.5247 49.6418 25.0994 49.0275 25.9316C48.4133 26.7639 48.1061 27.6952 48.1061 28.7256C48.1061 29.756 48.4133 30.6874 49.0275 31.5196C49.6418 32.3519 50.4245 32.9265 51.3757 33.2435C51.8116 33.3228 52.1683 33.521 52.4457 33.838C52.7231 34.1551 52.8618 34.5316 52.8618 34.9675V42.9928C52.8618 44.3006 52.3962 45.4202 51.4648 46.3515C50.5335 47.2828 49.4139 47.7485 48.1061 47.7485H10.0604ZM10.0604 42.9928H48.1061V36.9292C46.6398 36.0573 45.4806 34.8981 44.6285 33.4516C43.7764 32.0051 43.3504 30.4298 43.3504 28.7256C43.3504 27.0215 43.7764 25.4462 44.6285 23.9996C45.4806 22.5531 46.6398 21.3939 48.1061 20.522V14.4585H10.0604V20.522C11.5267 21.3939 12.686 22.5531 13.538 23.9996C14.3901 25.4462 14.8161 27.0215 14.8161 28.7256C14.8161 30.4298 14.3901 32.0051 13.538 33.4516C12.686 34.8981 11.5267 36.0573 10.0604 36.9292V42.9928Z" fill="#676565"/>
</svg>
