<svg width="58" height="58" viewBox="0 0 58 58" fill="none" xmlns="http://www.w3.org/2000/svg">
<path d="M19.7544 45.3705H23.3212V29.3199C24.3516 29.0029 25.2037 28.4382 25.8774 27.6257C26.5512 26.8133 26.888 25.8324 26.888 24.6831V15.6473C26.888 15.3302 26.7691 15.0528 26.5313 14.815C26.2936 14.5772 26.0161 14.4583 25.6991 14.4583C25.382 14.4583 25.1046 14.5772 24.8668 14.815C24.6291 15.0528 24.5102 15.3302 24.5102 15.6473V21.5919H22.7268V15.6473C22.7268 15.3302 22.6079 15.0528 22.3701 14.815C22.1323 14.5772 21.8549 14.4583 21.5378 14.4583C21.2208 14.4583 20.9434 14.5772 20.7056 14.815C20.4678 15.0528 20.3489 15.3302 20.3489 15.6473V21.5919H18.5655V15.6473C18.5655 15.3302 18.4466 15.0528 18.2088 14.815C17.9711 14.5772 17.6936 14.4583 17.3766 14.4583C17.0595 14.4583 16.7821 14.5772 16.5443 14.815C16.3066 15.0528 16.1877 15.3302 16.1877 15.6473V24.6831C16.1877 25.8324 16.5245 26.8133 17.1983 27.6257C17.872 28.4382 18.724 29.0029 19.7544 29.3199V45.3705ZM34.0216 45.3705H37.5884V30.2711C38.8962 29.637 39.9167 28.6264 40.6499 27.2393C41.383 25.8522 41.7496 24.2274 41.7496 22.3647C41.7496 20.1057 41.1849 18.2233 40.0554 16.7173C38.9259 15.2113 37.5091 14.4583 35.805 14.4583C34.1009 14.4583 32.6841 15.2113 31.5546 16.7173C30.4251 18.2233 29.8603 20.1057 29.8603 22.3647C29.8603 24.2274 30.2269 25.8522 30.9601 27.2393C31.6933 28.6264 32.7138 29.637 34.0216 30.2711V45.3705ZM10.243 52.5041C8.9352 52.5041 7.81562 52.0384 6.8843 51.1071C5.95297 50.1757 5.4873 49.0562 5.4873 47.7483V9.70261C5.4873 8.39479 5.95297 7.27522 6.8843 6.34389C7.81562 5.41256 8.9352 4.9469 10.243 4.9469H48.2887C49.5966 4.9469 50.7161 5.41256 51.6475 6.34389C52.5788 7.27522 53.0445 8.39479 53.0445 9.70261V47.7483C53.0445 49.0562 52.5788 50.1757 51.6475 51.1071C50.7161 52.0384 49.5966 52.5041 48.2887 52.5041H10.243ZM10.243 47.7483H48.2887V9.70261H10.243V47.7483Z" fill="#676565"/>
</svg>
