<svg width="58" height="58" viewBox="0 0 58 58" fill="none" xmlns="http://www.w3.org/2000/svg">
<path d="M12.3281 16.8362C11.7336 16.1625 11.2679 15.4293 10.9311 14.6367C10.5942 13.844 10.4258 12.992 10.4258 12.0805C10.4258 10.0989 11.1193 8.41461 12.5064 7.02752C13.8935 5.64044 15.5778 4.9469 17.5594 4.9469C19.5409 4.9469 21.2252 5.64044 22.6123 7.02752C23.9994 8.41461 24.6929 10.0989 24.6929 12.0805C24.6929 12.992 24.5245 13.844 24.1876 14.6367C23.8508 15.4293 23.3851 16.1625 22.7906 16.8362H12.3281ZM24.6929 52.5041C22.0773 52.5041 19.8381 51.5727 17.9755 49.7101C16.1128 47.8474 15.1815 45.6083 15.1815 42.9926H12.8036L10.4258 19.214H24.6929L22.3151 42.9926H19.9372C19.9372 44.3004 20.4029 45.42 21.3342 46.3513C22.2655 47.2827 23.3851 47.7483 24.6929 47.7483C26.0007 47.7483 27.1203 47.2827 28.0517 46.3513C28.983 45.42 29.4486 44.3004 29.4486 42.9926V14.4583C29.4486 11.8427 30.38 9.60354 32.2426 7.74088C34.1053 5.87823 36.3444 4.9469 38.9601 4.9469C41.5757 4.9469 43.8149 5.87823 45.6775 7.74088C47.5402 9.60354 48.4715 11.8427 48.4715 14.4583V52.5041H43.7158V14.4583C43.7158 13.1505 43.2501 12.0309 42.3188 11.0996C41.3875 10.1683 40.2679 9.70261 38.9601 9.70261C37.6523 9.70261 36.5327 10.1683 35.6013 11.0996C34.67 12.0309 34.2044 13.1505 34.2044 14.4583V42.9926C34.2044 45.6083 33.273 47.8474 31.4104 49.7101C29.5477 51.5727 27.3086 52.5041 24.6929 52.5041ZM17.0838 38.2369H18.0349L19.4616 23.9698H15.6571L17.0838 38.2369ZM18.0349 23.9698H15.6571H19.4616H18.0349Z" fill="#676565"/>
</svg>
