<svg width="58" height="58" viewBox="0 0 58 58" fill="none" xmlns="http://www.w3.org/2000/svg">
<path d="M11.8564 16.8362C11.2619 16.1625 10.7963 15.4293 10.4594 14.6367C10.1225 13.844 9.9541 12.992 9.9541 12.0805C9.9541 10.0989 10.6476 8.41461 12.0347 7.02752C13.4218 5.64044 15.1061 4.9469 17.0877 4.9469C19.0692 4.9469 20.7535 5.64044 22.1406 7.02752C23.5277 8.41461 24.2212 10.0989 24.2212 12.0805C24.2212 12.992 24.0528 13.844 23.716 14.6367C23.3791 15.4293 22.9134 16.1625 22.319 16.8362H11.8564ZM24.2212 52.5041C21.6056 52.5041 19.3665 51.5727 17.5038 49.7101C15.6411 47.8474 14.7098 45.6083 14.7098 42.9926H12.332L9.9541 19.214H24.2212L21.8434 42.9926H19.4655C19.4655 44.3004 19.9312 45.42 20.8625 46.3513C21.7939 47.2827 22.9134 47.7483 24.2212 47.7483C25.5291 47.7483 26.6486 47.2827 27.58 46.3513C28.5113 45.42 28.977 44.3004 28.977 42.9926V14.4583C28.977 11.8427 29.9083 9.60354 31.7709 7.74088C33.6336 5.87823 35.8728 4.9469 38.4884 4.9469C41.104 4.9469 43.3432 5.87823 45.2058 7.74088C47.0685 9.60354 47.9998 11.8427 47.9998 14.4583V52.5041H43.2441V14.4583C43.2441 13.1505 42.7784 12.0309 41.8471 11.0996C40.9158 10.1683 39.7962 9.70261 38.4884 9.70261C37.1806 9.70261 36.061 10.1683 35.1297 11.0996C34.1983 12.0309 33.7327 13.1505 33.7327 14.4583V42.9926C33.7327 45.6083 32.8014 47.8474 30.9387 49.7101C29.076 51.5727 26.8369 52.5041 24.2212 52.5041ZM16.6121 38.2369H17.5632L18.99 23.9698H15.1854L16.6121 38.2369ZM17.5632 23.9698H15.1854H18.99H17.5632Z" fill="#00AAD6"/>
</svg>
