<svg width="58" height="58" viewBox="0 0 58 58" fill="none" xmlns="http://www.w3.org/2000/svg">
<path d="M4.75586 52.687L16.6451 19.397L38.0459 40.7977L4.75586 52.687ZM12.6028 44.8401L29.3667 38.8954L18.5474 28.0762L12.6028 44.8401ZM34.598 30.2162L32.1012 27.7195L45.4172 14.4035C46.6854 13.1353 48.2112 12.5012 49.9946 12.5012C51.778 12.5012 53.3038 13.1353 54.572 14.4035L55.9987 15.8302L53.5019 18.327L52.0752 16.9002C51.5204 16.3454 50.8269 16.068 49.9946 16.068C49.1624 16.068 48.4688 16.3454 47.914 16.9002L34.598 30.2162ZM25.0865 20.7048L22.5898 18.2081L24.0165 16.7813C24.5713 16.2265 24.8488 15.5528 24.8488 14.7602C24.8488 13.9676 24.5713 13.2938 24.0165 12.739L22.4709 11.1934L24.9677 8.69663L26.5133 10.2422C27.7815 11.5104 28.4155 13.0164 28.4155 14.7602C28.4155 16.5039 27.7815 18.0099 26.5133 19.2781L25.0865 20.7048ZM29.8423 25.4605L27.3455 22.9638L35.9058 14.4035C36.4606 13.8487 36.738 13.1551 36.738 12.3229C36.738 11.4906 36.4606 10.7971 35.9058 10.2422L32.1012 6.43767L34.598 3.94092L38.4025 7.74549C39.6707 9.01368 40.3048 10.5395 40.3048 12.3229C40.3048 14.1063 39.6707 15.6321 38.4025 16.9002L29.8423 25.4605ZM39.3537 34.972L36.8569 32.4752L40.6615 28.6706C41.9297 27.4024 43.4555 26.7684 45.2389 26.7684C47.0223 26.7684 48.5481 27.4024 49.8163 28.6706L53.6208 32.4752L51.1241 34.972L47.3195 31.1674C46.7647 30.6126 46.0711 30.3351 45.2389 30.3351C44.4066 30.3351 43.7131 30.6126 43.1583 31.1674L39.3537 34.972Z" fill="#676565"/>
</svg>
