<svg width="58" height="58" viewBox="0 0 58 58" fill="none" xmlns="http://www.w3.org/2000/svg">
<path d="M10.2225 50.3091C8.91469 50.3091 7.79512 49.8435 6.86379 48.9121C5.93246 47.9808 5.4668 46.8612 5.4668 45.5534V38.4198H53.0239V45.5534C53.0239 46.8612 52.5583 47.9808 51.627 48.9121C50.6956 49.8435 49.5761 50.3091 48.2682 50.3091H10.2225ZM10.2225 43.1756V45.5534H48.2682V43.1756H10.2225ZM29.2454 32.4752C27.8187 32.4752 26.6892 32.8715 25.8569 33.6641C25.0247 34.4567 23.4989 34.8531 21.2795 34.8531C19.0602 34.8531 17.5542 34.4567 16.7616 33.6641C15.969 32.8715 14.8593 32.4752 13.4326 32.4752C12.0059 32.4752 10.8764 32.8715 10.0442 33.6641C9.21192 34.4567 7.68613 34.8531 5.4668 34.8531V30.0973C6.89351 30.0973 8.02299 29.701 8.85524 28.9084C9.68749 28.1158 11.2133 27.7195 13.4326 27.7195C15.652 27.7195 17.1579 28.1158 17.9505 28.9084C18.7432 29.701 19.8528 30.0973 21.2795 30.0973C22.7063 30.0973 23.8357 29.701 24.668 28.9084C25.5002 28.1158 27.026 27.7195 29.2454 27.7195C31.4647 27.7195 32.9905 28.1158 33.8227 28.9084C34.655 29.701 35.7845 30.0973 37.2112 30.0973C38.6379 30.0973 39.7476 29.701 40.5402 28.9084C41.3328 28.1158 42.8388 27.7195 45.0581 27.7195C47.2775 27.7195 48.8429 28.1158 49.7544 28.9084C50.6659 29.701 51.7558 30.0973 53.0239 30.0973V34.8531C50.8046 34.8531 49.3185 34.4567 48.5655 33.6641C47.8125 32.8715 46.7226 32.4752 45.2959 32.4752C43.8692 32.4752 42.7199 32.8715 41.848 33.6641C40.9761 34.4567 39.4305 34.8531 37.2112 34.8531C34.9919 34.8531 33.4661 34.4567 32.6338 33.6641C31.8016 32.8715 30.6721 32.4752 29.2454 32.4752ZM5.4668 24.1527V21.7748C5.4668 17.2173 7.61678 13.7 11.9167 11.2231C16.2167 8.74616 21.9929 7.50769 29.2454 7.50769C36.4978 7.50769 42.2741 8.74616 46.574 11.2231C50.874 13.7 53.0239 17.2173 53.0239 21.7748V24.1527H5.4668ZM29.2454 12.2634C24.3311 12.2634 20.2194 12.8777 16.9102 14.1062C13.6011 15.3348 11.4907 17.0984 10.5792 19.397H47.9116C47 17.0984 44.8897 15.3348 41.5805 14.1062C38.2713 12.8777 34.1596 12.2634 29.2454 12.2634Z" fill="#00AAD6"/>
</svg>
