<svg width="58" height="58" viewBox="0 0 58 58" fill="none" xmlns="http://www.w3.org/2000/svg">
<path d="M9.69322 50.3091C8.38539 50.3091 7.26582 49.8435 6.33449 48.9121C5.40316 47.9808 4.9375 46.8612 4.9375 45.5534V38.4198H52.4947V45.5534C52.4947 46.8612 52.029 47.9808 51.0977 48.9121C50.1663 49.8435 49.0468 50.3091 47.7389 50.3091H9.69322ZM9.69322 43.1756V45.5534H47.7389V43.1756H9.69322ZM28.7161 32.4752C27.2894 32.4752 26.1599 32.8715 25.3276 33.6641C24.4954 34.4567 22.9696 34.8531 20.7503 34.8531C18.5309 34.8531 17.0249 34.4567 16.2323 33.6641C15.4397 32.8715 14.33 32.4752 12.9033 32.4752C11.4766 32.4752 10.3471 32.8715 9.51488 33.6641C8.68263 34.4567 7.15683 34.8531 4.9375 34.8531V30.0973C6.36421 30.0973 7.4937 29.701 8.32595 28.9084C9.1582 28.1158 10.684 27.7195 12.9033 27.7195C15.1227 27.7195 16.6286 28.1158 17.4213 28.9084C18.2139 29.701 19.3235 30.0973 20.7503 30.0973C22.177 30.0973 23.3064 29.701 24.1387 28.9084C24.9709 28.1158 26.4967 27.7195 28.7161 27.7195C30.9354 27.7195 32.4612 28.1158 33.2935 28.9084C34.1257 29.701 35.2552 30.0973 36.6819 30.0973C38.1086 30.0973 39.2183 29.701 40.0109 28.9084C40.8035 28.1158 42.3095 27.7195 44.5288 27.7195C46.7482 27.7195 48.3136 28.1158 49.2251 28.9084C50.1366 29.701 51.2265 30.0973 52.4947 30.0973V34.8531C50.2753 34.8531 48.7892 34.4567 48.0362 33.6641C47.2832 32.8715 46.1933 32.4752 44.7666 32.4752C43.3399 32.4752 42.1906 32.8715 41.3187 33.6641C40.4468 34.4567 38.9012 34.8531 36.6819 34.8531C34.4626 34.8531 32.9368 34.4567 32.1045 33.6641C31.2723 32.8715 30.1428 32.4752 28.7161 32.4752ZM4.9375 24.1527V21.7748C4.9375 17.2173 7.08748 13.7 11.3874 11.2231C15.6874 8.74616 21.4636 7.50769 28.7161 7.50769C35.9685 7.50769 41.7448 8.74616 46.0447 11.2231C50.3447 13.7 52.4947 17.2173 52.4947 21.7748V24.1527H4.9375ZM28.7161 12.2634C23.8018 12.2634 19.6901 12.8777 16.3809 14.1062C13.0718 15.3348 10.9614 17.0984 10.0499 19.397H47.3823C46.4707 17.0984 44.3604 15.3348 41.0512 14.1062C37.742 12.8777 33.6303 12.2634 28.7161 12.2634Z" fill="#676565"/>
</svg>
