<svg width="58" height="58" viewBox="0 0 58 58" fill="none" xmlns="http://www.w3.org/2000/svg">
<path d="M11.7115 45.5536C9.69028 45.5536 8.12486 44.8501 7.01519 43.4432C5.90553 42.0363 5.4894 40.3223 5.76682 38.3011L8.26357 20.4672C8.62025 18.0893 9.68038 16.1276 11.444 14.582C13.2075 13.0364 15.2782 12.2635 17.6561 12.2635H41.1969C43.5748 12.2635 45.6455 13.0364 47.409 14.582C49.1726 16.1276 50.2328 18.0893 50.5894 20.4672L53.0862 38.3011C53.3636 40.3223 52.9475 42.0363 51.8378 43.4432C50.7281 44.8501 49.1627 45.5536 47.1415 45.5536C46.3093 45.5536 45.5365 45.4049 44.8231 45.1077C44.1098 44.8105 43.4559 44.3646 42.8614 43.7702L37.5112 38.42H21.3418L15.9916 43.7702C15.3971 44.3646 14.7432 44.8105 14.0299 45.1077C13.3165 45.4049 12.5437 45.5536 11.7115 45.5536ZM12.6626 40.4412L19.4395 33.6643H39.4135L46.1904 40.4412C46.2697 40.5204 46.5867 40.6393 47.1415 40.7978C47.5775 40.7978 47.9243 40.669 48.1819 40.4114C48.4395 40.1538 48.5286 39.8071 48.4494 39.3711L45.8337 21.0616C45.6752 19.9123 45.16 18.9513 44.2881 18.1785C43.4162 17.4057 42.3858 17.0193 41.1969 17.0193H17.6561C16.4672 17.0193 15.4368 17.4057 14.5649 18.1785C13.693 18.9513 13.1778 19.9123 13.0193 21.0616L10.4036 39.3711C10.3244 39.8071 10.4135 40.1538 10.6711 40.4114C10.9288 40.669 11.2755 40.7978 11.7115 40.7978C11.7907 40.7978 12.1078 40.6789 12.6626 40.4412ZM41.3158 31.2864C41.9895 31.2864 42.5543 31.0585 43.01 30.6028C43.4658 30.147 43.6936 29.5823 43.6936 28.9086C43.6936 28.2348 43.4658 27.6701 43.01 27.2143C42.5543 26.7586 41.9895 26.5307 41.3158 26.5307C40.6421 26.5307 40.0773 26.7586 39.6216 27.2143C39.1658 27.6701 38.9379 28.2348 38.9379 28.9086C38.9379 29.5823 39.1658 30.147 39.6216 30.6028C40.0773 31.0585 40.6421 31.2864 41.3158 31.2864ZM36.5601 24.1528C37.2338 24.1528 37.7985 23.925 38.2543 23.4692C38.7101 23.0134 38.9379 22.4487 38.9379 21.775C38.9379 21.1013 38.7101 20.5365 38.2543 20.0808C37.7985 19.625 37.2338 19.3971 36.5601 19.3971C35.8863 19.3971 35.3216 19.625 34.8658 20.0808C34.4101 20.5365 34.1822 21.1013 34.1822 21.775C34.1822 22.4487 34.4101 23.0134 34.8658 23.4692C35.3216 23.925 35.8863 24.1528 36.5601 24.1528ZM19.3206 31.2864H22.8874V27.1252H27.0486V23.5584H22.8874V19.3971H19.3206V23.5584H15.1594V27.1252H19.3206V31.2864Z" fill="#00AAD6"/>
</svg>
