<svg width="58" height="58" viewBox="0 0 58 58" fill="none" xmlns="http://www.w3.org/2000/svg">
<path d="M29.4487 21.775C27.1501 21.775 25.1884 20.9626 23.5635 19.3377C21.9386 17.7128 21.1262 15.7511 21.1262 13.4525C21.1262 11.1539 21.9386 9.19218 23.5635 7.56731C25.1884 5.94244 27.1501 5.13 29.4487 5.13C31.7473 5.13 33.709 5.94244 35.3339 7.56731C36.9588 9.19218 37.7712 11.1539 37.7712 13.4525C37.7712 15.7511 36.9588 17.7128 35.3339 19.3377C33.709 20.9626 31.7473 21.775 29.4487 21.775ZM29.4487 17.0193C30.4395 17.0193 31.2816 16.6725 31.9752 15.979C32.6687 15.2854 33.0155 14.4433 33.0155 13.4525C33.0155 12.4617 32.6687 11.6196 31.9752 10.926C31.2816 10.2325 30.4395 9.88572 29.4487 9.88572C28.4579 9.88572 27.6158 10.2325 26.9222 10.926C26.2287 11.6196 25.8819 12.4617 25.8819 13.4525C25.8819 14.4433 26.2287 15.2854 26.9222 15.979C27.6158 16.6725 28.4579 17.0193 29.4487 17.0193ZM29.4487 52.6872L15.1816 38.42C14.3889 37.6274 13.7945 36.7357 13.3982 35.7449C13.0019 34.7541 12.8037 33.6643 12.8037 32.4754C12.8037 30.1371 13.6062 28.1655 15.2113 26.5604C16.8163 24.9554 18.788 24.1529 21.1262 24.1529C22.2755 24.1529 23.3356 24.3708 24.3066 24.8068C25.2776 25.2427 26.1593 25.857 26.952 26.6496L29.4487 29.1464L31.9455 26.6496C32.7381 25.857 33.6199 25.2427 34.5908 24.8068C35.5618 24.3708 36.6219 24.1529 37.7712 24.1529C40.1094 24.1529 42.0811 24.9554 43.6861 26.5604C45.2912 28.1655 46.0937 30.1371 46.0937 32.4754C46.0937 33.6643 45.8956 34.7541 45.4993 35.7449C45.1029 36.7357 44.5085 37.6274 43.7159 38.42L29.4487 52.6872ZM29.4487 45.9103L40.268 35.091C40.6246 34.7343 40.8922 34.3281 41.0705 33.8724C41.2488 33.4166 41.338 32.9509 41.338 32.4754C41.338 31.5242 41.0011 30.692 40.3274 29.9786C39.6537 29.2653 38.8016 28.9086 37.7712 28.9086C37.2956 28.9086 36.8696 28.9779 36.4931 29.1166C36.1166 29.2554 35.75 29.503 35.3934 29.8597L29.4487 35.8044L23.5041 29.8597C23.2663 29.6219 22.9591 29.404 22.5827 29.2058C22.2062 29.0077 21.7207 28.9086 21.1262 28.9086C20.0958 28.9086 19.2437 29.2653 18.57 29.9786C17.8963 30.692 17.5594 31.5242 17.5594 32.4754C17.5594 32.9509 17.6585 33.3968 17.8567 33.8129C18.0548 34.229 18.3124 34.6154 18.6295 34.9721L29.4487 45.9103Z" fill="#676565"/>
</svg>
