<svg width="58" height="58" viewBox="0 0 58 58" fill="none" xmlns="http://www.w3.org/2000/svg">
<g clip-path="url(#clip0_1083_4911)">
<path d="M0.527344 43.3586V39.6135C0.527344 37.9094 1.39922 36.5223 3.14299 35.4523C4.88675 34.3822 7.18535 33.8472 10.0388 33.8472C10.554 33.8472 11.0494 33.8571 11.5249 33.8769C12.0005 33.8967 12.4563 33.9463 12.8922 34.0255C12.3374 34.8578 11.9212 35.7297 11.6438 36.6412C11.3664 37.5527 11.2277 38.5038 11.2277 39.4946V43.3586H0.527344ZM14.7945 43.3586V39.4946C14.7945 38.2264 15.1413 37.0672 15.8348 36.017C16.5283 34.9668 17.5092 34.0454 18.7774 33.2527C20.0456 32.4601 21.5615 31.8657 23.3251 31.4693C25.0886 31.073 27.0008 30.8749 29.0616 30.8749C31.1621 30.8749 33.0941 31.073 34.8577 31.4693C36.6212 31.8657 38.1371 32.4601 39.4053 33.2527C40.6735 34.0454 41.6445 34.9668 42.3182 36.017C42.9919 37.0672 43.3288 38.2264 43.3288 39.4946V43.3586H14.7945ZM46.8956 43.3586V39.4946C46.8956 38.4642 46.7668 37.4933 46.5092 36.5817C46.2516 35.6702 45.8652 34.8182 45.35 34.0255C45.7859 33.9463 46.2318 33.8967 46.6875 33.8769C47.1433 33.8571 47.6089 33.8472 48.0845 33.8472C50.9379 33.8472 53.2365 34.3723 54.9803 35.4225C56.724 36.4728 57.5959 37.8697 57.5959 39.6135V43.3586H46.8956ZM19.8474 38.6029H38.3353C37.939 37.8103 36.8392 37.1168 35.036 36.5223C33.2328 35.9278 31.2413 35.6306 29.0616 35.6306C26.8819 35.6306 24.8905 35.9278 23.0873 36.5223C21.2841 37.1168 20.2041 37.8103 19.8474 38.6029ZM10.0388 31.4693C8.73095 31.4693 7.61138 31.0037 6.68005 30.0724C5.74872 29.141 5.28306 28.0215 5.28306 26.7136C5.28306 25.3662 5.74872 24.2367 6.68005 23.3252C7.61138 22.4137 8.73095 21.9579 10.0388 21.9579C11.3862 21.9579 12.5157 22.4137 13.4272 23.3252C14.3387 24.2367 14.7945 25.3662 14.7945 26.7136C14.7945 28.0215 14.3387 29.141 13.4272 30.0724C12.5157 31.0037 11.3862 31.4693 10.0388 31.4693ZM48.0845 31.4693C46.7767 31.4693 45.6571 31.0037 44.7258 30.0724C43.7944 29.141 43.3288 28.0215 43.3288 26.7136C43.3288 25.3662 43.7944 24.2367 44.7258 23.3252C45.6571 22.4137 46.7767 21.9579 48.0845 21.9579C49.4319 21.9579 50.5614 22.4137 51.4729 23.3252C52.3845 24.2367 52.8402 25.3662 52.8402 26.7136C52.8402 28.0215 52.3845 29.141 51.4729 30.0724C50.5614 31.0037 49.4319 31.4693 48.0845 31.4693ZM29.0616 29.0915C27.0801 29.0915 25.3958 28.3979 24.0087 27.0109C22.6216 25.6238 21.9281 23.9395 21.9281 21.9579C21.9281 19.9367 22.6216 18.2425 24.0087 16.8752C25.3958 15.508 27.0801 14.8243 29.0616 14.8243C31.0828 14.8243 32.777 15.508 34.1443 16.8752C35.5116 18.2425 36.1952 19.9367 36.1952 21.9579C36.1952 23.9395 35.5116 25.6238 34.1443 27.0109C32.777 28.3979 31.0828 29.0915 29.0616 29.0915ZM29.0616 24.3358C29.7354 24.3358 30.3001 24.1079 30.7559 23.6521C31.2116 23.1964 31.4395 22.6316 31.4395 21.9579C31.4395 21.2842 31.2116 20.7194 30.7559 20.2637C30.3001 19.8079 29.7354 19.5801 29.0616 19.5801C28.3879 19.5801 27.8232 19.8079 27.3674 20.2637C26.9117 20.7194 26.6838 21.2842 26.6838 21.9579C26.6838 22.6316 26.9117 23.1964 27.3674 23.6521C27.8232 24.1079 28.3879 24.3358 29.0616 24.3358Z" fill="#00AAD6"/>
</g>
<defs>
<clipPath id="clip0_1083_4911">
<rect width="57.0686" height="57.0686" fill="white" transform="translate(0.527344 0.557251)"/>
</clipPath>
</defs>
</svg>
