<svg width="58" height="58" viewBox="0 0 58 58" fill="none" xmlns="http://www.w3.org/2000/svg">
<path d="M18.5452 52.87C16.2466 52.87 14.2848 52.0576 12.66 50.4327C11.0351 48.8078 10.2227 46.8461 10.2227 44.5475V13.6354C10.2227 11.3368 11.0351 9.37504 12.66 7.75017C14.2848 6.1253 16.2466 5.31287 18.5452 5.31287H48.2684V40.9807C47.2776 40.9807 46.4354 41.3275 45.7419 42.021C45.0484 42.7146 44.7016 43.5567 44.7016 44.5475C44.7016 45.5383 45.0484 46.3804 45.7419 47.074C46.4354 47.7675 47.2776 48.1143 48.2684 48.1143V52.87H18.5452ZM14.9784 36.9978C15.5332 36.7204 16.1079 36.5222 16.7023 36.4034C17.2968 36.2845 17.9111 36.225 18.5452 36.225H19.7341V10.0686H18.5452C17.5544 10.0686 16.7122 10.4154 16.0187 11.1089C15.3251 11.8024 14.9784 12.6446 14.9784 13.6354V36.9978ZM24.4898 36.225H43.5127V10.0686H24.4898V36.225ZM18.5452 48.1143H40.7187C40.4809 47.5595 40.2926 46.9947 40.1539 46.4201C40.0152 45.8454 39.9459 45.2212 39.9459 44.5475C39.9459 43.9134 40.0053 43.2991 40.1242 42.7047C40.2431 42.1102 40.4413 41.5356 40.7187 40.9807H18.5452C17.5148 40.9807 16.6627 41.3275 15.989 42.021C15.3152 42.7146 14.9784 43.5567 14.9784 44.5475C14.9784 45.5779 15.3152 46.43 15.989 47.1037C16.6627 47.7774 17.5148 48.1143 18.5452 48.1143Z" fill="#00AAD6"/>
</svg>
