<svg width="58" height="58" viewBox="0 0 58 58" fill="none" xmlns="http://www.w3.org/2000/svg">
<path d="M9.87674 50.4922V28.1998L5.59659 31.4693L2.74316 27.6648L9.87674 22.1957V14.8243H14.6325V18.5695L28.8996 7.69077L55.056 27.6648L52.2026 31.4099L47.9225 28.1998V50.4922H9.87674ZM14.6325 45.7365H26.5217V36.2251H31.2775V45.7365H43.1667V24.5736L28.8996 13.6949L14.6325 24.5736V45.7365ZM9.87674 12.4465C9.87674 10.4649 10.5703 8.78063 11.9574 7.39354C13.3444 6.00646 15.0288 5.31292 17.0103 5.31292C17.684 5.31292 18.2488 5.08504 18.7045 4.62928C19.1603 4.17353 19.3882 3.60878 19.3882 2.93506H24.1439C24.1439 4.91661 23.4503 6.60092 22.0633 7.98801C20.6762 9.37509 18.9919 10.0686 17.0103 10.0686C16.3366 10.0686 15.7718 10.2965 15.3161 10.7523C14.8603 11.208 14.6325 11.7728 14.6325 12.4465H9.87674Z" fill="#676565"/>
</svg>
