<svg width="58" height="58" viewBox="0 0 58 58" fill="none" xmlns="http://www.w3.org/2000/svg">
<path d="M10.0603 17.2022C10.0603 15.2206 10.7539 13.5363 12.141 12.1492C13.528 10.7621 15.2124 10.0686 17.1939 10.0686H40.9725C42.954 10.0686 44.6383 10.7621 46.0254 12.1492C47.4125 13.5363 48.1061 15.2206 48.1061 17.2022V21.9579C50.0876 21.9579 51.7719 22.6514 53.159 24.0385C54.5461 25.4256 55.2396 27.1099 55.2396 29.0915V40.9808C55.2396 42.9623 54.5461 44.6466 53.159 46.0337C51.7719 47.4208 50.0876 48.1143 48.1061 48.1143H10.0603C8.07878 48.1143 6.39447 47.4208 5.00738 46.0337C3.6203 44.6466 2.92676 42.9623 2.92676 40.9808V29.0915C2.92676 27.1099 3.6203 25.4256 5.00738 24.0385C6.39447 22.6514 8.07878 21.9579 10.0603 21.9579V17.2022ZM14.816 17.2022V23.8602C15.5294 24.5339 16.1041 25.3067 16.54 26.1786C16.9759 27.0505 17.1939 28.0214 17.1939 29.0915V33.8472H40.9725V29.0915C40.9725 28.0214 41.1904 27.0505 41.6264 26.1786C42.0623 25.3067 42.637 24.5339 43.3503 23.8602V17.2022C43.3503 16.5285 43.1225 15.9637 42.6667 15.508C42.2109 15.0522 41.6462 14.8243 40.9725 14.8243H17.1939C16.5202 14.8243 15.9554 15.0522 15.4997 15.508C15.0439 15.9637 14.816 16.5285 14.816 17.2022ZM45.7282 38.6029H12.4382V29.0915C12.4382 28.7744 12.3787 28.4673 12.2598 28.17C12.141 27.8728 11.9725 27.6152 11.7546 27.3972C11.5366 27.1793 11.279 27.0108 10.9818 26.8919C10.6845 26.7731 10.3774 26.7136 10.0603 26.7136C9.3866 26.7136 8.82186 26.9415 8.36611 27.3972C7.91035 27.853 7.68247 28.4177 7.68247 29.0915V40.9808C7.68247 41.6545 7.91035 42.2192 8.36611 42.675C8.82186 43.1307 9.3866 43.3586 10.0603 43.3586H48.1061C48.7798 43.3586 49.3445 43.1307 49.8003 42.675C50.256 42.2192 50.4839 41.6545 50.4839 40.9808V29.0915C50.4839 28.4177 50.256 27.853 49.8003 27.3972C49.3445 26.9415 48.7798 26.7136 48.1061 26.7136C47.789 26.7136 47.4819 26.7731 47.1846 26.8919C46.8874 27.0108 46.6298 27.1793 46.4118 27.3972C46.1939 27.6152 46.0254 27.8728 45.9065 28.17C45.7876 28.4673 45.7282 28.7744 45.7282 29.0915V38.6029Z" fill="#676565"/>
</svg>
