<svg width="58" height="58" viewBox="0 0 58 58" fill="none" xmlns="http://www.w3.org/2000/svg">
<path d="M9.58865 17.2022C9.58865 15.2206 10.2822 13.5363 11.6693 12.1492C13.0564 10.7621 14.7407 10.0686 16.7222 10.0686H40.5008C42.4823 10.0686 44.1667 10.7621 45.5537 12.1492C46.9408 13.5363 47.6344 15.2206 47.6344 17.2022V21.9579C49.6159 21.9579 51.3002 22.6514 52.6873 24.0385C54.0744 25.4256 54.7679 27.1099 54.7679 29.0915V40.9808C54.7679 42.9623 54.0744 44.6466 52.6873 46.0337C51.3002 47.4208 49.6159 48.1143 47.6344 48.1143H9.58865C7.6071 48.1143 5.92279 47.4208 4.5357 46.0337C3.14862 44.6466 2.45508 42.9623 2.45508 40.9808V29.0915C2.45508 27.1099 3.14862 25.4256 4.5357 24.0385C5.92279 22.6514 7.6071 21.9579 9.58865 21.9579V17.2022ZM14.3444 17.2022V23.8602C15.0577 24.5339 15.6324 25.3067 16.0683 26.1786C16.5043 27.0505 16.7222 28.0214 16.7222 29.0915V33.8472H40.5008V29.0915C40.5008 28.0214 40.7188 27.0505 41.1547 26.1786C41.5907 25.3067 42.1653 24.5339 42.8787 23.8602V17.2022C42.8787 16.5285 42.6508 15.9637 42.195 15.508C41.7393 15.0522 41.1745 14.8243 40.5008 14.8243H16.7222C16.0485 14.8243 15.4838 15.0522 15.028 15.508C14.5722 15.9637 14.3444 16.5285 14.3444 17.2022ZM45.2565 38.6029H11.9665V29.0915C11.9665 28.7744 11.9071 28.4673 11.7882 28.17C11.6693 27.8728 11.5008 27.6152 11.2829 27.3972C11.0649 27.1793 10.8073 27.0108 10.5101 26.8919C10.2128 26.7731 9.9057 26.7136 9.58865 26.7136C8.91492 26.7136 8.35018 26.9415 7.89443 27.3972C7.43867 27.853 7.21079 28.4177 7.21079 29.0915V40.9808C7.21079 41.6545 7.43867 42.2192 7.89443 42.675C8.35018 43.1307 8.91492 43.3586 9.58865 43.3586H47.6344C48.3081 43.3586 48.8728 43.1307 49.3286 42.675C49.7844 42.2192 50.0122 41.6545 50.0122 40.9808V29.0915C50.0122 28.4177 49.7844 27.853 49.3286 27.3972C48.8728 26.9415 48.3081 26.7136 47.6344 26.7136C47.3173 26.7136 47.0102 26.7731 46.713 26.8919C46.4157 27.0108 46.1581 27.1793 45.9401 27.3972C45.7222 27.6152 45.5537 27.8728 45.4349 28.17C45.316 28.4673 45.2565 28.7744 45.2565 29.0915V38.6029Z" fill="#00AAD6"/>
</svg>
