<svg width="58" height="58" viewBox="0 0 58 58" fill="none" xmlns="http://www.w3.org/2000/svg">
<path d="M12.072 48.297V43.5413H16.8277V34.0299L2.56055 12.6292H35.8506L21.5834 34.0299V43.5413H26.3391V48.297H12.072ZM14.212 22.1406H24.1991L27.5281 17.3849H10.883L14.212 22.1406ZM38.2284 48.297C36.2469 48.297 34.5625 47.6035 33.1755 46.2164C31.7884 44.8293 31.0948 43.145 31.0948 41.1634C31.0948 39.1819 31.7884 37.4976 33.1755 36.1105C34.5625 34.7234 36.2469 34.0299 38.2284 34.0299C38.6644 34.0299 39.0805 34.0596 39.4768 34.119C39.8731 34.1785 40.2496 34.3073 40.6063 34.5054V12.6292H52.4956V19.7627H45.362V41.1634C45.362 43.145 44.6684 44.8293 43.2814 46.2164C41.8943 47.6035 40.21 48.297 38.2284 48.297Z" fill="#676565"/>
</svg>
