<svg width="58" height="58" viewBox="0 0 58 58" fill="none" xmlns="http://www.w3.org/2000/svg">
<path d="M12.6003 48.297V43.5413H17.356V34.0299L3.08887 12.6292H36.3789L22.1117 34.0299V43.5413H26.8674V48.297H12.6003ZM14.7404 22.1406H24.7274L28.0564 17.3849H11.4114L14.7404 22.1406ZM38.7567 48.297C36.7752 48.297 35.0909 47.6035 33.7038 46.2164C32.3167 44.8293 31.6232 43.145 31.6232 41.1634C31.6232 39.1819 32.3167 37.4976 33.7038 36.1105C35.0909 34.7234 36.7752 34.0299 38.7567 34.0299C39.1927 34.0299 39.6088 34.0596 40.0051 34.119C40.4014 34.1785 40.7779 34.3073 41.1346 34.5054V12.6292H53.0239V19.7627H45.8903V41.1634C45.8903 43.145 45.1968 44.8293 43.8097 46.2164C42.4226 47.6035 40.7383 48.297 38.7567 48.297Z" fill="#00AAD6"/>
</svg>
