<svg width="58" height="58" viewBox="0 0 58 58" fill="none" xmlns="http://www.w3.org/2000/svg">
<path d="M19.5709 45.9193H36.2159V22.1407H31.4602C30.3505 22.1407 29.439 22.4181 28.7257 22.973C28.0123 23.5278 27.1603 24.3403 26.1695 25.4103C25.3769 26.2822 24.4554 27.1838 23.4052 28.1151C22.355 29.0464 21.0769 29.7301 19.5709 30.166V45.9193ZM14.8152 50.675V30.1066C12.7544 29.5517 11.0503 28.4421 9.70282 26.7776C8.35537 25.1131 7.68164 23.1711 7.68164 20.9518C7.68164 18.8514 8.28601 16.9887 9.49476 15.3638C10.7035 13.739 12.259 12.6095 14.1613 11.9754C15.0728 10.0731 16.4302 8.5275 18.2334 7.33857C20.0366 6.14964 22.0677 5.55518 24.3266 5.55518C25.7137 5.55518 27.0116 5.79296 28.2204 6.26853C29.4291 6.7441 30.5289 7.3782 31.5197 8.17082C31.916 8.09156 32.2925 8.0222 32.6491 7.96276C33.0058 7.90331 33.4021 7.87359 33.8381 7.87359C36.4537 7.87359 38.6929 8.80491 40.5555 10.6676C42.4182 12.5302 43.3495 14.7694 43.3495 17.385C43.3495 18.2569 43.2405 19.0891 43.0225 19.8818C42.8046 20.6744 42.4776 21.4274 42.0417 22.1407H45.7274C47.0352 22.1407 48.1548 22.6064 49.0861 23.5377C50.0174 24.4691 50.4831 25.5886 50.4831 26.8964V41.1636C50.4831 42.4714 50.0174 43.591 49.0861 44.5223C48.1548 45.4536 47.0352 45.9193 45.7274 45.9193H40.9716V50.675H14.8152ZM12.4374 20.9518C12.4374 22.2596 12.903 23.3792 13.8343 24.3105C14.7657 25.2419 15.8852 25.7075 17.1931 25.7075C18.4613 25.7075 19.5412 25.2914 20.4329 24.4591C21.3246 23.6269 22.246 22.6956 23.1972 21.6652C24.1879 20.5951 25.3075 19.6143 26.5559 18.7226C27.8043 17.8309 29.439 17.385 31.4602 17.385H38.5938C38.5938 16.0772 38.1281 14.9576 37.1968 14.0263C36.2655 13.095 35.1459 12.6293 33.8381 12.6293C32.8473 12.6293 32.015 12.7581 31.3413 13.0157L30.3307 13.4021L28.4879 11.8565C28.052 11.4998 27.4872 11.153 26.7937 10.8162C26.1001 10.4793 25.2778 10.3109 24.3266 10.3109C23.0585 10.3109 21.8992 10.6478 20.849 11.3215C19.7988 11.9952 18.9963 12.9067 18.4414 14.056L17.6092 15.8394L15.7069 16.4933C14.7161 16.8104 13.9235 17.3751 13.3291 18.1875C12.7346 19 12.4374 19.9214 12.4374 20.9518ZM40.9716 41.1636H45.7274V26.8964H40.9716V41.1636Z" fill="#676565"/>
</svg>
