<svg width="58" height="58" viewBox="0 0 58 58" fill="none" xmlns="http://www.w3.org/2000/svg">
<path d="M19.0992 45.9193H35.7443V22.1407H30.9885C29.8789 22.1407 28.9674 22.4181 28.254 22.973C27.5406 23.5278 26.6886 24.3403 25.6978 25.4103C24.9052 26.2822 23.9838 27.1838 22.9335 28.1151C21.8833 29.0464 20.6052 29.7301 19.0992 30.166V45.9193ZM14.3435 50.675V30.1066C12.2827 29.5517 10.5786 28.4421 9.23114 26.7776C7.88369 25.1131 7.20996 23.1711 7.20996 20.9518C7.20996 18.8514 7.81433 16.9887 9.02308 15.3638C10.2318 13.739 11.7873 12.6095 13.6896 11.9754C14.6011 10.0731 15.9585 8.5275 17.7617 7.33857C19.5649 6.14964 21.596 5.55518 23.855 5.55518C25.242 5.55518 26.54 5.79296 27.7487 6.26853C28.9575 6.7441 30.0572 7.3782 31.048 8.17082C31.4443 8.09156 31.8208 8.0222 32.1775 7.96276C32.5341 7.90331 32.9305 7.87359 33.3664 7.87359C35.982 7.87359 38.2212 8.80491 40.0838 10.6676C41.9465 12.5302 42.8778 14.7694 42.8778 17.385C42.8778 18.2569 42.7688 19.0891 42.5509 19.8818C42.3329 20.6744 42.0059 21.4274 41.57 22.1407H45.2557C46.5635 22.1407 47.6831 22.6064 48.6144 23.5377C49.5457 24.4691 50.0114 25.5886 50.0114 26.8964V41.1636C50.0114 42.4714 49.5457 43.591 48.6144 44.5223C47.6831 45.4536 46.5635 45.9193 45.2557 45.9193H40.5V50.675H14.3435ZM11.9657 20.9518C11.9657 22.2596 12.4313 23.3792 13.3627 24.3105C14.294 25.2419 15.4136 25.7075 16.7214 25.7075C17.9896 25.7075 19.0695 25.2914 19.9612 24.4591C20.8529 23.6269 21.7743 22.6956 22.7255 21.6652C23.7163 20.5951 24.8358 19.6143 26.0842 18.7226C27.3326 17.8309 28.9674 17.385 30.9885 17.385H38.1221C38.1221 16.0772 37.6564 14.9576 36.7251 14.0263C35.7938 13.095 34.6742 12.6293 33.3664 12.6293C32.3756 12.6293 31.5434 12.7581 30.8696 13.0157L29.8591 13.4021L28.0162 11.8565C27.5803 11.4998 27.0155 11.153 26.322 10.8162C25.6284 10.4793 24.8061 10.3109 23.855 10.3109C22.5868 10.3109 21.4276 10.6478 20.3773 11.3215C19.3271 11.9952 18.5246 12.9067 17.9698 14.056L17.1375 15.8394L15.2352 16.4933C14.2445 16.8104 13.4518 17.3751 12.8574 18.1875C12.2629 19 11.9657 19.9214 11.9657 20.9518ZM40.5 41.1636H45.2557V26.8964H40.5V41.1636Z" fill="#00AAD6"/>
</svg>
