<svg width="58" height="58" viewBox="0 0 58 58" fill="none" xmlns="http://www.w3.org/2000/svg">
<path d="M16.9041 53.0528V31.2954C14.8829 30.7405 13.1887 29.6309 11.8214 27.9664C10.4541 26.3019 9.77051 24.3599 9.77051 22.1406V5.49561H14.5262V22.1406H16.9041V5.49561H21.6598V22.1406H24.0377V5.49561H28.7934V22.1406C28.7934 24.3599 28.1097 26.3019 26.7425 27.9664C25.3752 29.6309 23.681 30.7405 21.6598 31.2954V53.0528H16.9041ZM40.6827 53.0528V34.0299H33.5491V17.3849C33.5491 14.0955 34.7083 11.2916 37.0267 8.97322C39.3451 6.65481 42.149 5.49561 45.4384 5.49561V53.0528H40.6827Z" fill="#00AAD6"/>
</svg>
