<svg width="58" height="58" viewBox="0 0 58 58" fill="none" xmlns="http://www.w3.org/2000/svg">
<path d="M7.66106 17.5679V8.05645L17.1725 12.8122L7.66106 17.5679ZM43.3289 17.5679V8.05645L52.8404 12.8122L43.3289 17.5679ZM26.6839 15.19V5.67859L36.1954 10.4343L26.6839 15.19ZM26.6839 53.2357C23.672 53.1565 20.8681 52.9088 18.2723 52.4927C15.6764 52.0765 13.4175 51.5514 11.4954 50.9173C9.57325 50.2832 8.05737 49.5501 6.9477 48.7178C5.83804 47.8856 5.2832 47.0137 5.2832 46.1022V24.7015C5.2832 23.7107 5.90739 22.7893 7.15577 21.9372C8.40414 21.0851 10.0984 20.3321 12.2384 19.6782C14.3785 19.0243 16.8951 18.5091 19.7881 18.1326C22.6812 17.7561 25.7724 17.5679 29.0618 17.5679C32.3511 17.5679 35.4424 17.7561 38.3354 18.1326C41.2285 18.5091 43.745 19.0243 45.8851 19.6782C48.0252 20.3321 49.7194 21.0851 50.9678 21.9372C52.2162 22.7893 52.8404 23.7107 52.8404 24.7015V46.1022C52.8404 47.0137 52.2855 47.8856 51.1759 48.7178C50.0662 49.5501 48.5503 50.2832 46.6282 50.9173C44.7061 51.5514 42.4471 52.0765 39.8513 52.4927C37.2555 52.9088 34.4516 53.1565 31.4396 53.2357V43.7243H26.6839V53.2357ZM29.0618 27.0793C32.906 27.0793 36.2251 26.8514 39.0191 26.3957C41.813 25.9399 44.0423 25.4148 45.7068 24.8203C45.7068 24.6222 44.2008 24.1565 41.1889 23.4234C38.1769 22.6902 34.1345 22.3236 29.0618 22.3236C23.989 22.3236 19.9467 22.6902 16.9347 23.4234C13.9228 24.1565 12.4168 24.6222 12.4168 24.8203C14.0813 25.4148 16.3105 25.9399 19.1045 26.3957C21.8985 26.8514 25.2176 27.0793 29.0618 27.0793ZM21.9282 48.1233V38.9686H36.1954V48.1233C39.3658 47.8063 41.9617 47.3406 43.9828 46.7264C46.004 46.1121 47.3713 45.5672 48.0846 45.0916V28.9816C45.9049 29.8535 43.1704 30.547 39.881 31.0622C36.5917 31.5774 32.9852 31.835 29.0618 31.835C25.1383 31.835 21.5319 31.5774 18.2425 31.0622C14.9532 30.547 12.2186 29.8535 10.0389 28.9816V45.0916C10.7523 45.5672 12.1195 46.1121 14.1407 46.7264C16.1619 47.3406 18.7577 47.8063 21.9282 48.1233Z" fill="#00AAD6"/>
</svg>
