<svg width="58" height="58" viewBox="0 0 58 58" fill="none" xmlns="http://www.w3.org/2000/svg">
<path d="M3.08887 50.858V17.5679C3.08887 15.5864 3.78241 13.9021 5.16949 12.515C6.55658 11.1279 8.24089 10.4344 10.2224 10.4344C12.204 10.4344 13.8883 11.1279 15.2754 12.515C16.6625 13.9021 17.356 15.5864 17.356 17.5679V18.2813L29.2453 8.05652L41.1346 18.2813V17.5679C41.1346 15.5864 41.8281 13.9021 43.2152 12.515C44.6023 11.1279 46.2866 10.4344 48.2682 10.4344C50.2497 10.4344 51.934 11.1279 53.3211 12.515C54.7082 13.9021 55.4017 15.5864 55.4017 17.5679V50.858H31.6232V38.9687C31.6232 38.2949 31.3953 37.7302 30.9395 37.2744C30.4838 36.8187 29.919 36.5908 29.2453 36.5908C28.5716 36.5908 28.0068 36.8187 27.5511 37.2744C27.0953 37.7302 26.8674 38.2949 26.8674 38.9687V50.858H3.08887ZM45.8903 19.9458H50.646V17.5679C50.646 16.8942 50.4181 16.3295 49.9624 15.8737C49.5066 15.418 48.9419 15.1901 48.2682 15.1901C47.5944 15.1901 47.0297 15.418 46.5739 15.8737C46.1182 16.3295 45.8903 16.8942 45.8903 17.5679V19.9458ZM7.84458 19.9458H12.6003V17.5679C12.6003 16.8942 12.3724 16.3295 11.9167 15.8737C11.4609 15.418 10.8962 15.1901 10.2224 15.1901C9.54871 15.1901 8.98397 15.418 8.52822 15.8737C8.07246 16.3295 7.84458 16.8942 7.84458 17.5679V19.9458ZM7.84458 46.1022H12.6003V24.7015H7.84458V46.1022ZM17.356 46.1022H22.1117V38.9687C22.1117 36.9871 22.8053 35.3028 24.1924 33.9157C25.5794 32.5286 27.2638 31.8351 29.2453 31.8351C31.2268 31.8351 32.9112 32.5286 34.2982 33.9157C35.6853 35.3028 36.3789 36.9871 36.3789 38.9687V46.1022H41.1346V24.5232L29.2453 14.2984L17.356 24.5232V46.1022ZM45.8903 46.1022H50.646V24.7015H45.8903V46.1022ZM29.2453 28.2683C28.2545 28.2683 27.4124 27.9215 26.7188 27.228C26.0253 26.5345 25.6785 25.6923 25.6785 24.7015C25.6785 23.7107 26.0253 22.8686 26.7188 22.175C27.4124 21.4815 28.2545 21.1347 29.2453 21.1347C30.2361 21.1347 31.0782 21.4815 31.7718 22.175C32.4653 22.8686 32.8121 23.7107 32.8121 24.7015C32.8121 25.6923 32.4653 26.5345 31.7718 27.228C31.0782 27.9215 30.2361 28.2683 29.2453 28.2683Z" fill="#00AAD6"/>
</svg>
