<svg width="58" height="58" viewBox="0 0 58 58" fill="none" xmlns="http://www.w3.org/2000/svg">
<path d="M46.0729 18.7568C46.7466 18.7568 47.3114 18.5289 47.7671 18.0732C48.2229 17.6174 48.4508 17.0527 48.4508 16.3789C48.4508 15.7052 48.2229 15.1405 47.7671 14.6847C47.3114 14.229 46.7466 14.0011 46.0729 14.0011C45.3992 14.0011 44.8345 14.229 44.3787 14.6847C43.9229 15.1405 43.6951 15.7052 43.6951 16.3789C43.6951 17.0527 43.9229 17.6174 44.3787 18.0732C44.8345 18.5289 45.3992 18.7568 46.0729 18.7568ZM36.5615 18.7568C37.2352 18.7568 37.8 18.5289 38.2557 18.0732C38.7115 17.6174 38.9393 17.0527 38.9393 16.3789C38.9393 15.7052 38.7115 15.1405 38.2557 14.6847C37.8 14.229 37.2352 14.0011 36.5615 14.0011C35.8878 14.0011 35.323 14.229 34.8673 14.6847C34.4115 15.1405 34.1836 15.7052 34.1836 16.3789C34.1836 17.0527 34.4115 17.6174 34.8673 18.0732C35.323 18.5289 35.8878 18.7568 36.5615 18.7568ZM35.3726 26.8415H47.2618C47.2618 25.4544 46.6575 24.3547 45.4487 23.5422C44.24 22.7298 42.8628 22.3236 41.3172 22.3236C39.7716 22.3236 38.3944 22.7298 37.1857 23.5422C35.9769 24.3547 35.3726 25.4544 35.3726 26.8415ZM17.5386 53.2357C13.5755 53.2357 10.2069 51.8487 7.43273 49.0745C4.65857 46.3003 3.27148 42.9317 3.27148 38.9686V22.3236H31.8058V38.9686C31.8058 42.9317 30.4187 46.3003 27.6445 49.0745C24.8704 51.8487 21.5017 53.2357 17.5386 53.2357ZM17.5386 48.48C20.1543 48.48 22.3934 47.5487 24.2561 45.686C26.1187 43.8234 27.0501 41.5842 27.0501 38.9686V27.0793H8.0272V38.9686C8.0272 41.5842 8.95853 43.8234 10.8212 45.686C12.6838 47.5487 14.923 48.48 17.5386 48.48ZM41.3172 36.5907C40.2868 36.5907 39.2663 36.4818 38.2557 36.2638C37.2451 36.0458 36.2841 35.7189 35.3726 35.2829V29.695C36.2444 30.3687 37.1857 30.8938 38.1963 31.2703C39.2069 31.6468 40.2472 31.835 41.3172 31.835C43.9328 31.835 46.172 30.9037 48.0347 29.041C49.8973 27.1784 50.8286 24.9392 50.8286 22.3236V10.4343H31.8058V18.7568H27.0501V5.67859H55.5844V22.3236C55.5844 26.2867 54.1973 29.6553 51.4231 32.4295C48.6489 35.2037 45.2803 36.5907 41.3172 36.5907ZM12.7829 35.4018C13.4566 35.4018 14.0214 35.1739 14.4771 34.7182C14.9329 34.2624 15.1608 33.6977 15.1608 33.024C15.1608 32.3502 14.9329 31.7855 14.4771 31.3297C14.0214 30.874 13.4566 30.6461 12.7829 30.6461C12.1092 30.6461 11.5444 30.874 11.0887 31.3297C10.6329 31.7855 10.4051 32.3502 10.4051 33.024C10.4051 33.6977 10.6329 34.2624 11.0887 34.7182C11.5444 35.1739 12.1092 35.4018 12.7829 35.4018ZM22.2943 35.4018C22.9681 35.4018 23.5328 35.1739 23.9886 34.7182C24.4443 34.2624 24.6722 33.6977 24.6722 33.024C24.6722 32.3502 24.4443 31.7855 23.9886 31.3297C23.5328 30.874 22.9681 30.6461 22.2943 30.6461C21.6206 30.6461 21.0559 30.874 20.6001 31.3297C20.1444 31.7855 19.9165 32.3502 19.9165 33.024C19.9165 33.6977 20.1444 34.2624 20.6001 34.7182C21.0559 35.1739 21.6206 35.4018 22.2943 35.4018ZM17.5386 43.4865C19.0842 43.4865 20.4614 43.0803 21.6702 42.2679C22.8789 41.4554 23.4833 40.3557 23.4833 38.9686H11.594C11.594 40.3557 12.1984 41.4554 13.4071 42.2679C14.6158 43.0803 15.993 43.4865 17.5386 43.4865Z" fill="#00AAD6"/>
</svg>
