<svg width="58" height="58" viewBox="0 0 58 58" fill="none" xmlns="http://www.w3.org/2000/svg">
<path d="M45.5446 18.7568C46.2183 18.7568 46.7831 18.5289 47.2388 18.0732C47.6946 17.6174 47.9225 17.0527 47.9225 16.3789C47.9225 15.7052 47.6946 15.1405 47.2388 14.6847C46.7831 14.229 46.2183 14.0011 45.5446 14.0011C44.8709 14.0011 44.3061 14.229 43.8504 14.6847C43.3946 15.1405 43.1667 15.7052 43.1667 16.3789C43.1667 17.0527 43.3946 17.6174 43.8504 18.0732C44.3061 18.5289 44.8709 18.7568 45.5446 18.7568ZM36.0332 18.7568C36.7069 18.7568 37.2716 18.5289 37.7274 18.0732C38.1832 17.6174 38.411 17.0527 38.411 16.3789C38.411 15.7052 38.1832 15.1405 37.7274 14.6847C37.2716 14.229 36.7069 14.0011 36.0332 14.0011C35.3594 14.0011 34.7947 14.229 34.3389 14.6847C33.8832 15.1405 33.6553 15.7052 33.6553 16.3789C33.6553 17.0527 33.8832 17.6174 34.3389 18.0732C34.7947 18.5289 35.3594 18.7568 36.0332 18.7568ZM34.8442 26.8415H46.7335C46.7335 25.4544 46.1292 24.3547 44.9204 23.5422C43.7117 22.7298 42.3345 22.3236 40.7889 22.3236C39.2433 22.3236 37.8661 22.7298 36.6574 23.5422C35.4486 24.3547 34.8442 25.4544 34.8442 26.8415ZM17.0103 53.2357C13.0472 53.2357 9.67858 51.8487 6.90441 49.0745C4.13025 46.3003 2.74316 42.9317 2.74316 38.9686V22.3236H31.2775V38.9686C31.2775 42.9317 29.8904 46.3003 27.1162 49.0745C24.342 51.8487 20.9734 53.2357 17.0103 53.2357ZM17.0103 48.48C19.626 48.48 21.8651 47.5487 23.7278 45.686C25.5904 43.8234 26.5217 41.5842 26.5217 38.9686V27.0793H7.49888V38.9686C7.49888 41.5842 8.43021 43.8234 10.2929 45.686C12.1555 47.5487 14.3947 48.48 17.0103 48.48ZM40.7889 36.5907C39.7585 36.5907 38.738 36.4818 37.7274 36.2638C36.7168 36.0458 35.7558 35.7189 34.8442 35.2829V29.695C35.7161 30.3687 36.6574 30.8938 37.6679 31.2703C38.6785 31.6468 39.7188 31.835 40.7889 31.835C43.4045 31.835 45.6437 30.9037 47.5063 29.041C49.369 27.1784 50.3003 24.9392 50.3003 22.3236V10.4343H31.2775V18.7568H26.5217V5.67859H55.056V22.3236C55.056 26.2867 53.6689 29.6553 50.8948 32.4295C48.1206 35.2037 44.752 36.5907 40.7889 36.5907ZM12.2546 35.4018C12.9283 35.4018 13.4931 35.1739 13.9488 34.7182C14.4046 34.2624 14.6325 33.6977 14.6325 33.024C14.6325 32.3502 14.4046 31.7855 13.9488 31.3297C13.4931 30.874 12.9283 30.6461 12.2546 30.6461C11.5809 30.6461 11.0161 30.874 10.5604 31.3297C10.1046 31.7855 9.87674 32.3502 9.87674 33.024C9.87674 33.6977 10.1046 34.2624 10.5604 34.7182C11.0161 35.1739 11.5809 35.4018 12.2546 35.4018ZM21.766 35.4018C22.4398 35.4018 23.0045 35.1739 23.4602 34.7182C23.916 34.2624 24.1439 33.6977 24.1439 33.024C24.1439 32.3502 23.916 31.7855 23.4602 31.3297C23.0045 30.874 22.4398 30.6461 21.766 30.6461C21.0923 30.6461 20.5276 30.874 20.0718 31.3297C19.616 31.7855 19.3882 32.3502 19.3882 33.024C19.3882 33.6977 19.616 34.2624 20.0718 34.7182C20.5276 35.1739 21.0923 35.4018 21.766 35.4018ZM17.0103 43.4865C18.5559 43.4865 19.9331 43.0803 21.1418 42.2679C22.3506 41.4554 22.955 40.3557 22.955 38.9686H11.0657C11.0657 40.3557 11.67 41.4554 12.8788 42.2679C14.0875 43.0803 15.4647 43.4865 17.0103 43.4865Z" fill="#676565"/>
</svg>
