<svg width="58" height="58" viewBox="0 0 58 58" fill="none" xmlns="http://www.w3.org/2000/svg">
<path d="M21.9489 31.835H26.7046V25.2959H31.4603V31.835H36.216V20.5402L29.0824 15.7845L21.9489 20.5402V31.835ZM29.0824 46.9344C33.9174 42.4958 37.504 38.4633 39.8422 34.8371C42.1805 31.2108 43.3496 27.9908 43.3496 25.177C43.3496 20.8572 41.9724 17.3202 39.2181 14.5658C36.4637 11.8115 33.0852 10.4343 29.0824 10.4343C25.0797 10.4343 21.7012 11.8115 18.9468 14.5658C16.1925 17.3202 14.8153 20.8572 14.8153 25.177C14.8153 27.9908 15.9844 31.2108 18.3226 34.8371C20.6609 38.4633 24.2475 42.4958 29.0824 46.9344ZM29.0824 53.2357C22.7018 47.8063 17.9362 42.7633 14.7856 38.1066C11.6349 33.45 10.0596 29.1401 10.0596 25.177C10.0596 19.2324 11.9718 14.4965 15.7962 10.9693C19.6205 7.44217 24.0493 5.67859 29.0824 5.67859C34.1156 5.67859 38.5443 7.44217 42.3687 10.9693C46.1931 14.4965 48.1053 19.2324 48.1053 25.177C48.1053 29.1401 46.53 33.45 43.3793 38.1066C40.2286 42.7633 35.463 47.8063 29.0824 53.2357Z" fill="#676565"/>
</svg>
