<svg width="58" height="58" viewBox="0 0 58 58" fill="none" xmlns="http://www.w3.org/2000/svg">
<path d="M21.4782 31.835H26.2339V25.2959H30.9896V31.835H35.7453V20.5402L28.6117 15.7845L21.4782 20.5402V31.835ZM28.6117 46.9344C33.4467 42.4958 37.0333 38.4633 39.3715 34.8371C41.7098 31.2108 42.8789 27.9908 42.8789 25.177C42.8789 20.8572 41.5017 17.3202 38.7473 14.5658C35.993 11.8115 32.6145 10.4343 28.6117 10.4343C24.609 10.4343 21.2305 11.8115 18.4761 14.5658C15.7218 17.3202 14.3446 20.8572 14.3446 25.177C14.3446 27.9908 15.5137 31.2108 17.8519 34.8371C20.1901 38.4633 23.7768 42.4958 28.6117 46.9344ZM28.6117 53.2357C22.2311 47.8063 17.4655 42.7633 14.3149 38.1066C11.1642 33.45 9.58887 29.1401 9.58887 25.177C9.58887 19.2324 11.5011 14.4965 15.3254 10.9693C19.1498 7.44217 23.5786 5.67859 28.6117 5.67859C33.6449 5.67859 38.0736 7.44217 41.898 10.9693C45.7224 14.4965 47.6346 19.2324 47.6346 25.177C47.6346 29.1401 46.0593 33.45 42.9086 38.1066C39.7579 42.7633 34.9923 47.8063 28.6117 53.2357Z" fill="#00AAD6"/>
</svg>
