<svg
  class="icon"
  width="20"
  height="20"
  viewBox="0 0 20 20"
  fill="none"
  xmlns="http://www.w3.org/2000/svg"
>
  <path
    d="M10.0001 18.5028C8.82079 18.5028 7.71423 18.2798 6.68045 17.8337C5.64667 17.3876 4.74743 16.7822 3.98272 16.0175C3.21801 15.2528 2.61261 14.3536 2.16653 13.3198C1.72045 12.286 1.49741 11.1795 1.49741 10.0001C1.49741 8.82078 1.72045 7.71421 2.16653 6.68044C2.61261 5.64666 3.21801 4.74741 3.98272 3.98271C4.74743 3.218 5.64667 2.6126 6.68045 2.16652C7.71423 1.72044 8.82079 1.49739 10.0001 1.49739C11.1795 1.49739 12.286 1.72044 13.3198 2.16652C14.3536 2.6126 15.2528 3.218 16.0176 3.98271C16.7823 4.74741 17.3877 5.64666 17.8337 6.68044C18.2798 7.71421 18.5029 8.82078 18.5029 10.0001C18.5029 11.1795 18.2798 12.286 17.8337 13.3198C17.3877 14.3536 16.7823 15.2528 16.0176 16.0175C15.2528 16.7822 14.3536 17.3876 13.3198 17.8337C12.286 18.2798 11.1795 18.5028 10.0001 18.5028ZM10.0001 16.607C11.848 16.607 13.4111 15.9678 14.6894 14.6894C15.9678 13.411 16.607 11.8479 16.607 10.0001C16.607 8.1523 15.9678 6.5892 14.6894 5.31081C13.4111 4.03244 11.848 3.39325 10.0001 3.39325C8.15232 3.39325 6.58921 4.03244 5.31082 5.31081C4.03245 6.5892 3.39326 8.1523 3.39326 10.0001C3.39326 11.8479 4.03245 13.411 5.31082 14.6894C6.58921 15.9678 8.15232 16.607 10.0001 16.607Z"
    fill="#D9D9D9"
  />
</svg>