<svg width="21" height="22" viewBox="0 0 21 22" fill="none" xmlns="http://www.w3.org/2000/svg">
<g clip-path="url(#clip0_309_646)">
<path d="M13.9982 18.3903V16.6412C13.9982 15.7134 13.6297 14.8237 12.9737 14.1676C12.3176 13.5116 11.4279 13.1431 10.5001 13.1431H4.37838C3.45062 13.1431 2.56085 13.5116 1.90483 14.1676C1.2488 14.8237 0.880249 15.7134 0.880249 16.6412V18.3903" fill="#FCFCFC"/>
<path d="M13.9982 18.3903V16.6412C13.9982 15.7134 13.6297 14.8237 12.9737 14.1676C12.3176 13.5116 11.4279 13.1431 10.5001 13.1431H4.37838C3.45062 13.1431 2.56085 13.5116 1.90483 14.1676C1.2488 14.8237 0.880249 15.7134 0.880249 16.6412V18.3903" stroke="#929191" stroke-width="2.09888" stroke-linecap="round" stroke-linejoin="round"/>
<path d="M7.43917 9.64518C9.37113 9.64518 10.9373 8.07902 10.9373 6.14705C10.9373 4.21509 9.37113 2.64893 7.43917 2.64893C5.50721 2.64893 3.94104 4.21509 3.94104 6.14705C3.94104 8.07902 5.50721 9.64518 7.43917 9.64518Z" stroke="#929191" stroke-width="2.09888" stroke-linecap="round" stroke-linejoin="round"/>
<path d="M17.4962 7.02148V12.2687" stroke="#929191" stroke-width="2.09888" stroke-linecap="round" stroke-linejoin="round"/>
<path d="M20.1198 9.64502H14.8726" stroke="#929191" stroke-width="2.09888" stroke-linecap="round" stroke-linejoin="round"/>
</g>
<defs>
<clipPath id="clip0_309_646">
<rect width="20.9888" height="20.9888" fill="white" transform="translate(0.00561523 0.0253906)"/>
</clipPath>
</defs>
</svg>
