<svg width="54" height="25" viewBox="0 0 25 25" fill="none" xmlns="http://www.w3.org/2000/svg">
<g clip-path="url(#clip0_1131_8602)">
<path d="M12.5059 15.4302C14.1627 15.4302 15.5059 14.087 15.5059 12.4302C15.5059 10.7733 14.1627 9.43018 12.5059 9.43018C10.849 9.43018 9.50586 10.7733 9.50586 12.4302C9.50586 14.087 10.849 15.4302 12.5059 15.4302Z" stroke="#929191" stroke-width="2" stroke-linecap="round" stroke-linejoin="round"/>
<path d="M19.9059 15.4302C19.7727 15.7318 19.733 16.0664 19.7919 16.3908C19.8507 16.7152 20.0053 17.0145 20.2359 17.2502L20.2959 17.3102C20.4818 17.4959 20.6293 17.7165 20.73 17.9593C20.8306 18.2021 20.8824 18.4623 20.8824 18.7252C20.8824 18.988 20.8306 19.2483 20.73 19.4911C20.6293 19.7339 20.4818 19.9544 20.2959 20.1402C20.1101 20.3261 19.8895 20.4736 19.6467 20.5743C19.4039 20.6749 19.1437 20.7267 18.8809 20.7267C18.618 20.7267 18.3578 20.6749 18.115 20.5743C17.8722 20.4736 17.6516 20.3261 17.4659 20.1402L17.4059 20.0802C17.1702 19.8496 16.8708 19.695 16.5464 19.6362C16.2221 19.5774 15.8875 19.6171 15.5859 19.7502C15.2901 19.8769 15.0378 20.0874 14.8602 20.3557C14.6825 20.624 14.5871 20.9384 14.5859 21.2602V21.4302C14.5859 21.9606 14.3751 22.4693 14.0001 22.8444C13.625 23.2195 13.1163 23.4302 12.5859 23.4302C12.0554 23.4302 11.5467 23.2195 11.1716 22.8444C10.7966 22.4693 10.5859 21.9606 10.5859 21.4302V21.3402C10.5781 21.0092 10.471 20.6882 10.2784 20.4189C10.0858 20.1496 9.81659 19.9445 9.50586 19.8302C9.20424 19.6971 8.86967 19.6574 8.54527 19.7162C8.22088 19.775 7.92154 19.9296 7.68586 20.1602L7.62586 20.2202C7.44011 20.4061 7.21954 20.5536 6.97674 20.6543C6.73394 20.7549 6.47369 20.8067 6.21086 20.8067C5.94803 20.8067 5.68777 20.7549 5.44498 20.6543C5.20218 20.5536 4.98161 20.4061 4.79586 20.2202C4.60991 20.0344 4.46239 19.8139 4.36174 19.5711C4.26109 19.3283 4.20929 19.068 4.20929 18.8052C4.20929 18.5423 4.26109 18.2821 4.36174 18.0393C4.46239 17.7965 4.60991 17.5759 4.79586 17.3902L4.85586 17.3302C5.0864 17.0945 5.24104 16.7952 5.29986 16.4708C5.35868 16.1464 5.31897 15.8118 5.18586 15.5102C5.0591 15.2144 4.84861 14.9622 4.58032 14.7845C4.31203 14.6068 3.99765 14.5115 3.67586 14.5102H3.50586C2.97543 14.5102 2.46672 14.2995 2.09165 13.9244C1.71657 13.5493 1.50586 13.0406 1.50586 12.5102C1.50586 11.9797 1.71657 11.471 2.09165 11.096C2.46672 10.7209 2.97543 10.5102 3.50586 10.5102H3.59586C3.92685 10.5024 4.24786 10.3953 4.51716 10.2027C4.78645 10.0101 4.99158 9.74091 5.10586 9.43018C5.23897 9.12856 5.27868 8.79398 5.21986 8.46959C5.16104 8.14519 5.0064 7.84585 4.77586 7.61018L4.71586 7.55018C4.52991 7.36443 4.38239 7.14385 4.28174 6.90106C4.18109 6.65826 4.12929 6.39801 4.12929 6.13518C4.12929 5.87234 4.18109 5.61209 4.28174 5.3693C4.38239 5.1265 4.52991 4.90592 4.71586 4.72018C4.90161 4.53422 5.12218 4.3867 5.36498 4.28606C5.60777 4.18541 5.86803 4.1336 6.13086 4.1336C6.39369 4.1336 6.65394 4.18541 6.89674 4.28606C7.13954 4.3867 7.36011 4.53422 7.54586 4.72018L7.60586 4.78018C7.84154 5.01071 8.14088 5.16536 8.46527 5.22418C8.78967 5.283 9.12424 5.24329 9.42586 5.11018H9.50586C9.80163 4.98341 10.0539 4.77293 10.2316 4.50464C10.4092 4.23635 10.5046 3.92196 10.5059 3.60018V3.43018C10.5059 2.89974 10.7166 2.39103 11.0916 2.01596C11.4667 1.64089 11.9754 1.43018 12.5059 1.43018C13.0363 1.43018 13.545 1.64089 13.9201 2.01596C14.2951 2.39103 14.5059 2.89974 14.5059 3.43018V3.52018C14.5071 3.84196 14.6025 4.15635 14.7802 4.42464C14.9578 4.69293 15.2101 4.90341 15.5059 5.03018C15.8075 5.16329 16.1421 5.203 16.4664 5.14418C16.7908 5.08536 17.0902 4.93071 17.3259 4.70018L17.3859 4.64018C17.5716 4.45422 17.7922 4.3067 18.035 4.20606C18.2778 4.10541 18.538 4.0536 18.8009 4.0536C19.0637 4.0536 19.3239 4.10541 19.5667 4.20606C19.8095 4.3067 20.0301 4.45422 20.2159 4.64018C20.4018 4.82592 20.5493 5.0465 20.65 5.2893C20.7506 5.53209 20.8024 5.79234 20.8024 6.05518C20.8024 6.31801 20.7506 6.57826 20.65 6.82106C20.5493 7.06385 20.4018 7.28443 20.2159 7.47018L20.1559 7.53018C19.9253 7.76585 19.7707 8.06519 19.7119 8.38959C19.653 8.71398 19.6927 9.04856 19.8259 9.35018V9.43018C19.9526 9.72594 20.1631 9.97819 20.4314 10.1559C20.6997 10.3335 21.0141 10.4289 21.3359 10.4302H21.5059C22.0363 10.4302 22.545 10.6409 22.9201 11.016C23.2951 11.391 23.5059 11.8997 23.5059 12.4302C23.5059 12.9606 23.2951 13.4693 22.9201 13.8444C22.545 14.2195 22.0363 14.4302 21.5059 14.4302H21.4159C21.0941 14.4315 20.7797 14.5268 20.5114 14.7045C20.2431 14.8822 20.0326 15.1344 19.9059 15.4302V15.4302Z" stroke="#929191" stroke-width="2" stroke-linecap="round" stroke-linejoin="round"/>
</g>
<defs>
<clipPath id="clip0_1131_8602">
<rect width="24" height="24" fill="white" transform="translate(0.505859 0.430176)"/>
</clipPath>
</defs>
</svg>
