<svg width="32" height="32" viewBox="0 0 32 32" fill="none" xmlns="http://www.w3.org/2000/svg">
    <g clip-path="url(#clip0_3095_273)">
        <path
            d="M15.3013 20C14.9477 20 14.6086 20.1405 14.3585 20.3905C14.1085 20.6406 13.968 20.9797 13.968 21.3333V25.3333C13.968 26.3942 13.5466 27.4116 12.7964 28.1618C12.0463 28.9119 11.0289 29.3333 9.968 29.3333H6.66667C5.6058 29.3333 4.58839 28.9119 3.83824 28.1618C3.08809 27.4116 2.66667 26.3942 2.66667 25.3333V6.66667C2.66667 5.6058 3.08809 4.58839 3.83824 3.83824C4.58839 3.08809 5.6058 2.66667 6.66667 2.66667H9.968C11.0289 2.66667 12.0463 3.08809 12.7964 3.83824C13.5466 4.58839 13.968 5.6058 13.968 6.66667V10.6667C13.968 11.0203 14.1085 11.3594 14.3585 11.6095C14.6086 11.8595 14.9477 12 15.3013 12C15.655 12 15.9941 11.8595 16.2441 11.6095C16.4942 11.3594 16.6347 11.0203 16.6347 10.6667V6.66667C16.6325 4.89921 15.9295 3.20474 14.6797 1.95496C13.4299 0.705176 11.7355 0.00211714 9.968 0H6.66667C4.89921 0.00211714 3.20474 0.705176 1.95496 1.95496C0.705176 3.20474 0.00211714 4.89921 0 6.66667L0 25.3333C0.00211714 27.1008 0.705176 28.7953 1.95496 30.045C3.20474 31.2948 4.89921 31.9979 6.66667 32H9.968C11.7355 31.9979 13.4299 31.2948 14.6797 30.045C15.9295 28.7953 16.6325 27.1008 16.6347 25.3333V21.3333C16.6347 20.9797 16.4942 20.6406 16.2441 20.3905C15.9941 20.1405 15.655 20 15.3013 20Z"
            fill="#626262" />
        <path
            d="M30.4894 13.172L24.3747 7.05732C24.2517 6.92997 24.1046 6.8284 23.9419 6.75852C23.7792 6.68864 23.6043 6.65186 23.4272 6.65032C23.2502 6.64878 23.0746 6.68252 22.9108 6.74956C22.7469 6.8166 22.598 6.9156 22.4728 7.04079C22.3476 7.16598 22.2486 7.31485 22.1816 7.47871C22.1146 7.64258 22.0808 7.81815 22.0824 7.99519C22.0839 8.17223 22.1207 8.34719 22.1906 8.50986C22.2604 8.67253 22.362 8.81966 22.4894 8.94265L28.1734 14.6267L8.00002 14.6667C7.6464 14.6667 7.30726 14.8071 7.05721 15.0572C6.80716 15.3072 6.66669 15.6464 6.66669 16C6.66669 16.3536 6.80716 16.6927 7.05721 16.9428C7.30726 17.1928 7.6464 17.3333 8.00002 17.3333L28.2507 17.2933L22.4867 23.0573C22.3593 23.1803 22.2578 23.3274 22.1879 23.4901C22.118 23.6528 22.0812 23.8277 22.0797 24.0048C22.0781 24.1818 22.1119 24.3574 22.1789 24.5213C22.246 24.6851 22.345 24.834 22.4702 24.9592C22.5954 25.0844 22.7442 25.1834 22.9081 25.2504C23.0719 25.3175 23.2475 25.3512 23.4246 25.3497C23.6016 25.3481 23.7766 25.3113 23.9392 25.2415C24.1019 25.1716 24.249 25.07 24.372 24.9427L30.4867 18.828C31.2369 18.0782 31.6587 17.0612 31.6592 16.0005C31.6597 14.9399 31.2389 13.9225 30.4894 13.172Z"
            fill="#626262" />
    </g>
    <defs>
        <clipPath id="clip0_3095_273">
            <rect width="32" height="32" fill="white" />
        </clipPath>
    </defs>
</svg>
    