<svg width="21" height="22" viewBox="0 0 21 22" fill="none" xmlns="http://www.w3.org/2000/svg">
<g clip-path="url(#clip0_934_471)">
<path d="M14.8719 18.8624V17.1134C14.8719 16.1856 14.5034 15.2958 13.8473 14.6398C13.1913 13.9838 12.3015 13.6152 11.3738 13.6152H4.37752C3.44976 13.6152 2.56 13.9838 1.90397 14.6398C1.24795 15.2958 0.879395 16.1856 0.879395 17.1134V18.8624" fill="#FCFCFC"/>
<path d="M14.8719 18.8624V17.1134C14.8719 16.1856 14.5034 15.2958 13.8473 14.6398C13.1913 13.9838 12.3015 13.6152 11.3738 13.6152H4.37752C3.44976 13.6152 2.56 13.9838 1.90397 14.6398C1.24795 15.2958 0.879395 16.1856 0.879395 17.1134V18.8624" stroke="#929191" stroke-width="2.09712" stroke-linecap="round" stroke-linejoin="round"/>
<path d="M7.8763 10.1173C9.80826 10.1173 11.3744 8.55118 11.3744 6.61922C11.3744 4.68726 9.80826 3.12109 7.8763 3.12109C5.94434 3.12109 4.37817 4.68726 4.37817 6.61922C4.37817 8.55118 5.94434 10.1173 7.8763 10.1173Z" stroke="#929191" stroke-width="2.09712" stroke-linecap="round" stroke-linejoin="round"/>
<path d="M20.1197 18.863V17.1139C20.1191 16.3389 19.8611 15.5859 19.3863 14.9734C18.9114 14.3608 18.2466 13.9233 17.4961 13.7295" stroke="#929191" stroke-width="2.09712" stroke-linecap="round" stroke-linejoin="round"/>
<path d="M13.998 3.23438C14.7505 3.42704 15.4174 3.86465 15.8937 4.47823C16.37 5.09181 16.6285 5.84645 16.6285 6.62319C16.6285 7.39992 16.37 8.15456 15.8937 8.76814C15.4174 9.38172 14.7505 9.81934 13.998 10.012" stroke="#929191" stroke-width="2.09712" stroke-linecap="round" stroke-linejoin="round"/>
</g>
<defs>
<clipPath id="clip0_934_471">
<rect width="20.9888" height="20.9888" fill="white" transform="translate(0.00585938 0.49707)"/>
</clipPath>
</defs>
</svg>
