<svg width="54" height="54" viewBox="0 0 54 54" fill="none" xmlns="http://www.w3.org/2000/svg">
<path d="M24.3765 34.9379H20.8783C20.4145 34.9379 19.9696 34.7536 19.6416 34.4256C19.3135 34.0976 19.1293 33.6527 19.1293 33.1888V20.9454C19.1293 20.4815 19.3135 20.0366 19.6416 19.7086C19.9696 19.3806 20.4145 19.1963 20.8783 19.1963H24.3765" fill="#FCFCFC"/>
<path d="M24.3765 34.9379H20.8783C20.4145 34.9379 19.9696 34.7536 19.6416 34.4256C19.3135 34.0976 19.1293 33.6527 19.1293 33.1888V20.9454C19.1293 20.4815 19.3135 20.0366 19.6416 19.7086C19.9696 19.3806 20.4145 19.1963 20.8783 19.1963H24.3765" stroke="#929191" stroke-width="2.09712" stroke-linecap="round" stroke-linejoin="round"/>
<path d="M30.4982 31.4406L34.8708 27.068L30.4982 22.6953" stroke="#929191" stroke-width="2.09712" stroke-linecap="round" stroke-linejoin="round"/>
<path d="M34.8708 27.0674H24.3765" stroke="#929191" stroke-width="2.09712" stroke-linecap="round" stroke-linejoin="round"/>
</svg>
