<svg width="32" height="32" viewBox="0 0 32 32" fill="none" xmlns="http://www.w3.org/2000/svg">
    <g clip-path="url(#clip0_3095_260)">
        <path
            d="M28 12H21.3333C19.1333 12 17.3333 13.8 17.3333 16C17.3333 18.2 19.1333 20 21.3333 20H28C30.2 20 32 18.2 32 16C32 13.8 30.2 12 28 12ZM21.3333 8H28C30.2 8 32 6.2 32 4C32 1.8 30.2 0 28 0H21.3333C19.1333 0 17.3333 1.8 17.3333 4C17.3333 6.2 19.1333 8 21.3333 8ZM28 24H21.3333C19.1333 24 17.3333 25.8 17.3333 28C17.3333 30.2 19.1333 32 21.3333 32H28C30.2 32 32 30.2 32 28C32 25.8 30.2 24 28 24ZM9.33333 17.3333H5.33333C2.38667 17.3333 0 19.72 0 22.6667V26.6667C0 29.6133 2.38667 32 5.33333 32H9.33333C12.28 32 14.6667 29.6133 14.6667 26.6667V22.6667C14.6667 19.72 12.28 17.3333 9.33333 17.3333ZM9.33333 0H5.33333C2.38667 0 0 2.38667 0 5.33333V9.33333C0 12.28 2.38667 14.6667 5.33333 14.6667H9.33333C12.28 14.6667 14.6667 12.28 14.6667 9.33333V5.33333C14.6667 2.38667 12.28 0 9.33333 0Z"
            fill="#626262" />
    </g>
    <defs>
        <clipPath id="clip0_3095_260">
            <rect width="32" height="32" fill="white" />
        </clipPath>
    </defs>
</svg>
    