<svg width="58" height="58" viewBox="0 0 58 58" fill="none" xmlns="http://www.w3.org/2000/svg">
<path d="M10.2432 49.9434V45.1877H48.2889V49.9434H10.2432ZM19.7546 40.432C17.139 40.432 14.8998 39.5006 13.0371 37.638C11.1745 35.7753 10.2432 33.5362 10.2432 30.9205V7.14197H48.2889C49.5967 7.14197 50.7163 7.60763 51.6476 8.53896C52.5789 9.47029 53.0446 10.5899 53.0446 11.8977V19.0313C53.0446 20.3391 52.5789 21.4587 51.6476 22.39C50.7163 23.3213 49.5967 23.787 48.2889 23.787H43.5332V30.9205C43.5332 33.5362 42.6018 35.7753 40.7392 37.638C38.8765 39.5006 36.6374 40.432 34.0217 40.432H19.7546ZM19.7546 35.6763H34.0217C35.3296 35.6763 36.4491 35.2106 37.3805 34.2793C38.3118 33.3479 38.7775 32.2284 38.7775 30.9205V11.8977H14.9989V30.9205C14.9989 32.2284 15.4645 33.3479 16.3959 34.2793C17.3272 35.2106 18.4468 35.6763 19.7546 35.6763ZM43.5332 19.0313H48.2889V11.8977H43.5332V19.0313ZM19.7546 35.6763H14.9989H38.7775H19.7546Z" fill="#676565"/>
</svg>
