<svg width="58" height="58" viewBox="0 0 58 58" fill="none" xmlns="http://www.w3.org/2000/svg">
<path d="M15.16 52.5041C13.8522 52.5041 12.7326 52.0384 11.8013 51.1071C10.87 50.1757 10.4043 49.0562 10.4043 47.7483V9.70261C10.4043 8.39479 10.87 7.27522 11.8013 6.34389C12.7326 5.41256 13.8522 4.9469 15.16 4.9469H48.45V9.70261H43.6943V14.4583C43.6943 15.1321 43.4664 15.6968 43.0107 16.1526C42.5549 16.6083 41.9902 16.8362 41.3164 16.8362H22.2936C21.6199 16.8362 21.0551 16.6083 20.5994 16.1526C20.1436 15.6968 19.9157 15.1321 19.9157 14.4583V9.70261H15.16V47.7483H24.7903C23.2844 46.6783 22.0954 45.3209 21.2235 43.6763C20.3517 42.0316 19.9157 40.2185 19.9157 38.2369V26.3476H43.6943V38.2369C43.6943 40.2185 43.2584 42.0316 42.3865 43.6763C41.5146 45.3209 40.3257 46.6783 38.8197 47.7483H48.45V52.5041H15.16ZM31.805 45.3705C33.7866 45.3705 35.4709 44.6769 36.858 43.2899C38.245 41.9028 38.9386 40.2185 38.9386 38.2369V31.1033H24.6714V38.2369C24.6714 40.2185 25.365 41.9028 26.7521 43.2899C28.1392 44.6769 29.8235 45.3705 31.805 45.3705ZM31.805 23.9698C32.4787 23.9698 33.0435 23.7419 33.4992 23.2861C33.955 22.8304 34.1829 22.2656 34.1829 21.5919C34.1829 20.9182 33.955 20.3534 33.4992 19.8977C33.0435 19.4419 32.4787 19.214 31.805 19.214C31.1313 19.214 30.5665 19.4419 30.1108 19.8977C29.655 20.3534 29.4272 20.9182 29.4272 21.5919C29.4272 22.2656 29.655 22.8304 30.1108 23.2861C30.5665 23.7419 31.1313 23.9698 31.805 23.9698Z" fill="#00AAD6"/>
</svg>
