<svg width="58" height="58" viewBox="0 0 58 58" fill="none" xmlns="http://www.w3.org/2000/svg">
<path d="M14.6327 52.5041C13.3248 52.5041 12.2053 52.0384 11.2739 51.1071C10.3426 50.1757 9.87695 49.0562 9.87695 47.7483V9.70261C9.87695 8.39479 10.3426 7.27522 11.2739 6.34389C12.2053 5.41256 13.3248 4.9469 14.6327 4.9469H47.9227V9.70261H43.167V14.4583C43.167 15.1321 42.9391 15.6968 42.4833 16.1526C42.0276 16.6083 41.4628 16.8362 40.7891 16.8362H21.7662C21.0925 16.8362 20.5278 16.6083 20.072 16.1526C19.6163 15.6968 19.3884 15.1321 19.3884 14.4583V9.70261H14.6327V47.7483H24.263C22.757 46.6783 21.5681 45.3209 20.6962 43.6763C19.8243 42.0316 19.3884 40.2185 19.3884 38.2369V26.3476H43.167V38.2369C43.167 40.2185 42.731 42.0316 41.8591 43.6763C40.9873 45.3209 39.7983 46.6783 38.2924 47.7483H47.9227V52.5041H14.6327ZM31.2777 45.3705C33.2592 45.3705 34.9435 44.6769 36.3306 43.2899C37.7177 41.9028 38.4112 40.2185 38.4112 38.2369V31.1033H24.1441V38.2369C24.1441 40.2185 24.8376 41.9028 26.2247 43.2899C27.6118 44.6769 29.2961 45.3705 31.2777 45.3705ZM31.2777 23.9698C31.9514 23.9698 32.5161 23.7419 32.9719 23.2861C33.4277 22.8304 33.6555 22.2656 33.6555 21.5919C33.6555 20.9182 33.4277 20.3534 32.9719 19.8977C32.5161 19.4419 31.9514 19.214 31.2777 19.214C30.6039 19.214 30.0392 19.4419 29.5834 19.8977C29.1277 20.3534 28.8998 20.9182 28.8998 21.5919C28.8998 22.2656 29.1277 22.8304 29.5834 23.2861C30.0392 23.7419 30.6039 23.9698 31.2777 23.9698Z" fill="#676565"/>
</svg>
