<svg width="58" height="58" viewBox="0 0 58 58" fill="none" xmlns="http://www.w3.org/2000/svg">
<path d="M21.9536 38.2371L28.6116 33.2435L35.1507 38.2371L32.6539 30.1523L39.3119 24.921H31.2272L28.6116 16.8363L25.9959 24.921H17.9112L24.4503 30.1523L21.9536 38.2371ZM9.58872 47.7485C8.2809 47.7485 7.16133 47.2828 6.23 46.3515C5.29867 45.4202 4.83301 44.3006 4.83301 42.9928V34.9675C4.83301 34.5316 4.97172 34.1551 5.24913 33.838C5.52655 33.521 5.88323 33.3228 6.31917 33.2435C7.27031 32.9265 8.05302 32.3519 8.6673 31.5196C9.28158 30.6874 9.58872 29.756 9.58872 28.7256C9.58872 27.6952 9.28158 26.7639 8.6673 25.9316C8.05302 25.0994 7.27031 24.5247 6.31917 24.2077C5.88323 24.1284 5.52655 23.9303 5.24913 23.6132C4.97172 23.2962 4.83301 22.9197 4.83301 22.4837V14.4585C4.83301 13.1507 5.29867 12.0311 6.23 11.0998C7.16133 10.1684 8.2809 9.70276 9.58872 9.70276H47.6344C48.9423 9.70276 50.0618 10.1684 50.9932 11.0998C51.9245 12.0311 52.3902 13.1507 52.3902 14.4585V22.4837C52.3902 22.9197 52.2514 23.2962 51.974 23.6132C51.6966 23.9303 51.3399 24.1284 50.904 24.2077C49.9529 24.5247 49.1701 25.0994 48.5559 25.9316C47.9416 26.7639 47.6344 27.6952 47.6344 28.7256C47.6344 29.756 47.9416 30.6874 48.5559 31.5196C49.1701 32.3519 49.9529 32.9265 50.904 33.2435C51.3399 33.3228 51.6966 33.521 51.974 33.838C52.2514 34.1551 52.3902 34.5316 52.3902 34.9675V42.9928C52.3902 44.3006 51.9245 45.4202 50.9932 46.3515C50.0618 47.2828 48.9423 47.7485 47.6344 47.7485H9.58872ZM9.58872 42.9928H47.6344V36.9292C46.1681 36.0573 45.0089 34.8981 44.1568 33.4516C43.3048 32.0051 42.8787 30.4298 42.8787 28.7256C42.8787 27.0215 43.3048 25.4462 44.1568 23.9996C45.0089 22.5531 46.1681 21.3939 47.6344 20.522V14.4585H9.58872V20.522C11.0551 21.3939 12.2143 22.5531 13.0663 23.9996C13.9184 25.4462 14.3444 27.0215 14.3444 28.7256C14.3444 30.4298 13.9184 32.0051 13.0663 33.4516C12.2143 34.8981 11.0551 36.0573 9.58872 36.9292V42.9928Z" fill="#00AAD6"/>
</svg>
