<svg width="58" height="58" viewBox="0 0 58 58" fill="none" xmlns="http://www.w3.org/2000/svg">
<path d="M19.2818 45.3705H22.8486V29.3199C23.879 29.0029 24.7311 28.4382 25.4048 27.6257C26.0785 26.8133 26.4154 25.8324 26.4154 24.6831V15.6473C26.4154 15.3302 26.2965 15.0528 26.0587 14.815C25.8209 14.5772 25.5435 14.4583 25.2264 14.4583C24.9094 14.4583 24.632 14.5772 24.3942 14.815C24.1564 15.0528 24.0375 15.3302 24.0375 15.6473V21.5919H22.2541V15.6473C22.2541 15.3302 22.1352 15.0528 21.8974 14.815C21.6597 14.5772 21.3822 14.4583 21.0652 14.4583C20.7481 14.4583 20.4707 14.5772 20.2329 14.815C19.9952 15.0528 19.8763 15.3302 19.8763 15.6473V21.5919H18.0929V15.6473C18.0929 15.3302 17.974 15.0528 17.7362 14.815C17.4984 14.5772 17.221 14.4583 16.9039 14.4583C16.5869 14.4583 16.3095 14.5772 16.0717 14.815C15.8339 15.0528 15.715 15.3302 15.715 15.6473V24.6831C15.715 25.8324 16.0519 26.8133 16.7256 27.6257C17.3993 28.4382 18.2514 29.0029 19.2818 29.3199V45.3705ZM33.5489 45.3705H37.1157V30.2711C38.4235 29.637 39.444 28.6264 40.1772 27.2393C40.9104 25.8522 41.277 24.2274 41.277 22.3647C41.277 20.1057 40.7122 18.2233 39.5828 16.7173C38.4533 15.2113 37.0365 14.4583 35.3323 14.4583C33.6282 14.4583 32.2114 15.2113 31.0819 16.7173C29.9524 18.2233 29.3877 20.1057 29.3877 22.3647C29.3877 24.2274 29.7543 25.8522 30.4874 27.2393C31.2206 28.6264 32.2411 29.637 33.5489 30.2711V45.3705ZM9.77036 52.5041C8.46254 52.5041 7.34297 52.0384 6.41164 51.1071C5.48031 50.1757 5.01465 49.0562 5.01465 47.7483V9.70261C5.01465 8.39479 5.48031 7.27522 6.41164 6.34389C7.34297 5.41256 8.46254 4.9469 9.77036 4.9469H47.8161C49.1239 4.9469 50.2435 5.41256 51.1748 6.34389C52.1061 7.27522 52.5718 8.39479 52.5718 9.70261V47.7483C52.5718 49.0562 52.1061 50.1757 51.1748 51.1071C50.2435 52.0384 49.1239 52.5041 47.8161 52.5041H9.77036ZM9.77036 47.7483H47.8161V9.70261H9.77036V47.7483Z" fill="#00AAD6"/>
</svg>
