<svg width="58" height="58" viewBox="0 0 58 58" fill="none" xmlns="http://www.w3.org/2000/svg">
<path d="M5.2832 52.687L17.1725 19.397L38.5732 40.7977L5.2832 52.687ZM13.1301 44.8401L29.894 38.8954L19.0748 28.0762L13.1301 44.8401ZM35.1253 30.2162L32.6286 27.7195L45.9446 14.4035C47.2128 13.1353 48.7386 12.5012 50.5219 12.5012C52.3053 12.5012 53.8311 13.1353 55.0993 14.4035L56.526 15.8302L54.0293 18.327L52.6026 16.9002C52.0477 16.3454 51.3542 16.068 50.5219 16.068C49.6897 16.068 48.9962 16.3454 48.4413 16.9002L35.1253 30.2162ZM25.6139 20.7048L23.1171 18.2081L24.5439 16.7813C25.0987 16.2265 25.3761 15.5528 25.3761 14.7602C25.3761 13.9676 25.0987 13.2938 24.5439 12.739L22.9982 11.1934L25.495 8.69663L27.0406 10.2422C28.3088 11.5104 28.9429 13.0164 28.9429 14.7602C28.9429 16.5039 28.3088 18.0099 27.0406 19.2781L25.6139 20.7048ZM30.3696 25.4605L27.8729 22.9638L36.4331 14.4035C36.988 13.8487 37.2654 13.1551 37.2654 12.3229C37.2654 11.4906 36.988 10.7971 36.4331 10.2422L32.6286 6.43767L35.1253 3.94092L38.9299 7.74549C40.1981 9.01368 40.8322 10.5395 40.8322 12.3229C40.8322 14.1063 40.1981 15.6321 38.9299 16.9002L30.3696 25.4605ZM39.881 34.972L37.3843 32.4752L41.1889 28.6706C42.457 27.4024 43.9828 26.7684 45.7662 26.7684C47.5496 26.7684 49.0754 27.4024 50.3436 28.6706L54.1482 32.4752L51.6514 34.972L47.8469 31.1674C47.292 30.6126 46.5985 30.3351 45.7662 30.3351C44.934 30.3351 44.2404 30.6126 43.6856 31.1674L39.881 34.972Z" fill="#00AAD6"/>
</svg>
