<svg width="58" height="58" viewBox="0 0 58 58" fill="none" xmlns="http://www.w3.org/2000/svg">
<path d="M49.6519 22.6665L46.3229 19.3375L48.1063 17.4947L40.4971 9.88556L38.6543 11.669L35.2658 8.2805L37.0492 6.43766C37.9607 5.52615 39.0902 5.0803 40.4377 5.10012C41.7851 5.11994 42.9146 5.5856 43.8261 6.49711L51.4947 14.1657C52.4062 15.0772 52.862 16.1968 52.862 17.5244C52.862 18.8521 52.4062 19.9716 51.4947 20.8832L49.6519 22.6665ZM21.1176 51.2603C20.2061 52.1718 19.0865 52.6275 17.7588 52.6275C16.4312 52.6275 15.3116 52.1718 14.4001 51.2603L6.73153 43.5917C5.82001 42.6802 5.36426 41.5606 5.36426 40.233C5.36426 38.9053 5.82001 37.7858 6.73153 36.8742L8.51492 35.0908L11.9034 38.4793L10.0605 40.2627L17.7291 47.9313L19.5125 46.0884L22.901 49.4769L21.1176 51.2603ZM44.7178 31.2863L48.1063 27.8978L30.094 9.88556L26.7055 13.274L44.7178 31.2863ZM28.0728 47.9313L31.4612 44.4834L13.5084 26.5306L10.0605 29.919L28.0728 47.9313ZM27.7161 34.0208L34.2552 27.5412L30.4507 23.7366L23.971 30.2757L27.7161 34.0208ZM31.4612 51.2603C30.5497 52.1718 29.4203 52.6275 28.0728 52.6275C26.7253 52.6275 25.5959 52.1718 24.6844 51.2603L6.73153 33.3075C5.82001 32.3959 5.36426 31.2665 5.36426 29.919C5.36426 28.5716 5.82001 27.4421 6.73153 26.5306L10.12 23.1421C11.0315 22.2306 12.1511 21.7748 13.4787 21.7748C14.8063 21.7748 15.9259 22.2306 16.8374 23.1421L20.5825 26.8872L27.1217 20.3481L23.3765 16.6625C22.465 15.7509 22.0093 14.6215 22.0093 13.274C22.0093 11.9266 22.465 10.7971 23.3765 9.88556L26.765 6.49711C27.6765 5.5856 28.7961 5.12984 30.1237 5.12984C31.4513 5.12984 32.5709 5.5856 33.4824 6.49711L51.4947 24.5094C52.4062 25.4209 52.862 26.5405 52.862 27.8681C52.862 29.1957 52.4062 30.3153 51.4947 31.2268L48.1063 34.6153C47.1947 35.5268 46.0653 35.9825 44.7178 35.9825C43.3703 35.9825 42.2409 35.5268 41.3294 34.6153L37.6437 30.8702L31.1046 37.4093L34.8497 41.1544C35.7612 42.0659 36.217 43.1855 36.217 44.5131C36.217 45.8407 35.7612 46.9603 34.8497 47.8718L31.4612 51.2603Z" fill="#676565"/>
</svg>
