<svg width="58" height="58" viewBox="0 0 58 58" fill="none" xmlns="http://www.w3.org/2000/svg">
<path d="M12.1501 52.6872L2.63867 26.5307L14.528 19.3972V5.13H24.0394V19.3972L35.9287 26.5307L26.4172 52.6872H12.1501ZM40.6844 52.6872C40.0107 52.6872 39.4459 52.4593 38.9902 52.0035C38.5344 51.5478 38.3065 50.983 38.3065 50.3093C38.3065 49.6356 38.5344 49.0708 38.9902 48.6151C39.4459 48.1593 40.0107 47.9314 40.6844 47.9314H47.818V43.1757H40.6844C40.0107 43.1757 39.4459 42.9478 38.9902 42.4921C38.5344 42.0363 38.3065 41.4716 38.3065 40.7979C38.3065 40.1241 38.5344 39.5594 38.9902 39.1036C39.4459 38.6479 40.0107 38.42 40.6844 38.42H47.818V33.6643H40.6844C40.0107 33.6643 39.4459 33.4364 38.9902 32.9807C38.5344 32.5249 38.3065 31.9602 38.3065 31.2864C38.3065 30.6127 38.5344 30.048 38.9902 29.5922C39.4459 29.1365 40.0107 28.9086 40.6844 28.9086H47.818V24.1529H40.6844C40.0107 24.1529 39.4459 23.925 38.9902 23.4692C38.5344 23.0135 38.3065 22.4487 38.3065 21.775C38.3065 21.1013 38.5344 20.5365 38.9902 20.0808C39.4459 19.625 40.0107 19.3972 40.6844 19.3972H47.818V14.6414H40.6844C40.0107 14.6414 39.4459 14.4136 38.9902 13.9578C38.5344 13.502 38.3065 12.9373 38.3065 12.2636C38.3065 11.5899 38.5344 11.0251 38.9902 10.5694C39.4459 10.1136 40.0107 9.88572 40.6844 9.88572H50.1958C51.5036 9.88572 52.6232 10.3514 53.5545 11.2827C54.4859 12.214 54.9515 13.3336 54.9515 14.6414V47.9314C54.9515 49.2393 54.4859 50.3588 53.5545 51.2902C52.6232 52.2215 51.5036 52.6872 50.1958 52.6872H40.6844ZM15.4791 47.9314H23.0882L30.1029 28.5519L22.7316 24.1529H15.8358L8.46442 28.5519L15.4791 47.9314Z" fill="#00AAD6"/>
</svg>
