<svg width="58" height="58" viewBox="0 0 58 58" fill="none" xmlns="http://www.w3.org/2000/svg">
<path d="M28.977 21.775C26.6784 21.775 24.7167 20.9626 23.0918 19.3377C21.467 17.7128 20.6545 15.7511 20.6545 13.4525C20.6545 11.1539 21.467 9.19218 23.0918 7.56731C24.7167 5.94244 26.6784 5.13 28.977 5.13C31.2756 5.13 33.2374 5.94244 34.8622 7.56731C36.4871 9.19218 37.2995 11.1539 37.2995 13.4525C37.2995 15.7511 36.4871 17.7128 34.8622 19.3377C33.2374 20.9626 31.2756 21.775 28.977 21.775ZM28.977 17.0193C29.9678 17.0193 30.81 16.6725 31.5035 15.979C32.1971 15.2854 32.5438 14.4433 32.5438 13.4525C32.5438 12.4617 32.1971 11.6196 31.5035 10.926C30.81 10.2325 29.9678 9.88572 28.977 9.88572C27.9863 9.88572 27.1441 10.2325 26.4506 10.926C25.757 11.6196 25.4102 12.4617 25.4102 13.4525C25.4102 14.4433 25.757 15.2854 26.4506 15.979C27.1441 16.6725 27.9863 17.0193 28.977 17.0193ZM28.977 52.6872L14.7099 38.42C13.9173 37.6274 13.3228 36.7357 12.9265 35.7449C12.5302 34.7541 12.332 33.6643 12.332 32.4754C12.332 30.1371 13.1346 28.1655 14.7396 26.5604C16.3447 24.9554 18.3163 24.1529 20.6545 24.1529C21.8038 24.1529 22.864 24.3708 23.8349 24.8068C24.8059 25.2427 25.6877 25.857 26.4803 26.6496L28.977 29.1464L31.4738 26.6496C32.2664 25.857 33.1482 25.2427 34.1192 24.8068C35.0901 24.3708 36.1502 24.1529 37.2995 24.1529C39.6378 24.1529 41.6094 24.9554 43.2145 26.5604C44.8195 28.1655 45.622 30.1371 45.622 32.4754C45.622 33.6643 45.4239 34.7541 45.0276 35.7449C44.6313 36.7357 44.0368 37.6274 43.2442 38.42L28.977 52.6872ZM28.977 45.9103L39.7963 35.091C40.153 34.7343 40.4205 34.3281 40.5988 33.8724C40.7772 33.4166 40.8663 32.9509 40.8663 32.4754C40.8663 31.5242 40.5295 30.692 39.8557 29.9786C39.182 29.2653 38.3299 28.9086 37.2995 28.9086C36.824 28.9086 36.3979 28.9779 36.0214 29.1166C35.6449 29.2554 35.2784 29.503 34.9217 29.8597L28.977 35.8044L23.0324 29.8597C22.7946 29.6219 22.4875 29.404 22.111 29.2058C21.7345 29.0077 21.249 28.9086 20.6545 28.9086C19.6241 28.9086 18.7721 29.2653 18.0983 29.9786C17.4246 30.692 17.0877 31.5242 17.0877 32.4754C17.0877 32.9509 17.1868 33.3968 17.385 33.8129C17.5831 34.229 17.8407 34.6154 18.1578 34.9721L28.977 45.9103Z" fill="#00AAD6"/>
</svg>
