<svg width="58" height="58" viewBox="0 0 58 58" fill="none" xmlns="http://www.w3.org/2000/svg">
<g clip-path="url(#clip0_1083_4909)">
<path d="M0 43.3586V39.6135C0 37.9094 0.871881 36.5223 2.61564 35.4523C4.35941 34.3822 6.658 33.8472 9.51143 33.8472C10.0266 33.8472 10.522 33.8571 10.9976 33.8769C11.4732 33.8967 11.9289 33.9463 12.3649 34.0255C11.81 34.8578 11.3939 35.7297 11.1165 36.6412C10.8391 37.5527 10.7004 38.5038 10.7004 39.4946V43.3586H0ZM14.2671 43.3586V39.4946C14.2671 38.2264 14.6139 37.0672 15.3075 36.017C16.001 34.9668 16.9819 34.0454 18.2501 33.2527C19.5182 32.4601 21.0341 31.8657 22.7977 31.4693C24.5613 31.073 26.4735 30.8749 28.5343 30.8749C30.6347 30.8749 32.5667 31.073 34.3303 31.4693C36.0939 31.8657 37.6098 32.4601 38.878 33.2527C40.1462 34.0454 41.1171 34.9668 41.7908 36.017C42.4646 37.0672 42.8014 38.2264 42.8014 39.4946V43.3586H14.2671ZM46.3682 43.3586V39.4946C46.3682 38.4642 46.2394 37.4933 45.9818 36.5817C45.7242 35.6702 45.3378 34.8182 44.8226 34.0255C45.2586 33.9463 45.7044 33.8967 46.1602 33.8769C46.6159 33.8571 47.0816 33.8472 47.5572 33.8472C50.4106 33.8472 52.7092 34.3723 54.4529 35.4225C56.1967 36.4728 57.0686 37.8697 57.0686 39.6135V43.3586H46.3682ZM19.3201 38.6029H37.8079C37.4116 37.8103 36.3119 37.1168 34.5087 36.5223C32.7055 35.9278 30.714 35.6306 28.5343 35.6306C26.3546 35.6306 24.3631 35.9278 22.5599 36.5223C20.7567 37.1168 19.6768 37.8103 19.3201 38.6029ZM9.51143 31.4693C8.20361 31.4693 7.08403 31.0037 6.15271 30.0724C5.22138 29.141 4.75572 28.0215 4.75572 26.7136C4.75572 25.3662 5.22138 24.2367 6.15271 23.3252C7.08403 22.4137 8.20361 21.9579 9.51143 21.9579C10.8589 21.9579 11.9884 22.4137 12.8999 23.3252C13.8114 24.2367 14.2671 25.3662 14.2671 26.7136C14.2671 28.0215 13.8114 29.141 12.8999 30.0724C11.9884 31.0037 10.8589 31.4693 9.51143 31.4693ZM47.5572 31.4693C46.2493 31.4693 45.1298 31.0037 44.1984 30.0724C43.2671 29.141 42.8014 28.0215 42.8014 26.7136C42.8014 25.3662 43.2671 24.2367 44.1984 23.3252C45.1298 22.4137 46.2493 21.9579 47.5572 21.9579C48.9046 21.9579 50.0341 22.4137 50.9456 23.3252C51.8571 24.2367 52.3129 25.3662 52.3129 26.7136C52.3129 28.0215 51.8571 29.141 50.9456 30.0724C50.0341 31.0037 48.9046 31.4693 47.5572 31.4693ZM28.5343 29.0915C26.5527 29.0915 24.8684 28.3979 23.4813 27.0109C22.0943 25.6238 21.4007 23.9395 21.4007 21.9579C21.4007 19.9367 22.0943 18.2425 23.4813 16.8752C24.8684 15.508 26.5527 14.8243 28.5343 14.8243C30.5555 14.8243 32.2497 15.508 33.617 16.8752C34.9842 18.2425 35.6679 19.9367 35.6679 21.9579C35.6679 23.9395 34.9842 25.6238 33.617 27.0109C32.2497 28.3979 30.5555 29.0915 28.5343 29.0915ZM28.5343 24.3358C29.208 24.3358 29.7728 24.1079 30.2285 23.6521C30.6843 23.1964 30.9121 22.6316 30.9121 21.9579C30.9121 21.2842 30.6843 20.7194 30.2285 20.2637C29.7728 19.8079 29.208 19.5801 28.5343 19.5801C27.8606 19.5801 27.2958 19.8079 26.8401 20.2637C26.3843 20.7194 26.1564 21.2842 26.1564 21.9579C26.1564 22.6316 26.3843 23.1964 26.8401 23.6521C27.2958 24.1079 27.8606 24.3358 28.5343 24.3358Z" fill="#676565"/>
</g>
<defs>
<clipPath id="clip0_1083_4909">
<rect width="57.0686" height="57.0686" fill="white" transform="translate(0 0.557251)"/>
</clipPath>
</defs>
</svg>
