<svg width="58" height="58" viewBox="0 0 58 58" fill="none" xmlns="http://www.w3.org/2000/svg">
<path d="M18.0168 52.87C15.7182 52.87 13.7565 52.0576 12.1316 50.4327C10.5068 48.8078 9.69434 46.8461 9.69434 44.5475V13.6354C9.69434 11.3368 10.5068 9.37504 12.1316 7.75017C13.7565 6.1253 15.7182 5.31287 18.0168 5.31287H47.7401V40.9807C46.7493 40.9807 45.9071 41.3275 45.2136 42.021C44.52 42.7146 44.1733 43.5567 44.1733 44.5475C44.1733 45.5383 44.52 46.3804 45.2136 47.074C45.9071 47.7675 46.7493 48.1143 47.7401 48.1143V52.87H18.0168ZM14.4501 36.9978C15.0049 36.7204 15.5795 36.5222 16.174 36.4034C16.7685 36.2845 17.3827 36.225 18.0168 36.225H19.2058V10.0686H18.0168C17.0261 10.0686 16.1839 10.4154 15.4904 11.1089C14.7968 11.8024 14.4501 12.6446 14.4501 13.6354V36.9978ZM23.9615 36.225H42.9843V10.0686H23.9615V36.225ZM18.0168 48.1143H40.1904C39.9526 47.5595 39.7643 46.9947 39.6256 46.4201C39.4869 45.8454 39.4176 45.2212 39.4176 44.5475C39.4176 43.9134 39.477 43.2991 39.5959 42.7047C39.7148 42.1102 39.9129 41.5356 40.1904 40.9807H18.0168C16.9864 40.9807 16.1344 41.3275 15.4606 42.021C14.7869 42.7146 14.4501 43.5567 14.4501 44.5475C14.4501 45.5779 14.7869 46.43 15.4606 47.1037C16.1344 47.7774 16.9864 48.1143 18.0168 48.1143Z" fill="#676565"/>
</svg>
