<svg width="58" height="58" viewBox="0 0 58 58" fill="none" xmlns="http://www.w3.org/2000/svg">
<path d="M10.4051 50.4922V28.1998L6.12491 31.4693L3.27148 27.6648L10.4051 22.1957V14.8243H15.1608V18.5695L29.4279 7.69077L55.5844 27.6648L52.7309 31.4099L48.4508 28.1998V50.4922H10.4051ZM15.1608 45.7365H27.0501V36.2251H31.8058V45.7365H43.6951V24.5736L29.4279 13.6949L15.1608 24.5736V45.7365ZM10.4051 12.4465C10.4051 10.4649 11.0986 8.78063 12.4857 7.39354C13.8728 6.00646 15.5571 5.31292 17.5386 5.31292C18.2124 5.31292 18.7771 5.08504 19.2329 4.62928C19.6886 4.17353 19.9165 3.60878 19.9165 2.93506H24.6722C24.6722 4.91661 23.9787 6.60092 22.5916 7.98801C21.2045 9.37509 19.5202 10.0686 17.5386 10.0686C16.8649 10.0686 16.3002 10.2965 15.8444 10.7523C15.3886 11.208 15.1608 11.7728 15.1608 12.4465H10.4051Z" fill="#00AAD6"/>
</svg>
