<svg width="58" height="58" viewBox="0 0 58 58" fill="none" xmlns="http://www.w3.org/2000/svg">
<path d="M50.4374 26.8327V45.7366C50.4374 47.0445 49.9717 48.164 49.0404 49.0954C48.1091 50.0267 46.9895 50.4924 45.6817 50.4924H12.3917C11.0838 50.4924 9.96427 50.0267 9.03295 49.0954C8.10162 48.164 7.63596 47.0445 7.63596 45.7366V26.8327C6.72444 26.0004 6.02099 24.9304 5.52561 23.6226C5.03022 22.3147 5.02031 20.888 5.49588 19.3424L7.99263 11.2577C8.30968 10.2273 8.87442 9.37523 9.68686 8.70151C10.4993 8.02778 11.4405 7.69092 12.5106 7.69092H45.5628C46.6328 7.69092 47.5641 8.01787 48.3568 8.67178C49.1494 9.3257 49.724 10.1877 50.0807 11.2577L52.5775 19.3424C53.053 20.888 53.0431 22.2949 52.5477 23.5631C52.0524 24.8313 51.3489 25.9212 50.4374 26.8327ZM34.268 24.3359C35.338 24.3359 36.1504 23.9693 36.7053 23.2362C37.2601 22.503 37.4781 21.6806 37.3592 20.7691L36.0514 12.4466H31.4145V21.2447C31.4145 22.077 31.6919 22.8002 32.2468 23.4145C32.8016 24.0288 33.4753 24.3359 34.268 24.3359ZM23.5676 24.3359C24.4791 24.3359 25.2222 24.0288 25.7968 23.4145C26.3715 22.8002 26.6588 22.077 26.6588 21.2447V12.4466H22.022L20.7142 20.7691C20.5556 21.7203 20.7637 22.5525 21.3384 23.2659C21.913 23.9792 22.6561 24.3359 23.5676 24.3359ZM12.9861 24.3359C13.6995 24.3359 14.3237 24.0783 14.8587 23.5631C15.3937 23.0479 15.7207 22.394 15.8396 21.6014L17.1474 12.4466H12.5106L10.1327 20.4125C9.89492 21.2051 10.0237 22.0571 10.5191 22.9687C11.0145 23.8802 11.8368 24.3359 12.9861 24.3359ZM45.0872 24.3359C46.2365 24.3359 47.0688 23.8802 47.584 22.9687C48.0992 22.0571 48.2181 21.2051 47.9406 20.4125L45.4439 12.4466H40.926L42.2338 21.6014C42.3527 22.394 42.6796 23.0479 43.2146 23.5631C43.7497 24.0783 44.3739 24.3359 45.0872 24.3359ZM12.3917 45.7366H45.6817V28.9727C45.4835 29.052 45.3547 29.0916 45.2953 29.0916H45.0872C44.0172 29.0916 43.0759 28.9133 42.2635 28.5566C41.4511 28.1999 40.6485 27.6253 39.8559 26.8327C39.1426 27.546 38.3301 28.1009 37.4186 28.4972C36.5071 28.8935 35.5362 29.0916 34.5057 29.0916C33.4357 29.0916 32.435 28.8935 31.5037 28.4972C30.5724 28.1009 29.75 27.546 29.0367 26.8327C28.3629 27.546 27.5802 28.1009 26.6885 28.4972C25.7968 28.8935 24.8358 29.0916 23.8054 29.0916C22.6561 29.0916 21.6158 28.8935 20.6845 28.4972C19.7531 28.1009 18.9308 27.546 18.2174 26.8327C17.3852 27.6649 16.5628 28.2495 15.7504 28.5863C14.938 28.9232 14.0165 29.0916 12.9861 29.0916H12.7186C12.6195 29.0916 12.5106 29.052 12.3917 28.9727V45.7366Z" fill="#00AAD6"/>
</svg>
