<svg width="58" height="58" viewBox="0 0 58 58" fill="none" xmlns="http://www.w3.org/2000/svg">
<path d="M7.13372 17.5679V8.05645L16.6451 12.8122L7.13372 17.5679ZM42.8016 17.5679V8.05645L52.313 12.8122L42.8016 17.5679ZM26.1566 15.19V5.67859L35.668 10.4343L26.1566 15.19ZM26.1566 53.2357C23.1446 53.1565 20.3407 52.9088 17.7449 52.4927C15.1491 52.0765 12.8901 51.5514 10.968 50.9173C9.04591 50.2832 7.53003 49.5501 6.42036 48.7178C5.31069 47.8856 4.75586 47.0137 4.75586 46.1022V24.7015C4.75586 23.7107 5.38005 22.7893 6.62842 21.9372C7.8768 21.0851 9.57102 20.3321 11.7111 19.6782C13.8512 19.0243 16.3677 18.5091 19.2608 18.1326C22.1539 17.7561 25.2451 17.5679 28.5344 17.5679C31.8238 17.5679 34.915 17.7561 37.8081 18.1326C40.7011 18.5091 43.2177 19.0243 45.3578 19.6782C47.4978 20.3321 49.1921 21.0851 50.4404 21.9372C51.6888 22.7893 52.313 23.7107 52.313 24.7015V46.1022C52.313 47.0137 51.7582 47.8856 50.6485 48.7178C49.5388 49.5501 48.023 50.2832 46.1009 50.9173C44.1788 51.5514 41.9198 52.0765 39.324 52.4927C36.7281 52.9088 33.9242 53.1565 30.9123 53.2357V43.7243H26.1566V53.2357ZM28.5344 27.0793C32.3786 27.0793 35.6977 26.8514 38.4917 26.3957C41.2857 25.9399 43.5149 25.4148 45.1794 24.8203C45.1794 24.6222 43.6735 24.1565 40.6615 23.4234C37.6496 22.6902 33.6072 22.3236 28.5344 22.3236C23.4617 22.3236 19.4193 22.6902 16.4074 23.4234C13.3954 24.1565 11.8894 24.6222 11.8894 24.8203C13.5539 25.4148 15.7832 25.9399 18.5772 26.3957C21.3711 26.8514 24.6902 27.0793 28.5344 27.0793ZM21.4009 48.1233V38.9686H35.668V48.1233C38.8385 47.8063 41.4343 47.3406 43.4555 46.7264C45.4767 46.1121 46.8439 45.5672 47.5573 45.0916V28.9816C45.3776 29.8535 42.6431 30.547 39.3537 31.0622C36.0643 31.5774 32.4579 31.835 28.5344 31.835C24.611 31.835 21.0046 31.5774 17.7152 31.0622C14.4258 30.547 11.6913 29.8535 9.51157 28.9816V45.0916C10.2249 45.5672 11.5922 46.1121 13.6134 46.7264C15.6346 47.3406 18.2304 47.8063 21.4009 48.1233Z" fill="#676565"/>
</svg>
