<svg width="58" height="58" viewBox="0 0 58 58" fill="none" xmlns="http://www.w3.org/2000/svg">
<path d="M2.56055 50.858V17.5679C2.56055 15.5864 3.25409 13.9021 4.64117 12.515C6.02826 11.1279 7.71257 10.4344 9.69412 10.4344C11.6757 10.4344 13.36 11.1279 14.7471 12.515C16.1342 13.9021 16.8277 15.5864 16.8277 17.5679V18.2813L28.717 8.05652L40.6063 18.2813V17.5679C40.6063 15.5864 41.2998 13.9021 42.6869 12.515C44.074 11.1279 45.7583 10.4344 47.7398 10.4344C49.7214 10.4344 51.4057 11.1279 52.7928 12.515C54.1799 13.9021 54.8734 15.5864 54.8734 17.5679V50.858H31.0948V38.9687C31.0948 38.2949 30.867 37.7302 30.4112 37.2744C29.9554 36.8187 29.3907 36.5908 28.717 36.5908C28.0433 36.5908 27.4785 36.8187 27.0228 37.2744C26.567 37.7302 26.3391 38.2949 26.3391 38.9687V50.858H2.56055ZM45.362 19.9458H50.1177V17.5679C50.1177 16.8942 49.8898 16.3295 49.4341 15.8737C48.9783 15.418 48.4136 15.1901 47.7398 15.1901C47.0661 15.1901 46.5014 15.418 46.0456 15.8737C45.5899 16.3295 45.362 16.8942 45.362 17.5679V19.9458ZM7.31626 19.9458H12.072V17.5679C12.072 16.8942 11.8441 16.3295 11.3883 15.8737C10.9326 15.418 10.3678 15.1901 9.69412 15.1901C9.02039 15.1901 8.45565 15.418 7.9999 15.8737C7.54414 16.3295 7.31626 16.8942 7.31626 17.5679V19.9458ZM7.31626 46.1022H12.072V24.7015H7.31626V46.1022ZM16.8277 46.1022H21.5834V38.9687C21.5834 36.9871 22.2769 35.3028 23.664 33.9157C25.0511 32.5286 26.7354 31.8351 28.717 31.8351C30.6985 31.8351 32.3828 32.5286 33.7699 33.9157C35.157 35.3028 35.8506 36.9871 35.8506 38.9687V46.1022H40.6063V24.5232L28.717 14.2984L16.8277 24.5232V46.1022ZM45.362 46.1022H50.1177V24.7015H45.362V46.1022ZM28.717 28.2683C27.7262 28.2683 26.884 27.9215 26.1905 27.228C25.497 26.5345 25.1502 25.6923 25.1502 24.7015C25.1502 23.7107 25.497 22.8686 26.1905 22.175C26.884 21.4815 27.7262 21.1347 28.717 21.1347C29.7078 21.1347 30.5499 21.4815 31.2435 22.175C31.937 22.8686 32.2838 23.7107 32.2838 24.7015C32.2838 25.6923 31.937 26.5345 31.2435 27.228C30.5499 27.9215 29.7078 28.2683 28.717 28.2683Z" fill="#676565"/>
</svg>
