<svg width="58" height="58" viewBox="0 0 58 58" fill="none" xmlns="http://www.w3.org/2000/svg">
<path d="M11.6155 29.7544C9.95104 29.7544 8.54414 29.1797 7.39485 28.0304C6.24555 26.8811 5.6709 25.4742 5.6709 23.8097C5.6709 22.1452 6.24555 20.7383 7.39485 19.589C8.54414 18.4397 9.95104 17.8651 11.6155 17.8651C13.28 17.8651 14.6869 18.4397 15.8362 19.589C16.9855 20.7383 17.5602 22.1452 17.5602 23.8097C17.5602 25.4742 16.9855 26.8811 15.8362 28.0304C14.6869 29.1797 13.28 29.7544 11.6155 29.7544ZM22.3159 20.2429C20.6514 20.2429 19.2445 19.6683 18.0952 18.519C16.9459 17.3697 16.3713 15.9628 16.3713 14.2983C16.3713 12.6338 16.9459 11.2269 18.0952 10.0776C19.2445 8.92829 20.6514 8.35364 22.3159 8.35364C23.9804 8.35364 25.3873 8.92829 26.5366 10.0776C27.6859 11.2269 28.2605 12.6338 28.2605 14.2983C28.2605 15.9628 27.6859 17.3697 26.5366 18.519C25.3873 19.6683 23.9804 20.2429 22.3159 20.2429ZM36.583 20.2429C34.9185 20.2429 33.5116 19.6683 32.3624 18.519C31.2131 17.3697 30.6384 15.9628 30.6384 14.2983C30.6384 12.6338 31.2131 11.2269 32.3624 10.0776C33.5116 8.92829 34.9185 8.35364 36.583 8.35364C38.2475 8.35364 39.6544 8.92829 40.8037 10.0776C41.953 11.2269 42.5277 12.6338 42.5277 14.2983C42.5277 15.9628 41.953 17.3697 40.8037 18.519C39.6544 19.6683 38.2475 20.2429 36.583 20.2429ZM47.2834 29.7544C45.6189 29.7544 44.212 29.1797 43.0627 28.0304C41.9134 26.8811 41.3388 25.4742 41.3388 23.8097C41.3388 22.1452 41.9134 20.7383 43.0627 19.589C44.212 18.4397 45.6189 17.8651 47.2834 17.8651C48.9479 17.8651 50.3548 18.4397 51.5041 19.589C52.6534 20.7383 53.2281 22.1452 53.2281 23.8097C53.2281 25.4742 52.6534 26.8811 51.5041 28.0304C50.3548 29.1797 48.9479 29.7544 47.2834 29.7544ZM16.7279 53.5329C14.9445 53.5329 13.4485 52.8493 12.2397 51.482C11.031 50.1148 10.4266 48.4998 10.4266 46.6371C10.4266 44.5763 11.1301 42.7731 12.537 41.2275C13.9439 39.6819 15.3409 38.1561 16.7279 36.6501C17.8772 35.4216 18.868 34.084 19.7003 32.6375C20.5325 31.191 21.5233 29.8336 22.6726 28.5654C23.5445 27.535 24.555 26.683 25.7043 26.0092C26.8536 25.3355 28.102 24.9986 29.4495 24.9986C30.7969 24.9986 32.0453 25.3157 33.1946 25.9498C34.3439 26.5839 35.3545 27.4161 36.2264 28.4465C37.336 29.7147 38.3169 31.082 39.169 32.5483C40.021 34.0147 41.0217 35.382 42.171 36.6501C43.5581 38.1561 44.9551 39.6819 46.362 41.2275C47.7689 42.7731 48.4723 44.5763 48.4723 46.6371C48.4723 48.4998 47.868 50.1148 46.6592 51.482C45.4505 52.8493 43.9544 53.5329 42.171 53.5329C40.0309 53.5329 37.9107 53.3546 35.8102 52.9979C33.7098 52.6412 31.5895 52.4629 29.4495 52.4629C27.3094 52.4629 25.1891 52.6412 23.0887 52.9979C20.9883 53.3546 18.868 53.5329 16.7279 53.5329Z" fill="#676565"/>
</svg>
